g Combined Mesh (root: scene)
v 25.473671 16.717253 -5.8388853
v 22.073235 16.717253 2.853469
v 19.427277 16.717253 -3.1929264
v 28.119629 16.717253 0.20751
v 6.136305 17.100798 -10.896068
v 6.9579296 17.100798 3.38622
v -0.59402657 17.100798 -3.3441117
v 13.688261 17.100798 -4.165736
v 19.796743 16.717253 -11.6425
v 16.39631 16.717253 -2.9501424
v 13.750348 16.717253 -8.996538
v 22.442707 16.717253 -5.596104
v 26.778229 15.659821 -3.4785328
v 21.4664 15.659821 4.196394
v 20.284851 15.659821 -2.2969842
v 27.959778 15.659821 3.0148454
v 24.804798 16.284075 10.963942
v 16.332767 16.284075 -0.6332679
v 26.367388 16.284075 0.9293208
v 14.770178 16.284075 9.401352
v 24.096798 17.572588 -8.510565
v 13.299286 17.572588 0.6997211
v 14.092899 17.572588 -9.304178
v 23.303185 17.572588 1.4933345
v 26.865503 15.371113 13.170051
v 17.712584 15.371113 14.998734
v 21.3747 15.371113 9.507933
v 23.203386 15.371113 18.660852
v 7.6699963 17.4933 -11.915564
v 4.6062202 17.4933 -3.0989141
v 1.7297835 17.4933 -9.039127
v 10.5464325 17.4933 -5.975351
v 5.132886 17.179327 -10.995192
v 2.15532 17.179327 -2.149056
v -0.778965 17.179327 -8.060907
v 8.067171 17.179327 -5.0833406
vt 0 0
vt 1 1
vt 1 0
vt 0 1
vt 0 0
vt 1 1
vt 1 0
vt 0 1
vt 0 0
vt 1 1
vt 1 0
vt 0 1
vt 0 0
vt 1 1
vt 1 0
vt 0 1
vt 0 0
vt 1 1
vt 1 0
vt 0 1
vt 0 0
vt 1 1
vt 1 0
vt 0 1
vt 0 0
vt 1 1
vt 1 0
vt 0 1
vt 0 0
vt 1 1
vt 1 0
vt 0 1
vt 0 0
vt 1 1
vt 1 0
vt 0 1
vn -0 1.0000001 0
vn -0 1.0000001 0
vn -0 1.0000001 0
vn -0 1.0000001 0
vn -0 1 0
vn -0 1 0
vn -0 1 0
vn -0 1 0
vn -0 0.99999994 0
vn -0 0.99999994 0
vn -0 0.99999994 0
vn -0 0.99999994 0
vn -0 1 0
vn -0 1 0
vn -0 1 0
vn -0 1 0
vn -0 1 0
vn -0 1 0
vn -0 1 0
vn -0 1 0
vn -0 1 0
vn -0 1 0
vn -0 1 0
vn -0 1 0
vn -0 1 0
vn -0 1 0
vn -0 1 0
vn -0 1 0
vn -0 1 0
vn -0 1 0
vn -0 1 0
vn -0 1 0
vn -0 1 0
vn -0 1 0
vn -0 1 0
vn -0 1 0
g Combined Mesh (root: scene)_0
f 3/3/3 2/2/2 1/1/1
f 2/2/2 4/4/4 1/1/1
g Combined Mesh (root: scene)_1
f 7/7/7 6/6/6 5/5/5
f 6/6/6 8/8/8 5/5/5
g Combined Mesh (root: scene)_2
f 11/11/11 10/10/10 9/9/9
f 10/10/10 12/12/12 9/9/9
g Combined Mesh (root: scene)_3
f 15/15/15 14/14/14 13/13/13
f 14/14/14 16/16/16 13/13/13
g Combined Mesh (root: scene)_4
f 19/19/19 18/18/18 17/17/17
f 18/18/18 20/20/20 17/17/17
g Combined Mesh (root: scene)_5
f 23/23/23 22/22/22 21/21/21
f 22/22/22 24/24/24 21/21/21
g Combined Mesh (root: scene)_6
f 27/27/27 26/26/26 25/25/25
f 26/26/26 28/28/28 25/25/25
g Combined Mesh (root: scene)_7
f 31/31/31 30/30/30 29/29/29
f 30/30/30 32/32/32 29/29/29
g Combined Mesh (root: scene)_8
f 35/35/35 34/34/34 33/33/33
f 34/34/34 36/36/36 33/33/33
