g des_sandwall_01
v -5.17676 0 0
v -3.5577009 0.1840611 0.7854563
v -4.483205 0 1.5880351
v -4.1080804 0.1840611 0
v -2.0540402 0.1840611 1.3604497
v -2.58838 0 2.7505584
v -0 0.1840611 1.5709109
v -0 0 3.176069
v 2.0540402 0.1840611 1.3604497
v 2.58838 0 2.7505584
v 3.5577009 0.1840611 0.7854563
v 4.483205 0 1.5880351
v 4.1080804 0.1840611 0
v 5.17676 0 0
v -0 0.9849257 1.0820068
v 1.8009123 0.9849257 0.9370453
v 1.7021307 1.9698514 0.6362366
v -0 1.9698514 0.7346625
v 1.7021307 3.9397027 0.44680905
v -0 3.9397027 0.53043026
v 1.7021307 7.8794055 0.22810996
v -0 7.8794055 0.3117312
v 1.7021307 11.819108 -0.02183199
v -0 11.819108 0.061789226
v -1.7021307 7.8794055 0.22810996
v -1.7021307 11.819108 -0.02183199
v -2.9481764 7.8794055 -0.00034844875
v -2.9481764 11.819108 -0.2502904
v -3.4042614 7.8794055 -0.3124273
v -3.4042614 11.819108 -0.5623693
v 2.9481764 11.819108 -0.2502904
v 2.9481764 7.8794055 -0.00034844875
v 3.4042614 11.819108 -0.5623693
v 3.4042614 7.8794055 -0.3124273
v -1.7021307 3.9397027 0.44680905
v -2.9481764 3.9397027 0.21835065
v -3.4042614 3.9397027 -0.0937282
v 2.9481764 3.9397027 0.21835065
v 3.4042614 3.9397027 -0.0937282
v -1.7021307 15.758811 -0.30301675
v -0 15.758811 -0.21939555
v -2.9481764 15.758811 -0.5314752
v -3.4042614 15.758811 -0.843554
v 3.4042614 15.758811 -0.843554
v 2.9481764 15.758811 -0.5314752
v 1.7021307 15.758811 -0.30301675
v -3.4042614 1.9698514 0
v -2.9481764 1.9698514 0.3673308
v -1.7021307 1.9698514 0.6362366
v -1.8009123 0.9849257 0.9370453
v -3.119271 0.9849257 0.5410034
v -3.6018245 0.9849257 0
v -3.6018245 0.9849257 0
v -2.9481764 1.9698514 -0.3673308
v -2.9481764 3.9397027 -0.40580708
v -1.7021307 3.9397027 -0.6342655
v -1.7021307 7.8794055 -0.8529646
v -0 7.8794055 -0.93658584
v -0 11.819108 -1.1865277
v 1.7021307 11.819108 -1.1029066
v 1.7021307 7.8794055 -0.8529646
v -1.7021307 11.819108 -1.1029066
v -2.9481764 7.8794055 -0.6245062
v -2.9481764 11.819108 -0.8744481
v 2.9481764 11.819108 -0.8744481
v 2.9481764 7.8794055 -0.6245062
v -0 3.9397027 -0.7178867
v 1.7021307 3.9397027 -0.6342655
v 2.9481764 3.9397027 -0.40580708
v -1.7021307 15.758811 -1.3840913
v -0 15.758811 -1.4677125
v -2.9481764 15.758811 -1.1556329
v 2.9481764 15.758811 -1.1556329
v 1.7021307 15.758811 -1.3840913
v 2.9481764 1.9698514 -0.3673308
v 3.4042614 1.9698514 0
v 2.9481764 1.9698514 0.3673308
v 3.119271 0.9849257 0.5410034
v 3.6018245 0.9849257 0
v 3.4042614 1.9698514 0
v 3.119271 0.9849257 -0.5410034
v 1.8009123 0.9849257 -0.9370453
v 1.7021307 1.9698514 -0.6362366
v -0 1.9698514 -0.7346625
v -1.7021307 1.9698514 -0.6362366
v -0 0.9849257 -1.0820068
v -1.8009123 0.9849257 -0.9370453
v -3.119271 0.9849257 -0.5410034
v -3.6018245 0.9849257 0
v 2.0540402 0.1840611 -1.3604497
v -0 0.1840611 -1.5709109
v -0 0 -3.176069
v -2.58838 0 -2.7505584
v -2.0540402 0.1840611 -1.3604497
v -4.483205 0 -1.5880351
v -3.5577009 0.1840611 -0.7854563
v -5.17676 0 0
v -4.1080804 0.1840611 0
v 2.58838 0 -2.7505584
v 3.5577009 0.1840611 -0.7854563
v 4.483205 0 -1.5880351
v 4.1080804 0.1840611 0
v 5.17676 0 0
v 3.6018245 0.9849257 0
v 3.4042614 1.9698514 0
vt 0 0
vt 0.16666694 0.1
vt 0.16666694 0
vt 0 0.1
vt 0.33333352 0.1
vt 0.33333352 0
vt 0.50000024 0.1
vt 0.50000024 0
vt 0.6666669 0.1
vt 0.6666669 0
vt 0.83333343 0.1
vt 0.83333343 0
vt 1 0.1
vt 1 0
vt 0.50000024 0.15
vt 0.6666669 0.15
vt 0.6666669 0.22521521
vt 0.50000024 0.22521521
vt 0.6666669 0.35
vt 0.50000024 0.35
vt 0.6666669 0.5677034
vt 0.50000024 0.5677034
vt 0.6666669 0.8
vt 0.50000024 0.8
vt 0.33333352 0.5677034
vt 0.33333352 0.8
vt 0.16666694 0.5677034
vt 0.16666694 0.8
vt 0 0.5677034
vt 0 0.8
vt 0.83333343 0.8
vt 0.83333343 0.5677034
vt 1 0.8
vt 1 0.5677034
vt 0.33333352 0.35
vt 0.16666694 0.35
vt 0 0.35
vt 0.83333343 0.35
vt 1 0.35
vt 0.33333352 1
vt 0.50000024 1
vt 0.16666694 1
vt 0 1
vt 1 1
vt 0.83333343 1
vt 0.6666669 1
vt 0 0.22521521
vt 0.16666694 0.22521521
vt 0.33333352 0.22521521
vt 0.33333352 0.15
vt 0.16666694 0.15
vt 0 0.15
vt 0 0.15
vt 0.16666694 0.22521521
vt 0.16666694 0.35
vt 0.33333352 0.35
vt 0.33333352 0.5677034
vt 0.50000024 0.5677034
vt 0.50000024 0.8
vt 0.6666669 0.8
vt 0.6666669 0.5677034
vt 0.33333352 0.8
vt 0.16666694 0.5677034
vt 0.16666694 0.8
vt 0.83333343 0.8
vt 0.83333343 0.5677034
vt 0.50000024 0.35
vt 0.6666669 0.35
vt 0.83333343 0.35
vt 0.33333352 1
vt 0.50000024 1
vt 0.16666694 1
vt 0.83333343 1
vt 0.6666669 1
vt 0.83333343 0.22521521
vt 1 0.22521521
vt 0.83333343 0.22521521
vt 0.83333343 0.15
vt 1 0.15
vt 1 0.22521521
vt 0.83333343 0.15
vt 0.6666669 0.15
vt 0.6666669 0.22521521
vt 0.50000024 0.22521521
vt 0.33333352 0.22521521
vt 0.50000024 0.15
vt 0.33333352 0.15
vt 0.16666694 0.15
vt 0 0.15
vt 0.6666669 0.1
vt 0.50000024 0.1
vt 0.50000024 0
vt 0.33333352 0
vt 0.33333352 0.1
vt 0.16666694 0
vt 0.16666694 0.1
vt 0 0
vt 0 0.1
vt 0.6666669 0
vt 0.83333343 0.1
vt 0.83333343 0
vt 1 0.1
vt 1 0
vt 1 0.15
vt 1 0.22521521
vn -0.15070242 0.98857915 0
vn -0.33630565 0.8300905 0.44480133
vn -0.106952004 0.9890691 0.10150606
vn -0.49475357 0.86903334 0
vn -0.12515458 0.8298656 0.5437457
vn -0.039875157 0.99177796 0.12159933
vn -0 0.83646023 0.5480277
vn -0 0.99288046 0.11911531
vn 0.12515458 0.8298656 0.5437457
vn 0.039875157 0.99177796 0.12159933
vn 0.33630562 0.8300905 0.44480133
vn 0.10695201 0.9890691 0.101506084
vn 0.49475357 0.86903334 0
vn 0.15070242 0.98857915 0
vn -0 0.41213757 0.91112167
vn 0.17055315 0.39132082 0.90431166
vn 0.14031155 0.19077371 0.97155446
vn -0 0.20871697 0.9779761
vn 0.119613595 0.07346425 0.9900988
vn -0 0.077442676 0.9969968
vn 0.11475727 0.058978647 0.9916412
vn -0 0.059370853 0.99823594
vn 0.11470102 0.06680944 0.9911509
vn -0 0.0672533 0.9977359
vn -0.11475727 0.058978647 0.9916412
vn -0.11470102 0.066809446 0.9911509
vn -0.38031733 0.05490964 0.9232246
vn -0.38016844 0.062203888 0.9228232
vn -1 0 0
vn -1 0 0
vn 0.38016844 0.06220388 0.9228232
vn 0.38031733 0.054909654 0.9232246
vn 1 0 0
vn 1 0 0
vn -0.119613595 0.07346425 0.9900988
vn -0.3931063 0.059783924 0.91754746
vn -0.9999532 0.009665599 -0.0002957536
vn 0.3931063 0.05978393 0.91754746
vn 0.99995327 0.009665571 -0.0002957536
vn -0.11467029 0.070721395 0.990883
vn -0 0.071191005 0.99746275
vn -0.38008684 0.065848164 0.9226039
vn -1 0 0
vn 1 0 0
vn 0.38008684 0.065848164 0.9226039
vn 0.11467029 0.07072139 0.990883
vn -0.98786306 0.155327 -0.0002650449
vn -0.44366938 0.15032816 0.88349247
vn -0.14031155 0.19077368 0.97155446
vn -0.17055315 0.39132082 0.9043117
vn -0.49644136 0.36773697 0.78633046
vn -0.896435 0.4431751 0
vn -0.896435 0.4431751 0
vn -0.4460092 0.10707215 -0.88860077
vn -0.3934487 -0.034883562 -0.91868454
vn -0.11987319 -0.028632427 -0.99237627
vn -0.11475727 -0.058978647 -0.9916412
vn -0 -0.059370853 -0.99823594
vn -0 -0.0672533 -0.9977359
vn 0.11470103 -0.06680944 -0.9911509
vn 0.11475727 -0.058978647 -0.9916412
vn -0.11470103 -0.06680943 -0.9911509
vn -0.38031736 -0.054909647 -0.9232246
vn -0.38016844 -0.06220388 -0.9228232
vn 0.38016844 -0.062203895 -0.9228232
vn 0.38031736 -0.054909643 -0.92322457
vn -0 -0.025348814 -0.9996787
vn 0.11987319 -0.028632427 -0.99237627
vn 0.3934487 -0.034883585 -0.91868454
vn -0.11467029 -0.07072139 -0.990883
vn -0 -0.071191005 -0.99746275
vn -0.38008684 -0.065848164 -0.9226039
vn 0.38008684 -0.06584817 -0.9226039
vn 0.11467029 -0.070721395 -0.990883
vn 0.4460092 0.10707214 -0.88860077
vn 0.98786306 0.155327 -0.00026506788
vn 0.44366944 0.15032819 0.88349247
vn 0.4964414 0.36773697 0.7863304
vn 0.896435 0.4431751 0
vn 0.98786306 0.155327 -0.00026506788
vn 0.4964414 0.36773697 -0.7863304
vn 0.17055315 0.39132085 -0.90431166
vn 0.14137596 0.14432032 -0.9793796
vn -0 0.16211107 -0.98677254
vn -0.14137596 0.14432032 -0.9793796
vn -0 0.4121376 -0.91112167
vn -0.17055315 0.39132082 -0.90431166
vn -0.49644133 0.36773694 -0.78633046
vn -0.896435 0.4431751 0
vn 0.12515458 0.8298656 -0.5437457
vn -0 0.83646023 -0.5480277
vn -0 0.99288046 -0.11911531
vn -0.039875157 0.99177796 -0.12159933
vn -0.1251546 0.8298656 -0.54374576
vn -0.106952004 0.9890691 -0.10150608
vn -0.33630574 0.83009046 -0.44480133
vn -0.15070242 0.98857915 0
vn -0.49475357 0.86903334 0
vn 0.03987515 0.99177796 -0.121599324
vn 0.3363057 0.8300905 -0.44480127
vn 0.10695199 0.9890691 -0.10150606
vn 0.49475357 0.86903334 0
vn 0.15070242 0.98857915 0
vn 0.896435 0.4431751 0
vn 0.98786306 0.155327 -0.00026506788
g des_sandwall_01_0
f 3/3/3 2/2/2 1/1/1
f 2/2/2 4/4/4 1/1/1
f 5/5/5 2/2/2 3/3/3
f 6/6/6 5/5/5 3/3/3
f 7/7/7 5/5/5 6/6/6
f 8/8/8 7/7/7 6/6/6
f 9/9/9 7/7/7 8/8/8
f 10/10/10 9/9/9 8/8/8
f 11/11/11 9/9/9 10/10/10
f 12/12/12 11/11/11 10/10/10
f 13/13/13 11/11/11 12/12/12
f 14/14/14 13/13/13 12/12/12
f 7/7/7 9/9/9 15/15/15
f 9/9/9 16/16/16 15/15/15
f 9/9/9 11/11/11 16/16/16
f 16/16/16 17/17/17 15/15/15
f 17/17/17 18/18/18 15/15/15
f 17/17/17 19/19/19 18/18/18
f 19/19/19 20/20/20 18/18/18
f 19/19/19 21/21/21 20/20/20
f 21/21/21 22/22/22 20/20/20
f 21/21/21 23/23/23 22/22/22
f 23/23/23 24/24/24 22/22/22
f 22/22/22 24/24/24 25/25/25
f 24/24/24 26/26/26 25/25/25
f 25/25/25 26/26/26 27/27/27
f 26/26/26 28/28/28 27/27/27
f 27/27/27 28/28/28 29/29/29
f 28/28/28 30/30/30 29/29/29
f 31/31/31 23/23/23 21/21/21
f 32/32/32 31/31/31 21/21/21
f 32/32/32 21/21/21 19/19/19
f 33/33/33 31/31/31 32/32/32
f 34/34/34 33/33/33 32/32/32
f 20/20/20 22/22/22 35/35/35
f 22/22/22 25/25/25 35/35/35
f 35/35/35 25/25/25 36/36/36
f 25/25/25 27/27/27 36/36/36
f 36/36/36 27/27/27 37/37/37
f 27/27/27 29/29/29 37/37/37
f 34/34/34 32/32/32 38/38/38
f 39/39/39 34/34/34 38/38/38
f 38/38/38 32/32/32 19/19/19
f 26/26/26 40/40/40 28/28/28
f 41/41/41 40/40/40 26/26/26
f 40/40/40 42/42/42 28/28/28
f 28/28/28 42/42/42 30/30/30
f 42/42/42 43/43/43 30/30/30
f 33/33/33 44/44/44 31/31/31
f 44/44/44 45/45/45 31/31/31
f 31/31/31 45/45/45 23/23/23
f 45/45/45 46/46/46 23/23/23
f 23/23/23 46/46/46 24/24/24
f 46/46/46 41/41/41 24/24/24
f 24/24/24 41/41/41 26/26/26
f 36/36/36 37/37/37 47/47/47
f 48/48/48 36/36/36 47/47/47
f 35/35/35 36/36/36 48/48/48
f 49/49/49 35/35/35 48/48/48
f 20/20/20 35/35/35 49/49/49
f 18/18/18 20/20/20 49/49/49
f 18/18/18 49/49/49 50/50/50
f 15/15/15 18/18/18 50/50/50
f 50/50/50 49/49/49 51/51/51
f 49/49/49 48/48/48 51/51/51
f 51/51/51 48/48/48 52/52/52
f 48/48/48 47/47/47 53/53/53
f 7/7/7 15/15/15 50/50/50
f 5/5/5 7/7/7 50/50/50
f 5/5/5 50/50/50 51/51/51
f 2/2/2 5/5/5 51/51/51
f 2/2/2 51/51/51 4/4/4
f 51/51/51 52/52/52 4/4/4
f 47/47/47 54/54/54 53/53/53
f 55/55/55 54/54/54 47/47/47
f 55/55/55 56/56/56 54/54/54
f 57/57/57 56/56/56 55/55/55
f 57/57/57 58/58/58 56/56/56
f 59/59/59 58/58/58 57/57/57
f 59/59/59 60/60/60 58/58/58
f 60/60/60 61/61/61 58/58/58
f 62/62/62 59/59/59 57/57/57
f 62/62/62 57/57/57 63/63/63
f 63/63/63 57/57/57 55/55/55
f 64/64/64 62/62/62 63/63/63
f 64/64/64 63/63/63 29/29/29
f 30/30/30 64/64/64 29/29/29
f 60/60/60 65/65/65 61/61/61
f 65/65/65 66/66/66 61/61/61
f 65/65/65 33/33/33 66/66/66
f 33/33/33 34/34/34 66/66/66
f 58/58/58 61/61/61 67/67/67
f 58/58/58 67/67/67 56/56/56
f 61/61/61 68/68/68 67/67/67
f 61/61/61 66/66/66 68/68/68
f 29/29/29 63/63/63 37/37/37
f 63/63/63 55/55/55 37/37/37
f 66/66/66 34/34/34 69/69/69
f 66/66/66 69/69/69 68/68/68
f 34/34/34 39/39/39 69/69/69
f 70/70/70 62/62/62 64/64/64
f 70/70/70 71/71/71 62/62/62
f 72/72/72 70/70/70 64/64/64
f 72/72/72 64/64/64 30/30/30
f 43/43/43 72/72/72 30/30/30
f 44/44/44 33/33/33 65/65/65
f 73/73/73 44/44/44 65/65/65
f 73/73/73 65/65/65 60/60/60
f 74/74/74 73/73/73 60/60/60
f 71/71/71 74/74/74 59/59/59
f 74/74/74 60/60/60 59/59/59
f 71/71/71 59/59/59 62/62/62
f 37/37/37 55/55/55 47/47/47
f 69/69/69 39/39/39 75/75/75
f 39/39/39 76/76/76 75/75/75
f 76/76/76 39/39/39 77/77/77
f 39/39/39 38/38/38 77/77/77
f 77/77/77 38/38/38 17/17/17
f 38/38/38 19/19/19 17/17/17
f 76/76/76 77/77/77 78/78/78
f 78/78/78 77/77/77 16/16/16
f 77/77/77 17/17/17 16/16/16
f 11/11/11 78/78/78 16/16/16
f 11/11/11 13/13/13 78/78/78
f 13/13/13 79/79/79 78/78/78
f 79/79/79 80/80/80 78/78/78
f 75/75/75 76/76/76 81/81/81
f 75/75/75 81/81/81 82/82/82
f 83/83/83 75/75/75 82/82/82
f 69/69/69 75/75/75 83/83/83
f 68/68/68 69/69/69 83/83/83
f 68/68/68 83/83/83 84/84/84
f 67/67/67 68/68/68 84/84/84
f 67/67/67 84/84/84 85/85/85
f 56/56/56 67/67/67 85/85/85
f 56/56/56 85/85/85 54/54/54
f 84/84/84 83/83/83 86/86/86
f 83/83/83 82/82/82 86/86/86
f 85/85/85 84/84/84 87/87/87
f 84/84/84 86/86/86 87/87/87
f 54/54/54 85/85/85 88/88/88
f 85/85/85 87/87/87 88/88/88
f 54/54/54 88/88/88 89/89/89
f 82/82/82 90/90/90 86/86/86
f 90/90/90 91/91/91 86/86/86
f 86/86/86 91/91/91 87/87/87
f 91/91/91 90/90/90 92/92/92
f 91/91/91 92/92/92 93/93/93
f 94/94/94 91/91/91 93/93/93
f 91/91/91 94/94/94 87/87/87
f 87/87/87 94/94/94 88/88/88
f 94/94/94 93/93/93 95/95/95
f 96/96/96 94/94/94 95/95/95
f 94/94/94 96/96/96 88/88/88
f 96/96/96 95/95/95 97/97/97
f 98/98/98 96/96/96 97/97/97
f 89/89/89 88/88/88 98/98/98
f 88/88/88 96/96/96 98/98/98
f 90/90/90 99/99/99 92/92/92
f 90/90/90 100/100/100 99/99/99
f 100/100/100 101/101/101 99/99/99
f 100/100/100 102/102/102 101/101/101
f 102/102/102 103/103/103 101/101/101
f 102/102/102 100/100/100 81/81/81
f 104/104/104 102/102/102 81/81/81
f 105/105/105 104/104/104 81/81/81
f 81/81/81 100/100/100 82/82/82
f 100/100/100 90/90/90 82/82/82
