g Ef_Energy_Geyser_Sub
v 0.7265156 0 0
v 0.7017602 0.18803607 0.8522482
v 0.7017602 0.18803607 0
v 0.7265156 0 0.8522482
v 0.62918097 0.3632578 0.8522482
v 0.62918097 0.3632578 0
v 0.5137241 0.5137241 0.8522482
v 0.5137241 0.5137241 0
v 0.36325777 0.629181 0.8522482
v 0.36325777 0.629181 0
v 0.18803608 0.7017602 0.8522482
v 0.18803608 0.7017602 0
v 5.4850403E-08 0.7265156 0.8522482
v 5.4850403E-08 0.7265156 0
v 0.70176 -0.18803659 0
v 0.70176 -0.18803659 0.8522482
v 0.6291807 -0.3632582 0
v 0.6291807 -0.3632582 0.8522482
v 0.5137238 -0.51372445 0
v 0.5137238 -0.51372445 0.8522482
v 0.36325744 -0.62918115 0
v 0.36325744 -0.62918115 0.8522482
v 0.18803571 -0.70176023 0
v 0.18803571 -0.70176023 0.8522482
v -3.3776604E-07 -0.7265156 0
v -3.3776604E-07 -0.7265156 0.8522482
v -0.18803635 -0.70176005 0
v -0.18803635 -0.70176005 0.8522482
v -0.363258 -0.62918085 0
v -0.363258 -0.62918085 0.8522482
v -0.5137244 -0.5137238 0
v -0.5137244 -0.5137238 0.8522482
v -0.6291811 -0.3632575 0
v -0.6291811 -0.3632575 0.8522482
v -0.70176023 -0.18803577 0
v -0.70176023 -0.18803577 0.8522482
v -0.7265156 2.829156E-07 0
v -0.7265156 2.829156E-07 0.8522482
v -0.7017601 0.18803631 0
v -0.7017601 0.18803631 0.8522482
v -0.62918085 0.36325797 0
v -0.62918085 0.36325797 0.8522482
v -0.51372397 0.51372427 0
v -0.51372397 0.51372427 0.8522482
v -0.36325768 0.629181 0
v -0.36325768 0.629181 0.8522482
v -0.18803598 0.70176023 0
v -0.18803598 0.70176023 0.8522482
v 5.4850403E-08 0.7265156 0
v 5.4850403E-08 0.7265156 0.8522482
vt 0.75 0.0004994869
vt 0.7916666 0.9995005
vt 0.7916666 0.0004994869
vt 0.75 0.9995005
vt 0.8333333 0.9995005
vt 0.8333333 0.0004994869
vt 0.87499994 0.9995005
vt 0.87499994 0.0004994869
vt 0.9166666 0.9995005
vt 0.9166666 0.0004994869
vt 0.9583333 0.9995005
vt 0.9583333 0.0004994869
vt 0.99999994 0.9995005
vt 0.99999994 0.0004994869
vt 0.7083332 0.0004994869
vt 0.7083332 0.9995005
vt 0.6666665 0.0004994869
vt 0.6666665 0.9995005
vt 0.6249999 0.0004994869
vt 0.6249999 0.9995005
vt 0.5833332 0.0004994869
vt 0.5833332 0.9995005
vt 0.54166657 0.0004994869
vt 0.54166657 0.9995005
vt 0.49999988 0.0004994869
vt 0.49999988 0.9995005
vt 0.45833322 0.0004994869
vt 0.45833322 0.9995005
vt 0.41666657 0.0004994869
vt 0.41666657 0.9995005
vt 0.37499988 0.0004994869
vt 0.37499988 0.9995005
vt 0.33333322 0.0004994869
vt 0.33333322 0.9995005
vt 0.29166657 0.0004994869
vt 0.29166657 0.9995005
vt 0.24999991 0.0004994869
vt 0.24999991 0.9995005
vt 0.20833327 0.0004994869
vt 0.20833327 0.9995005
vt 0.1666666 0.0004994869
vt 0.1666666 0.9995005
vt 0.12499993 0.0004994869
vt 0.12499993 0.9995005
vt 0.083333276 0.0004994869
vt 0.083333276 0.9995005
vt 0.04166662 0.0004994869
vt 0.04166662 0.9995005
vt -5.9604645E-08 0.0004994869
vt -5.9604645E-08 0.9995005
vn 1 0 0
vn 0.9659258 0.25881907 0
vn 0.9659258 0.25881907 0
vn 1 0 0
vn 0.8660253 0.50000006 0
vn 0.8660253 0.50000006 0
vn 0.7071068 0.70710677 0
vn 0.7071068 0.70710677 0
vn 0.5 0.86602545 0
vn 0.5 0.86602545 0
vn 0.25881898 0.9659258 0
vn 0.25881898 0.9659258 0
vn -0 1 0
vn -0 1 0
vn 0.9659257 -0.25881952 0
vn 0.9659257 -0.25881952 0
vn 0.8660251 -0.5000004 0
vn 0.8660251 -0.5000004 0
vn 0.7071063 -0.70710725 0
vn 0.7071063 -0.70710725 0
vn 0.4999994 -0.86602575 0
vn 0.4999994 -0.86602575 0
vn 0.25881854 -0.965926 0
vn 0.25881854 -0.965926 0
vn -0 -1 0
vn -0 -1 0
vn -0.25881946 -0.9659257 0
vn -0.25881946 -0.9659257 0
vn -0.5000003 -0.86602527 0
vn -0.5000003 -0.86602527 0
vn -0.7071071 -0.7071065 0
vn -0.7071071 -0.7071065 0
vn -0.8660256 -0.4999996 0
vn -0.8660256 -0.4999996 0
vn -0.96592593 -0.2588187 0
vn -0.96592593 -0.2588187 0
vn -1 0 0
vn -1 0 0
vn -0.96592575 0.25881934 0
vn -0.96592575 0.25881934 0
vn -0.86602527 0.5000003 0
vn -0.86602527 0.5000003 0
vn -0.70710653 0.707107 0
vn -0.70710653 0.707107 0
vn -0.49999985 0.8660255 0
vn -0.49999985 0.8660255 0
vn -0.25881895 0.9659258 0
vn -0.25881895 0.9659258 0
vn -0 1 0
vn -0 1 0
g Ef_Energy_Geyser_Sub_0
f 3/3/3 2/2/2 1/1/1
f 2/2/2 4/4/4 1/1/1
f 5/5/5 2/2/2 3/3/3
f 6/6/6 5/5/5 3/3/3
f 7/7/7 5/5/5 6/6/6
f 8/8/8 7/7/7 6/6/6
f 9/9/9 7/7/7 8/8/8
f 10/10/10 9/9/9 8/8/8
f 11/11/11 9/9/9 10/10/10
f 12/12/12 11/11/11 10/10/10
f 13/13/13 11/11/11 12/12/12
f 14/14/14 13/13/13 12/12/12
f 1/1/1 4/4/4 15/15/15
f 4/4/4 16/16/16 15/15/15
f 15/15/15 16/16/16 17/17/17
f 16/16/16 18/18/18 17/17/17
f 17/17/17 18/18/18 19/19/19
f 18/18/18 20/20/20 19/19/19
f 19/19/19 20/20/20 21/21/21
f 20/20/20 22/22/22 21/21/21
f 21/21/21 22/22/22 23/23/23
f 22/22/22 24/24/24 23/23/23
f 23/23/23 24/24/24 25/25/25
f 24/24/24 26/26/26 25/25/25
f 25/25/25 26/26/26 27/27/27
f 26/26/26 28/28/28 27/27/27
f 27/27/27 28/28/28 29/29/29
f 28/28/28 30/30/30 29/29/29
f 29/29/29 30/30/30 31/31/31
f 30/30/30 32/32/32 31/31/31
f 31/31/31 32/32/32 33/33/33
f 32/32/32 34/34/34 33/33/33
f 33/33/33 34/34/34 35/35/35
f 34/34/34 36/36/36 35/35/35
f 35/35/35 36/36/36 37/37/37
f 36/36/36 38/38/38 37/37/37
f 37/37/37 38/38/38 39/39/39
f 38/38/38 40/40/40 39/39/39
f 39/39/39 40/40/40 41/41/41
f 40/40/40 42/42/42 41/41/41
f 41/41/41 42/42/42 43/43/43
f 42/42/42 44/44/44 43/43/43
f 43/43/43 44/44/44 45/45/45
f 44/44/44 46/46/46 45/45/45
f 45/45/45 46/46/46 47/47/47
f 46/46/46 48/48/48 47/47/47
f 47/47/47 48/48/48 49/49/49
f 48/48/48 50/50/50 49/49/49
