g Ef_Lottery_NikiSquare
v -0 0.96000004 0
v -0.16000001 0.8 0
v -0.2 0.8 0
v -0 1 0
v 0.16000001 0.8 0
v -0 0.96000004 0
v -0 1 0
v 0.2 0.8 0
v -0 0.64000005 0
v 0.16000001 0.8 0
v 0.2 0.8 0
v -0 0.6 0
v -0.16000001 0.8 0
v -0 0.64000005 0
v -0 0.6 0
v -0.2 0.8 0
v -0 0.8 0
v -0.16000001 0.8 0
v -0 0.96000004 0
v -0 0.8 0
v -0 0.96000004 0
v 0.16000001 0.8 0
v -0 0.8 0
v 0.16000001 0.8 0
v -0 0.64000005 0
v -0 0.8 0
v -0 0.64000005 0
v -0.16000001 0.8 0
v 0.6170761 0.7354027 0
v 0.391663 0.7156816 0
v 0.36102122 0.7413931 0
v 0.64278764 0.76604456 0
v 0.6367972 0.5099895 0
v 0.6170761 0.7354027 0
v 0.64278764 0.76604456 0
v 0.667439 0.4842781 0
v 0.4113841 0.49026853 0
v 0.6367972 0.5099895 0
v 0.667439 0.4842781 0
v 0.3856725 0.45962673 0
v 0.391663 0.7156816 0
v 0.4113841 0.49026853 0
v 0.3856725 0.45962673 0
v 0.36102122 0.7413931 0
v 0.51423013 0.6128356 0
v 0.391663 0.7156816 0
v 0.6170761 0.7354027 0
v 0.51423013 0.6128356 0
v 0.6170761 0.7354027 0
v 0.6367972 0.5099895 0
v 0.51423013 0.6128356 0
v 0.6367972 0.5099895 0
v 0.4113841 0.49026853 0
v 0.51423013 0.6128356 0
v 0.4113841 0.49026853 0
v 0.391663 0.7156816 0
v 0.9454156 0.1667022 0
v 0.76006263 0.2964878 0
v 0.7531167 0.3358801 0
v 0.9848079 0.1736481 0
v 0.81562996 -0.01865075 0
v 0.9454156 0.1667022 0
v 0.9848079 0.1736481 0
v 0.82257587 -0.05804307 0
v 0.63027704 0.111134805 0
v 0.81562996 -0.01865075 0
v 0.82257587 -0.05804307 0
v 0.5908847 0.1041889 0
v 0.76006263 0.2964878 0
v 0.63027704 0.111134805 0
v 0.5908847 0.1041889 0
v 0.7531167 0.3358801 0
v 0.78784627 0.1389185 0
v 0.76006263 0.2964878 0
v 0.9454156 0.1667022 0
v 0.78784627 0.1389185 0
v 0.9454156 0.1667022 0
v 0.81562996 -0.01865075 0
v 0.78784627 0.1389185 0
v 0.81562996 -0.01865075 0
v 0.63027704 0.111134805 0
v 0.78784627 0.1389185 0
v 0.63027704 0.111134805 0
v 0.76006263 0.2964878 0
v 0.83138436 -0.4800001 0
v 0.7728204 -0.26143602 0
v 0.7928204 -0.226795 0
v 0.8660254 -0.5 0
v 0.6128202 -0.5385642 0
v 0.83138436 -0.4800001 0
v 0.8660254 -0.5 0
v 0.59282035 -0.5732052 0
v 0.5542562 -0.3200001 0
v 0.6128202 -0.5385642 0
v 0.59282035 -0.5732052 0
v 0.51961523 -0.3 0
v 0.7728204 -0.26143602 0
v 0.5542562 -0.3200001 0
v 0.51961523 -0.3 0
v 0.7928204 -0.226795 0
v 0.6928203 -0.4 0
v 0.7728204 -0.26143602 0
v 0.83138436 -0.4800001 0
v 0.6928203 -0.4 0
v 0.83138436 -0.4800001 0
v 0.6128202 -0.5385642 0
v 0.6928203 -0.4 0
v 0.6128202 -0.5385642 0
v 0.5542562 -0.3200001 0
v 0.6928203 -0.4 0
v 0.5542562 -0.3200001 0
v 0.7728204 -0.26143602 0
v 0.32833952 -0.90210515 0
v 0.42396712 -0.697031 0
v 0.46155483 -0.6833501 0
v 0.3420203 -0.9396928 0
v 0.1232654 -0.80647755 0
v 0.32833952 -0.90210515 0
v 0.3420203 -0.9396928 0
v 0.08567766 -0.8201582 0
v 0.218893 -0.6014033 0
v 0.1232654 -0.80647755 0
v 0.08567766 -0.8201582 0
v 0.20521222 -0.5638156 0
v 0.42396712 -0.697031 0
v 0.218893 -0.6014033 0
v 0.20521222 -0.5638156 0
v 0.46155483 -0.6833502 0
v 0.2736162 -0.7517542 0
v 0.42396712 -0.697031 0
v 0.32833952 -0.90210515 0
v 0.2736162 -0.7517542 0
v 0.32833952 -0.90210515 0
v 0.1232654 -0.80647755 0
v 0.2736162 -0.7517542 0
v 0.1232654 -0.80647755 0
v 0.218893 -0.6014033 0
v 0.2736162 -0.7517542 0
v 0.218893 -0.6014033 0
v 0.42396712 -0.697031 0
v -0.32833943 -0.90210515 0
v -0.1232653 -0.80647755 0
v -0.08567762 -0.8201582 0
v -0.3420202 -0.9396928 0
v -0.42396697 -0.697031 0
v -0.32833943 -0.90210515 0
v -0.3420202 -0.9396928 0
v -0.46155474 -0.6833501 0
v -0.21889292 -0.6014033 0
v -0.42396697 -0.697031 0
v -0.46155474 -0.6833501 0
v -0.2052121 -0.5638156 0
v -0.1232653 -0.80647755 0
v -0.21889292 -0.6014033 0
v -0.2052121 -0.5638156 0
v -0.08567762 -0.8201583 0
v -0.2736162 -0.7517542 0
v -0.1232653 -0.80647755 0
v -0.32833943 -0.90210515 0
v -0.2736162 -0.7517542 0
v -0.32833943 -0.90210515 0
v -0.42396697 -0.697031 0
v -0.2736162 -0.7517542 0
v -0.42396697 -0.697031 0
v -0.21889292 -0.6014033 0
v -0.2736162 -0.7517542 0
v -0.21889292 -0.6014033 0
v -0.1232653 -0.80647755 0
v -0.8313846 -0.48000002 0
v -0.6128204 -0.53856415 0
v -0.5928204 -0.5732051 0
v -0.86602557 -0.5 0
v -0.7728204 -0.2614359 0
v -0.8313846 -0.48000002 0
v -0.86602557 -0.5 0
v -0.7928204 -0.22679491 0
v -0.5542563 -0.32000002 0
v -0.7728204 -0.2614359 0
v -0.7928204 -0.22679491 0
v -0.51961535 -0.3 0
v -0.6128204 -0.53856415 0
v -0.5542563 -0.32000002 0
v -0.51961535 -0.3 0
v -0.5928205 -0.5732051 0
v -0.6928205 -0.4 0
v -0.6128204 -0.53856415 0
v -0.8313846 -0.48000002 0
v -0.6928205 -0.4 0
v -0.8313846 -0.48000002 0
v -0.7728204 -0.2614359 0
v -0.6928205 -0.4 0
v -0.7728204 -0.2614359 0
v -0.5542563 -0.32000002 0
v -0.6928205 -0.4 0
v -0.5542563 -0.32000002 0
v -0.6128204 -0.53856415 0
v -0.9454156 0.1667022 0
v -0.81562996 -0.01865075 0
v -0.82257587 -0.058043063 0
v -0.9848079 0.1736481 0
v -0.76006263 0.2964878 0
v -0.9454156 0.1667022 0
v -0.9848079 0.1736481 0
v -0.7531166 0.3358801 0
v -0.63027704 0.111134805 0
v -0.76006263 0.2964878 0
v -0.7531166 0.3358801 0
v -0.5908847 0.1041889 0
v -0.8156301 -0.01865075 0
v -0.63027704 0.111134805 0
v -0.5908847 0.1041889 0
v -0.82257605 -0.058043063 0
v -0.78784627 0.1389185 0
v -0.81562996 -0.01865075 0
v -0.9454156 0.1667022 0
v -0.78784627 0.1389185 0
v -0.9454156 0.1667022 0
v -0.76006263 0.2964878 0
v -0.78784627 0.1389185 0
v -0.76006263 0.2964878 0
v -0.63027704 0.111134805 0
v -0.78784627 0.1389185 0
v -0.63027704 0.111134805 0
v -0.8156301 -0.01865075 0
v -0.6170762 0.7354026 0
v -0.6367973 0.5099895 0
v -0.6674391 0.48427802 0
v -0.6427877 0.7660444 0
v -0.3916631 0.7156816 0
v -0.6170762 0.7354026 0
v -0.6427877 0.7660444 0
v -0.3610213 0.7413931 0
v -0.4113842 0.49026844 0
v -0.3916631 0.7156816 0
v -0.3610213 0.7413931 0
v -0.3856727 0.4596266 0
v -0.6367973 0.5099895 0
v -0.4113842 0.49026844 0
v -0.3856727 0.4596266 0
v -0.6674391 0.48427802 0
v -0.5142302 0.6128355 0
v -0.6367973 0.5099895 0
v -0.6170762 0.7354026 0
v -0.5142302 0.6128355 0
v -0.6170762 0.7354026 0
v -0.3916631 0.7156816 0
v -0.5142302 0.6128355 0
v -0.3916631 0.7156816 0
v -0.4113842 0.49026844 0
v -0.5142302 0.6128355 0
v -0.4113842 0.49026844 0
v -0.6367973 0.5099895 0
vt 0.25 0
vt 0 0
vt 0 1
vt 0.25 1
vt 0.5 0
vt 0.25 0
vt 0.25 1
vt 0.5 1
vt 0.75 0
vt 0.5 0
vt 0.5 1
vt 0.75 1
vt 1 0
vt 0.75 0
vt 0.75 1
vt 1 1
vt 0.25 0
vt 0 1
vt 0.25 1
vt 0.5 0
vt 0.25 1
vt 0.5 1
vt 0.75 0
vt 0.5 1
vt 0.75 1
vt 1 0
vt 0.75 1
vt 1 1
vt 0.25 0
vt 0 0
vt 0 1
vt 0.25 1
vt 0.5 0
vt 0.25 0
vt 0.25 1
vt 0.5 1
vt 0.75 0
vt 0.5 0
vt 0.5 1
vt 0.75 1
vt 1 0
vt 0.75 0
vt 0.75 1
vt 1 1
vt 0.25 0
vt 0 1
vt 0.25 1
vt 0.5 0
vt 0.25 1
vt 0.5 1
vt 0.75 0
vt 0.5 1
vt 0.75 1
vt 1 0
vt 0.75 1
vt 1 1
vt 0.25 0
vt 0 0
vt 0 1
vt 0.25 1
vt 0.5 0
vt 0.25 0
vt 0.25 1
vt 0.5 1
vt 0.75 0
vt 0.5 0
vt 0.5 1
vt 0.75 1
vt 1 0
vt 0.75 0
vt 0.75 1
vt 1 1
vt 0.25 0
vt 0 1
vt 0.25 1
vt 0.5 0
vt 0.25 1
vt 0.5 1
vt 0.75 0
vt 0.5 1
vt 0.75 1
vt 1 0
vt 0.75 1
vt 1 1
vt 0.25 0
vt 0 0
vt 0 1
vt 0.25 1
vt 0.5 0
vt 0.25 0
vt 0.25 1
vt 0.5 1
vt 0.75 0
vt 0.5 0
vt 0.5 1
vt 0.75 1
vt 1 0
vt 0.75 0
vt 0.75 1
vt 1 1
vt 0.25 0
vt 0 1
vt 0.25 1
vt 0.5 0
vt 0.25 1
vt 0.5 1
vt 0.75 0
vt 0.5 1
vt 0.75 1
vt 1 0
vt 0.75 1
vt 1 1
vt 0.25 0
vt 0 0
vt 0 1
vt 0.25 1
vt 0.5 0
vt 0.25 0
vt 0.25 1
vt 0.5 1
vt 0.75 0
vt 0.5 0
vt 0.5 1
vt 0.75 1
vt 1 0
vt 0.75 0
vt 0.75 1
vt 1 1
vt 0.25 0
vt 0 1
vt 0.25 1
vt 0.5 0
vt 0.25 1
vt 0.5 1
vt 0.75 0
vt 0.5 1
vt 0.75 1
vt 1 0
vt 0.75 1
vt 1 1
vt 0.25 0
vt 0 0
vt 0 1
vt 0.25 1
vt 0.5 0
vt 0.25 0
vt 0.25 1
vt 0.5 1
vt 0.75 0
vt 0.5 0
vt 0.5 1
vt 0.75 1
vt 1 0
vt 0.75 0
vt 0.75 1
vt 1 1
vt 0.25 0
vt 0 1
vt 0.25 1
vt 0.5 0
vt 0.25 1
vt 0.5 1
vt 0.75 0
vt 0.5 1
vt 0.75 1
vt 1 0
vt 0.75 1
vt 1 1
vt 0.25 0
vt 0 0
vt 0 1
vt 0.25 1
vt 0.5 0
vt 0.25 0
vt 0.25 1
vt 0.5 1
vt 0.75 0
vt 0.5 0
vt 0.5 1
vt 0.75 1
vt 1 0
vt 0.75 0
vt 0.75 1
vt 1 1
vt 0.25 0
vt 0 1
vt 0.25 1
vt 0.5 0
vt 0.25 1
vt 0.5 1
vt 0.75 0
vt 0.5 1
vt 0.75 1
vt 1 0
vt 0.75 1
vt 1 1
vt 0.25 0
vt 0 0
vt 0 1
vt 0.25 1
vt 0.5 0
vt 0.25 0
vt 0.25 1
vt 0.5 1
vt 0.75 0
vt 0.5 0
vt 0.5 1
vt 0.75 1
vt 1 0
vt 0.75 0
vt 0.75 1
vt 1 1
vt 0.25 0
vt 0 1
vt 0.25 1
vt 0.5 0
vt 0.25 1
vt 0.5 1
vt 0.75 0
vt 0.5 1
vt 0.75 1
vt 1 0
vt 0.75 1
vt 1 1
vt 0.25 0
vt 0 0
vt 0 1
vt 0.25 1
vt 0.5 0
vt 0.25 0
vt 0.25 1
vt 0.5 1
vt 0.75 0
vt 0.5 0
vt 0.5 1
vt 0.75 1
vt 1 0
vt 0.75 0
vt 0.75 1
vt 1 1
vt 0.25 0
vt 0 1
vt 0.25 1
vt 0.5 0
vt 0.25 1
vt 0.5 1
vt 0.75 0
vt 0.5 1
vt 0.75 1
vt 1 0
vt 0.75 1
vt 1 1
vn -0 0 1
vn -0 0 1
vn -0 0 1
vn -0 0 1
vn -0 0 1
vn -0 0 1
vn -0 0 1
vn -0 0 1
vn -0 0 1
vn -0 0 1
vn -0 0 1
vn -0 0 1
vn -0 0 1
vn -0 0 1
vn -0 0 1
vn -0 0 1
vn -0 0 1
vn -0 0 1
vn -0 0 1
vn -0 0 1
vn -0 0 1
vn -0 0 1
vn -0 0 1
vn -0 0 1
vn -0 0 1
vn -0 0 1
vn -0 0 1
vn -0 0 1
vn -0 0 1
vn -0 0 1
vn -0 0 1
vn -0 0 1
vn -0 0 1
vn -0 0 1
vn -0 0 1
vn -0 0 1
vn -0 0 1
vn -0 0 1
vn -0 0 1
vn -0 0 1
vn -0 0 1
vn -0 0 1
vn -0 0 1
vn -0 0 1
vn -0 0 1
vn -0 0 1
vn -0 0 1
vn -0 0 1
vn -0 0 1
vn -0 0 1
vn -0 0 1
vn -0 0 1
vn -0 0 1
vn -0 0 1
vn -0 0 1
vn -0 0 1
vn -0 0 1
vn -0 0 1
vn -0 0 1
vn -0 0 1
vn -0 0 1
vn -0 0 1
vn -0 0 1
vn -0 0 1
vn -0 0 1
vn -0 0 1
vn -0 0 1
vn -0 0 1
vn -0 0 1
vn -0 0 1
vn -0 0 1
vn -0 0 1
vn -0 0 1
vn -0 0 1
vn -0 0 1
vn -0 0 1
vn -0 0 1
vn -0 0 1
vn -0 0 1
vn -0 0 1
vn -0 0 1
vn -0 0 1
vn -0 0 1
vn -0 0 1
vn -0 0 1
vn -0 0 1
vn -0 0 1
vn -0 0 1
vn -0 0 1
vn -0 0 1
vn -0 0 1
vn -0 0 1
vn -0 0 1
vn -0 0 1
vn -0 0 1
vn -0 0 1
vn -0 0 1
vn -0 0 1
vn -0 0 1
vn -0 0 1
vn -0 0 1
vn -0 0 1
vn -0 0 1
vn -0 0 1
vn -0 0 1
vn -0 0 1
vn -0 0 1
vn -0 0 1
vn -0 0 1
vn -0 0 1
vn -0 0 1
vn -0 0 1
vn -0 0 1
vn -0 0 1
vn -0 0 1
vn -0 0 1
vn -0 0 1
vn -0 0 1
vn -0 0 1
vn -0 0 1
vn -0 0 1
vn -0 0 1
vn -0 0 1
vn -0 0 1
vn -0 0 1
vn -0 0 1
vn -0 0 1
vn -0 0 1
vn -0 0 1
vn -0 0 1
vn -0 0 1
vn -0 0 1
vn -0 0 1
vn -0 0 1
vn -0 0 1
vn -0 0 1
vn -0 0 1
vn -0 0 1
vn -0 0 1
vn -0 0 1
vn -0 0 1
vn -0 0 1
vn -0 0 1
vn -0 0 1
vn -0 0 1
vn -0 0 1
vn -0 0 1
vn -0 0 1
vn -0 0 1
vn -0 0 1
vn -0 0 1
vn -0 0 1
vn -0 0 1
vn -0 0 1
vn -0 0 1
vn -0 0 1
vn -0 0 1
vn -0 0 1
vn -0 0 1
vn -0 0 1
vn -0 0 1
vn -0 0 1
vn -0 0 1
vn -0 0 1
vn -0 0 1
vn -0 0 1
vn -0 0 1
vn -0 0 1
vn -0 0 1
vn -0 0 1
vn -0 0 1
vn -0 0 1
vn -0 0 1
vn -0 0 1
vn -0 0 1
vn -0 0 1
vn -0 0 1
vn -0 0 1
vn -0 0 1
vn -0 0 1
vn -0 0 1
vn -0 0 1
vn -0 0 1
vn -0 0 1
vn -0 0 1
vn -0 0 1
vn -0 0 1
vn -0 0 1
vn -0 0 1
vn -0 0 1
vn -0 0 1
vn -0 0 1
vn -0 0 1
vn -0 0 1
vn -0 0 1
vn -0 0 1
vn -0 0 1
vn -0 0 1
vn -0 0 1
vn -0 0 1
vn -0 0 1
vn -0 0 1
vn -0 0 1
vn -0 0 1
vn -0 0 1
vn -0 0 1
vn -0 0 1
vn -0 0 1
vn -0 0 1
vn -0 0 1
vn -0 0 1
vn -0 0 1
vn -0 0 1
vn -0 0 1
vn -0 0 1
vn -0 0 1
vn -0 0 1
vn -0 0 1
vn -0 0 1
vn -0 0 1
vn -0 0 1
vn -0 0 1
vn -0 0 1
vn -0 0 1
vn -0 0 1
vn -0 0 1
vn -0 0 1
vn -0 0 1
vn -0 0 1
vn -0 0 1
vn -0 0 1
vn -0 0 1
vn -0 0 1
vn -0 0 1
vn -0 0 1
vn -0 0 1
vn -0 0 1
vn -0 0 1
vn -0 0 1
vn -0 0 1
vn -0 0 1
vn -0 0 1
vn -0 0 1
vn -0 0 1
vn -0 0 1
vn -0 0 1
vn -0 0 1
vn -0 0 1
vn -0 0 1
vn -0 0 1
vn -0 0 1
vn -0 0 1
g Ef_Lottery_NikiSquare_0
f 3/3/3 2/2/2 1/1/1
f 4/4/4 3/3/3 1/1/1
f 7/7/7 6/6/6 5/5/5
f 8/8/8 7/7/7 5/5/5
f 11/11/11 10/10/10 9/9/9
f 12/12/12 11/11/11 9/9/9
f 15/15/15 14/14/14 13/13/13
f 16/16/16 15/15/15 13/13/13
f 19/19/19 18/18/18 17/17/17
f 22/22/22 21/21/21 20/20/20
f 25/25/25 24/24/24 23/23/23
f 28/28/28 27/27/27 26/26/26
f 31/31/31 30/30/30 29/29/29
f 32/32/32 31/31/31 29/29/29
f 35/35/35 34/34/34 33/33/33
f 36/36/36 35/35/35 33/33/33
f 39/39/39 38/38/38 37/37/37
f 40/40/40 39/39/39 37/37/37
f 43/43/43 42/42/42 41/41/41
f 44/44/44 43/43/43 41/41/41
f 47/47/47 46/46/46 45/45/45
f 50/50/50 49/49/49 48/48/48
f 53/53/53 52/52/52 51/51/51
f 56/56/56 55/55/55 54/54/54
f 59/59/59 58/58/58 57/57/57
f 60/60/60 59/59/59 57/57/57
f 63/63/63 62/62/62 61/61/61
f 64/64/64 63/63/63 61/61/61
f 67/67/67 66/66/66 65/65/65
f 68/68/68 67/67/67 65/65/65
f 71/71/71 70/70/70 69/69/69
f 72/72/72 71/71/71 69/69/69
f 75/75/75 74/74/74 73/73/73
f 78/78/78 77/77/77 76/76/76
f 81/81/81 80/80/80 79/79/79
f 84/84/84 83/83/83 82/82/82
f 87/87/87 86/86/86 85/85/85
f 88/88/88 87/87/87 85/85/85
f 91/91/91 90/90/90 89/89/89
f 92/92/92 91/91/91 89/89/89
f 95/95/95 94/94/94 93/93/93
f 96/96/96 95/95/95 93/93/93
f 99/99/99 98/98/98 97/97/97
f 100/100/100 99/99/99 97/97/97
f 103/103/103 102/102/102 101/101/101
f 106/106/106 105/105/105 104/104/104
f 109/109/109 108/108/108 107/107/107
f 112/112/112 111/111/111 110/110/110
f 115/115/115 114/114/114 113/113/113
f 116/116/116 115/115/115 113/113/113
f 119/119/119 118/118/118 117/117/117
f 120/120/120 119/119/119 117/117/117
f 123/123/123 122/122/122 121/121/121
f 124/124/124 123/123/123 121/121/121
f 127/127/127 126/126/126 125/125/125
f 128/128/128 127/127/127 125/125/125
f 131/131/131 130/130/130 129/129/129
f 134/134/134 133/133/133 132/132/132
f 137/137/137 136/136/136 135/135/135
f 140/140/140 139/139/139 138/138/138
f 143/143/143 142/142/142 141/141/141
f 144/144/144 143/143/143 141/141/141
f 147/147/147 146/146/146 145/145/145
f 148/148/148 147/147/147 145/145/145
f 151/151/151 150/150/150 149/149/149
f 152/152/152 151/151/151 149/149/149
f 155/155/155 154/154/154 153/153/153
f 156/156/156 155/155/155 153/153/153
f 159/159/159 158/158/158 157/157/157
f 162/162/162 161/161/161 160/160/160
f 165/165/165 164/164/164 163/163/163
f 168/168/168 167/167/167 166/166/166
f 171/171/171 170/170/170 169/169/169
f 172/172/172 171/171/171 169/169/169
f 175/175/175 174/174/174 173/173/173
f 176/176/176 175/175/175 173/173/173
f 179/179/179 178/178/178 177/177/177
f 180/180/180 179/179/179 177/177/177
f 183/183/183 182/182/182 181/181/181
f 184/184/184 183/183/183 181/181/181
f 187/187/187 186/186/186 185/185/185
f 190/190/190 189/189/189 188/188/188
f 193/193/193 192/192/192 191/191/191
f 196/196/196 195/195/195 194/194/194
f 199/199/199 198/198/198 197/197/197
f 200/200/200 199/199/199 197/197/197
f 203/203/203 202/202/202 201/201/201
f 204/204/204 203/203/203 201/201/201
f 207/207/207 206/206/206 205/205/205
f 208/208/208 207/207/207 205/205/205
f 211/211/211 210/210/210 209/209/209
f 212/212/212 211/211/211 209/209/209
f 215/215/215 214/214/214 213/213/213
f 218/218/218 217/217/217 216/216/216
f 221/221/221 220/220/220 219/219/219
f 224/224/224 223/223/223 222/222/222
f 227/227/227 226/226/226 225/225/225
f 228/228/228 227/227/227 225/225/225
f 231/231/231 230/230/230 229/229/229
f 232/232/232 231/231/231 229/229/229
f 235/235/235 234/234/234 233/233/233
f 236/236/236 235/235/235 233/233/233
f 239/239/239 238/238/238 237/237/237
f 240/240/240 239/239/239 237/237/237
f 243/243/243 242/242/242 241/241/241
f 246/246/246 245/245/245 244/244/244
f 249/249/249 248/248/248 247/247/247
f 252/252/252 251/251/251 250/250/250
