g Ef_Slash
v -0 1.2920611 0.5390796
v -0 1.476186 0.617244
v -0 1.329805 0.8909578
v -0 1.16268 0.7776947
v -0 1.107938 0.4609191
v -0 0.99550694 0.6646813
v -0 0.92378247 0.3827422
v -0 0.8282119 0.5520904
v -0 1.12063 1.1784481
v -0 0.98177546 1.013455
v -0 0.8429589 0.8487873
v -0 0.7041851 0.6846592
v -0 0.86586267 1.4513791
v -0 0.7622015 1.2282851
v -0 0.6587141 1.0054821
v -0 0.555526 0.7831196
v -0 0.5827025 1.681413
v -0 0.5168119 1.404113
v -0 0.4511923 1.127008
v -0 0.3860586 0.8501418
v -0 0.2883501 1.8402131
v -0 0.25846082 1.522863
v -0 0.2288138 1.2056121
v -0 0.1996068 0.8883967
v -0 0 1.899443
v -0 0 1.5664641
v -0 0 1.233536
v -0 0 0.9005548
v -0 -0.3179351 1.846117
v -0 -0.2718241 1.525531
v -0 -0.22619842 1.205091
v -0 -0.1814598 0.88477725
v -0 -0.61570793 1.700304
v -0 -0.531726 1.4126481
v -0 -0.4482865 1.1253431
v -0 -0.3658364 0.8385629
v -0 -0.8868513 1.4832491
v -0 -0.7716973 1.242686
v -0 -0.65689033 1.0026749
v -0 -0.5427118 0.7635896
v -0 -1.124904 1.2162011
v -0 -0.98373175 1.0305151
v -0 -0.8426337 0.8454693
v -0 -0.7016628 0.6615353
v -0 -1.323405 0.9204044
v -0 -1.1598231 0.7910075
v -0 -0.9961408 0.662107
v -0 -0.8322658 0.5340778
v -0 -1.475894 0.6171069
v -0 -1.2919639 0.53903455
v -0 -1.108036 0.4609708
v -0 -0.92409736 0.382895
vt 0.3333333 0
vt 0 0
vt 0 0.08333334
vt 0.3333333 0.08333334
vt 0.6666667 0
vt 0.6666667 0.08333334
vt 1 0
vt 1 0.08333334
vt 0 0.1666667
vt 0.3333333 0.1666667
vt 0.6666667 0.1666667
vt 1 0.1666667
vt 0 0.25
vt 0.3333333 0.25
vt 0.6666667 0.25
vt 1 0.25
vt 0 0.3333333
vt 0.3333333 0.3333333
vt 0.6666667 0.3333333
vt 1 0.3333333
vt 0 0.4166667
vt 0.3333333 0.4166667
vt 0.6666667 0.4166667
vt 1 0.4166667
vt 0 0.5
vt 0.3333333 0.5
vt 0.6666667 0.5
vt 1 0.5
vt 0 0.5833333
vt 0.3333333 0.5833333
vt 0.6666667 0.5833333
vt 1 0.5833333
vt 0 0.6666667
vt 0.3333333 0.6666667
vt 0.6666667 0.6666667
vt 1 0.6666667
vt 0 0.75
vt 0.3333333 0.75
vt 0.6666667 0.75
vt 1 0.75
vt 0 0.8333333
vt 0.3333333 0.8333333
vt 0.6666667 0.8333333
vt 1 0.8333333
vt 0 0.9166667
vt 0.3333333 0.9166667
vt 0.6666667 0.9166667
vt 1 0.9166667
vt 0 1
vt 0.3333333 1
vt 0.6666667 1
vt 1 1
vn -1 0 0
vn -1 0 0
vn -1 0 0
vn -1 0 0
vn -1 0 0
vn -1 0 0
vn -1 0.0001550977 0
vn -1 0.00011266289 0.00010896129
vn -1 0 0
vn -1 0 0
vn -1 0 0
vn -1 0 0
vn -1 0 0
vn -1 0 0
vn -1 0 0
vn -1 0 0
vn -1 0 0
vn -1 0 0
vn -1 0 0
vn -1 0 0
vn -1 0 0
vn -1 0 0
vn -1 0 0
vn -1 0 0
vn -1 0 0
vn -1 0 0
vn -1 0 0
vn -1 0 0
vn -1 0 0
vn -1 0 0
vn -1 0 0
vn -1 0 0
vn -1 0 0
vn -1 0 0
vn -1 0 0
vn -1 0 0
vn -1 0 0
vn -1 0 0
vn -1 0 0
vn -1 0 0
vn -1 0 0
vn -1 0 0
vn -1 0 0
vn -1 0 0
vn -1 0 0
vn -1 0 0
vn -1 0 0
vn -1 0 0
vn -1 0 0
vn -1 0 0
vn -1 0 0
vn -1 0.00010425689 0
g Ef_Slash_0
f 3/3/3 2/2/2 1/1/1
f 3/3/3 1/1/1 4/4/4
f 4/4/4 1/1/1 5/5/5
f 4/4/4 5/5/5 6/6/6
f 6/6/6 5/5/5 7/7/7
f 6/6/6 7/7/7 8/8/8
f 9/9/9 3/3/3 4/4/4
f 9/9/9 4/4/4 10/10/10
f 10/10/10 4/4/4 6/6/6
f 10/10/10 6/6/6 11/11/11
f 11/11/11 6/6/6 8/8/8
f 11/11/11 8/8/8 12/12/12
f 13/13/13 9/9/9 10/10/10
f 13/13/13 10/10/10 14/14/14
f 14/14/14 10/10/10 11/11/11
f 14/14/14 11/11/11 15/15/15
f 15/15/15 11/11/11 12/12/12
f 15/15/15 12/12/12 16/16/16
f 17/17/17 13/13/13 14/14/14
f 17/17/17 14/14/14 18/18/18
f 18/18/18 14/14/14 15/15/15
f 18/18/18 15/15/15 19/19/19
f 19/19/19 15/15/15 16/16/16
f 19/19/19 16/16/16 20/20/20
f 21/21/21 17/17/17 18/18/18
f 21/21/21 18/18/18 22/22/22
f 22/22/22 18/18/18 19/19/19
f 22/22/22 19/19/19 23/23/23
f 23/23/23 19/19/19 20/20/20
f 23/23/23 20/20/20 24/24/24
f 25/25/25 21/21/21 22/22/22
f 25/25/25 22/22/22 26/26/26
f 26/26/26 22/22/22 23/23/23
f 26/26/26 23/23/23 27/27/27
f 27/27/27 23/23/23 24/24/24
f 27/27/27 24/24/24 28/28/28
f 29/29/29 25/25/25 26/26/26
f 29/29/29 26/26/26 30/30/30
f 30/30/30 26/26/26 27/27/27
f 30/30/30 27/27/27 31/31/31
f 31/31/31 27/27/27 28/28/28
f 31/31/31 28/28/28 32/32/32
f 33/33/33 29/29/29 30/30/30
f 33/33/33 30/30/30 34/34/34
f 34/34/34 30/30/30 31/31/31
f 34/34/34 31/31/31 35/35/35
f 35/35/35 31/31/31 32/32/32
f 35/35/35 32/32/32 36/36/36
f 37/37/37 33/33/33 34/34/34
f 37/37/37 34/34/34 38/38/38
f 38/38/38 34/34/34 35/35/35
f 38/38/38 35/35/35 39/39/39
f 39/39/39 35/35/35 36/36/36
f 39/39/39 36/36/36 40/40/40
f 41/41/41 37/37/37 38/38/38
f 41/41/41 38/38/38 42/42/42
f 42/42/42 38/38/38 39/39/39
f 42/42/42 39/39/39 43/43/43
f 43/43/43 39/39/39 40/40/40
f 43/43/43 40/40/40 44/44/44
f 45/45/45 41/41/41 42/42/42
f 45/45/45 42/42/42 46/46/46
f 46/46/46 42/42/42 43/43/43
f 46/46/46 43/43/43 47/47/47
f 47/47/47 43/43/43 44/44/44
f 47/47/47 44/44/44 48/48/48
f 49/49/49 45/45/45 46/46/46
f 49/49/49 46/46/46 50/50/50
f 50/50/50 46/46/46 47/47/47
f 50/50/50 47/47/47 51/51/51
f 51/51/51 47/47/47 48/48/48
f 51/51/51 48/48/48 52/52/52
