g Emitter_Cylinder
v 0.24800959 0.08058314 0
v 0.21096955 0.15327826 0.5215451
v 0.21096955 0.15327828 5.9604646E-09
v 0.24800959 0.08058312 0.52154505
v 0.15327835 0.21096945 0.5215451
v 0.15327835 0.21096948 0
v 0.08058321 0.24800944 0.52154505
v 0.08058321 0.24800947 0
v 3.1086508E-08 0.26077256 0.52154505
v 3.1086508E-08 0.26077256 0
v -0.08058315 0.24800944 0.52154505
v -0.08058315 0.24800947 5.9604646E-09
v -0.15327826 0.2109694 0.52154505
v -0.15327826 0.21096943 5.9604646E-09
v -0.21096943 0.15327822 0.5215451
v -0.21096943 0.15327823 0
v -0.24800943 0.08058307 0.52154505
v -0.24800943 0.08058311 0
v -0.26077256 -7.152558E-08 0.52154505
v -0.26077256 -4.6629758E-08 0
v -0.24800943 -0.080583215 0.52154505
v -0.24800943 -0.08058321 -2.9802323E-09
v -0.2109694 -0.15327834 0.52154505
v -0.2109694 -0.1532783 5.9604646E-09
v -0.15327823 -0.21096955 0.52154505
v -0.15327823 -0.21096948 0
v -0.08058312 -0.24800949 0.52154505
v -0.08058312 -0.24800947 0
v 2.3314879E-08 -0.26077262 0.52154505
v 2.3314879E-08 -0.26077256 0
v 0.08058316 -0.24800949 0.52154505
v 0.08058316 -0.24800947 -5.9604646E-09
v 0.15327826 -0.21096945 0.52154505
v 0.15327826 -0.21096945 5.9604646E-09
v 0.21096943 -0.15327834 0.52154505
v 0.21096943 -0.15327829 0
v 0.24800943 -0.080583215 0.52154505
v 0.24800943 -0.080583185 0
v 0.26077256 -7.152558E-08 0.52154505
v 0.26077256 -4.6629758E-08 0
v 0.24800959 0.08058312 0.52154505
v 0.24800959 0.08058314 0
vt 0.375 0.3125
vt 0.3875 0.68843985
vt 0.3875 0.3125
vt 0.375 0.68843985
vt 0.39999998 0.68843985
vt 0.39999998 0.3125
vt 0.41249996 0.68843985
vt 0.41249996 0.3125
vt 0.42499995 0.68843985
vt 0.42499995 0.3125
vt 0.43749994 0.68843985
vt 0.43749994 0.3125
vt 0.44999993 0.68843985
vt 0.44999993 0.3125
vt 0.46249992 0.68843985
vt 0.46249992 0.3125
vt 0.4749999 0.68843985
vt 0.4749999 0.3125
vt 0.4874999 0.68843985
vt 0.4874999 0.3125
vt 0.49999988 0.68843985
vt 0.49999988 0.3125
vt 0.51249987 0.68843985
vt 0.51249987 0.3125
vt 0.52499986 0.68843985
vt 0.52499986 0.3125
vt 0.53749985 0.68843985
vt 0.53749985 0.3125
vt 0.54999983 0.68843985
vt 0.54999983 0.3125
vt 0.5624998 0.68843985
vt 0.5624998 0.3125
vt 0.5749998 0.68843985
vt 0.5749998 0.3125
vt 0.5874998 0.68843985
vt 0.5874998 0.3125
vt 0.5999998 0.68843985
vt 0.5999998 0.3125
vt 0.6124998 0.68843985
vt 0.6124998 0.3125
vt 0.62499976 0.68843985
vt 0.62499976 0.3125
vn 0.95105684 0.30901608 0
vn 0.80901694 0.58778524 0
vn 0.80901694 0.58778524 0
vn 0.95105684 0.30901608 0
vn 0.5877851 0.80901706 0
vn 0.5877851 0.80901706 0
vn 0.30901664 0.9510566 0
vn 0.30901664 0.9510566 0
vn -0 1 0
vn -0 1 0
vn -0.30901703 0.95105654 0
vn -0.30901703 0.95105654 0
vn -0.58778554 0.8090168 0
vn -0.58778554 0.8090168 0
vn -0.8090171 0.587785 0
vn -0.8090171 0.587785 0
vn -0.95105654 0.30901688 0
vn -0.95105654 0.30901688 0
vn -1 0 0
vn -1 0 0
vn -0.95105654 -0.3090171 0
vn -0.95105654 -0.3090171 0
vn -0.80901706 -0.5877852 0
vn -0.80901706 -0.5877852 0
vn -0.5877852 -0.80901706 0
vn -0.5877852 -0.80901706 0
vn -0.30901673 -0.9510566 0
vn -0.30901673 -0.9510566 0
vn -0 -1 0
vn -0 -1 0
vn 0.3090171 -0.9510565 0
vn 0.3090171 -0.9510565 0
vn 0.58778524 -0.80901694 0
vn 0.58778524 -0.80901694 0
vn 0.809017 -0.58778524 0
vn 0.809017 -0.58778524 0
vn 0.95105654 -0.30901697 0
vn 0.95105654 -0.30901697 0
vn 1 -1.0560833E-06 0
vn 1 -1.0560833E-06 0
vn 0.95105684 0.30901608 0
vn 0.95105684 0.30901608 0
g Emitter_Cylinder_0
f 3/3/3 2/2/2 1/1/1
f 2/2/2 4/4/4 1/1/1
f 5/5/5 2/2/2 3/3/3
f 6/6/6 5/5/5 3/3/3
f 7/7/7 5/5/5 6/6/6
f 8/8/8 7/7/7 6/6/6
f 9/9/9 7/7/7 8/8/8
f 10/10/10 9/9/9 8/8/8
f 11/11/11 9/9/9 10/10/10
f 12/12/12 11/11/11 10/10/10
f 13/13/13 11/11/11 12/12/12
f 14/14/14 13/13/13 12/12/12
f 15/15/15 13/13/13 14/14/14
f 16/16/16 15/15/15 14/14/14
f 17/17/17 15/15/15 16/16/16
f 18/18/18 17/17/17 16/16/16
f 19/19/19 17/17/17 18/18/18
f 20/20/20 19/19/19 18/18/18
f 21/21/21 19/19/19 20/20/20
f 22/22/22 21/21/21 20/20/20
f 23/23/23 21/21/21 22/22/22
f 24/24/24 23/23/23 22/22/22
f 25/25/25 23/23/23 24/24/24
f 26/26/26 25/25/25 24/24/24
f 27/27/27 25/25/25 26/26/26
f 28/28/28 27/27/27 26/26/26
f 29/29/29 27/27/27 28/28/28
f 30/30/30 29/29/29 28/28/28
f 31/31/31 29/29/29 30/30/30
f 32/32/32 31/31/31 30/30/30
f 33/33/33 31/31/31 32/32/32
f 34/34/34 33/33/33 32/32/32
f 35/35/35 33/33/33 34/34/34
f 36/36/36 35/35/35 34/34/34
f 37/37/37 35/35/35 36/36/36
f 38/38/38 37/37/37 36/36/36
f 39/39/39 37/37/37 38/38/38
f 40/40/40 39/39/39 38/38/38
f 41/41/41 39/39/39 40/40/40
f 42/42/42 41/41/41 40/40/40
