g EmitRing90
v -0.4698463 0.1709678 0.003806983
v -0.5 0 0
v -0.5 -0.002226174 0.09997523
v -0.4698463 0.1687416 0.1037822
v -0.3830223 0.3213142 0.007154785
v -0.3830223 0.319088 0.107130006
v -0.25 0.4329055 0.009639615
v -0.25 0.43067932 0.109614804
v -0.08682412 0.4922819 0.01096176
v -0.08682412 0.4900557 0.110937
v 0.08682406 0.492282 0.01096177
v 0.08682406 0.4900558 0.110937
v 0.25 0.4329055 0.009639615
v 0.25 0.43067932 0.109614804
v 0.3830222 0.3213142 0.007154785
v 0.3830222 0.319088 0.107130006
v 0.46984622 0.1709678 0.003806983
v 0.46984622 0.1687416 0.1037822
v 0.5 0 0
v 0.5 -0.002226174 0.09997523
v 0.46984622 -0.1709678 -0.003806983
v 0.46984622 -0.1731939 0.09616825
v 0.3830222 -0.3213142 -0.007154785
v 0.3830222 -0.32354042 0.09282045
v 0.25 -0.43290558 -0.009639618
v 0.25 -0.4351317 0.09033561
v 0.08682406 -0.492282 -0.01096177
v 0.08682406 -0.49450812 0.08901347
v -0.08682406 -0.492282 -0.01096177
v -0.08682406 -0.49450812 0.08901347
v -0.25 -0.43290558 -0.009639618
v -0.25 -0.4351317 0.09033561
v -0.3830222 -0.3213143 -0.0071547874
v -0.3830222 -0.3235405 0.09282045
v -0.4698463 -0.1709678 -0.003806984
v -0.4698463 -0.173194 0.09616825
v -0.5 0 0
v -0.5 -0.002226174 0.09997523
vt 0.05555556 0
vt 0 0
vt 0 1
vt 0.05555556 1
vt 0.1111111 0
vt 0.1111111 1
vt 0.1666667 0
vt 0.1666667 1
vt 0.2222222 0
vt 0.2222222 1
vt 0.2777778 0
vt 0.2777778 1
vt 0.3333333 0
vt 0.3333333 1
vt 0.3888889 0
vt 0.3888889 1
vt 0.4444444 0
vt 0.4444444 1
vt 0.5 0
vt 0.5 1
vt 0.5555556 0
vt 0.5555556 1
vt 0.6111111 0
vt 0.6111111 1
vt 0.6666667 0
vt 0.6666667 1
vt 0.7222222 0
vt 0.7222222 1
vt 0.7777778 0
vt 0.7777778 1
vt 0.8333333 0
vt 0.8333333 1
vt 0.8888889 0
vt 0.8888889 1
vt 0.9444444 0
vt 0.9444444 1
vt 1 0
vt 1 1
vn 0.9581415 -0.28622395 -0.0063735037
vn 0.9982772 0.05865984 0.0013062074
vn 0.9982772 -0.058659855 -0.0013062153
vn 0.91800594 -0.39646828 -0.008828364
vn 0.80244 -0.5965849 -0.013284421
vn 0.72700953 -0.6864571 -0.0152855385
vn 0.5499521 -0.83498925 -0.018592887
vn 0.44832498 -0.8936491 -0.01989916
vn 0.23113188 -0.97268134 -0.021659138
vn 0.1155659 -0.9930537 -0.022112936
vn -0.11556612 -0.9930536 -0.022112932
vn -0.23113216 -0.9726813 -0.021659143
vn -0.4483253 -0.893649 -0.01989916
vn -0.54995245 -0.834989 -0.018592881
vn -0.7270098 -0.686457 -0.015285537
vn -0.80244 -0.59658486 -0.013284421
vn -0.9180058 -0.39646858 -0.008828369
vn -0.95814145 -0.28622434 -0.006373511
vn -0.9982772 -0.058660038 -0.0013062194
vn -0.9982772 0.058660053 0.0013061493
vn -0.95814145 0.28622442 0.006373241
vn -0.9180059 0.39646855 0.008828135
vn -0.8024401 0.5965847 0.0132843135
vn -0.7270099 0.6864568 0.015285506
vn -0.5499523 0.834989 0.018592661
vn -0.44832504 0.8936491 0.019898579
vn -0.23113188 0.97268134 0.021658363
vn -0.11556595 0.9930537 0.022111984
vn 0.115565926 0.9930537 0.022111984
vn 0.23113184 0.97268134 0.021658361
vn 0.44832504 0.8936491 0.019898579
vn 0.5499521 0.83498925 0.018592604
vn 0.72700953 0.68645716 0.015285415
vn 0.80243987 0.59658504 0.013284406
vn 0.9180059 0.39646852 0.008828341
vn 0.9581415 0.286224 0.0063734767
vn 0.9982772 0.05865984 0.0013062074
vn 0.9982772 -0.058659855 -0.0013062153
g EmitRing90_0
f 2/2/2 1/1/1 3/3/3
f 3/3/3 1/1/1 4/4/4
f 1/1/1 5/5/5 4/4/4
f 4/4/4 5/5/5 6/6/6
f 5/5/5 7/7/7 6/6/6
f 6/6/6 7/7/7 8/8/8
f 7/7/7 9/9/9 8/8/8
f 8/8/8 9/9/9 10/10/10
f 9/9/9 11/11/11 10/10/10
f 10/10/10 11/11/11 12/12/12
f 11/11/11 13/13/13 12/12/12
f 12/12/12 13/13/13 14/14/14
f 13/13/13 15/15/15 14/14/14
f 14/14/14 15/15/15 16/16/16
f 15/15/15 17/17/17 16/16/16
f 16/16/16 17/17/17 18/18/18
f 17/17/17 19/19/19 18/18/18
f 18/18/18 19/19/19 20/20/20
f 19/19/19 21/21/21 20/20/20
f 20/20/20 21/21/21 22/22/22
f 21/21/21 23/23/23 22/22/22
f 22/22/22 23/23/23 24/24/24
f 23/23/23 25/25/25 24/24/24
f 24/24/24 25/25/25 26/26/26
f 25/25/25 27/27/27 26/26/26
f 26/26/26 27/27/27 28/28/28
f 27/27/27 29/29/29 28/28/28
f 28/28/28 29/29/29 30/30/30
f 29/29/29 31/31/31 30/30/30
f 30/30/30 31/31/31 32/32/32
f 31/31/31 33/33/33 32/32/32
f 32/32/32 33/33/33 34/34/34
f 33/33/33 35/35/35 34/34/34
f 34/34/34 35/35/35 36/36/36
f 35/35/35 37/37/37 36/36/36
f 36/36/36 37/37/37 38/38/38
