g for_dist_02
v -17.964603 0 2.0756776
v -34.30032 0 7.3625426
v -17.964603 7.0986137 2.0756776
v -8.982302 0 1.0378357
v -8.982302 8.843395 1.0378357
v -0 0 0
v -0 9.26039 0
v 8.982302 8.843395 1.0378357
v 8.982302 0 1.0378357
v 17.964603 7.0986137 2.0756776
v 17.964603 0 2.0756776
v 34.30032 0 7.3625307
vt 7.1499996 8.940697E-08
vt 6 0.9108813
vt 7.1499996 1
vt 7.7249994 8.940697E-08
vt 7.7249994 1
vt 8.299999 8.940697E-08
vt 8.299999 1
vt 8.874999 1
vt 8.874999 8.940697E-08
vt 9.449999 1
vt 9.449999 8.940697E-08
vt 10.599998 0.9108813
vn 0.21238635 0 0.9771858
vn 0.30791447 0 0.95141405
vn 0.21238635 0 0.9771858
vn 0.11477883 0 0.9933911
vn 0.11477883 0 0.9933911
vn -0 0 1
vn -0 0 1
vn -0.11477883 0 0.9933911
vn -0.11477883 0 0.9933911
vn -0.21238609 0 0.97718585
vn -0.21238609 0 0.97718585
vn -0.30791387 0 0.9514142
g for_dist_02_0
f 3/3/3 2/2/2 1/1/1
f 1/1/1 4/4/4 3/3/3
f 4/4/4 5/5/5 3/3/3
f 4/4/4 6/6/6 5/5/5
f 6/6/6 7/7/7 5/5/5
f 7/7/7 6/6/6 8/8/8
f 6/6/6 9/9/9 8/8/8
f 8/8/8 9/9/9 10/10/10
f 9/9/9 11/11/11 10/10/10
f 10/10/10 11/11/11 12/12/12
