g leaf
v 0.9266791 12.806159 -5.2063866
v 5.283254 9.226527 -0.9394898
v 0.6219192 10.994295 -0.5561954
v 5.588015 11.038391 -5.589685
v 4.5441394 7.9765277 -4.163032
v 1.6657908 14.056159 -1.9828488
v -0.117185734 9.744295 -3.779738
v 6.327132 12.288391 -2.3661366
v 2.501502 14.056159 -1.3713616
v 3.708432 7.9765277 -4.774514
v 4.753698 9.744295 -0.2157365
v 1.4562294 12.288391 -5.9301414
v 0.41236416 9.226527 -4.5034842
v 5.79757 12.806159 -1.6423877
v 1.4576346 10.994295 0.055289533
v 4.7523103 11.038391 -6.201156
v -1.6934298 10.516883 -2.5486712
v -0.76518506 5.2364902 -7.15907
v -0.20157976 5.756082 -2.21819
v -2.2570343 9.9972925 -7.489549
v -3.8805375 6.8984046 -6.978481
v 1.4219241 8.854968 -2.7292655
v -3.3169324 7.4179964 -2.0375907
v 0.8583137 8.335374 -7.670158
v 1.9845917 8.434679 -3.4902482
v -4.443212 7.3186913 -6.2175
v -0.03743887 4.968389 -6.4729066
v -2.4211838 10.78498 -3.2348485
v -4.044682 7.6861 -2.7237642
v 1.5860683 8.06728 -6.9839807
v 0.36109382 5.335796 -2.979164
v -2.819714 10.417577 -6.7285852
v -0.35464486 14.288996 1.6191475
v 2.6786942 11.744898 -4.2397265
v 1.8424863 9.97713 0.36198246
v 0.48156357 16.056763 -2.982564
v -0.6263051 12.994898 -4.3601127
v 2.9503555 13.038996 1.7395318
v -1.462511 11.22713 0.24160162
v 3.7865696 14.806763 -2.8621814
v 3.757305 13.038996 1.0905612
v -1.4332429 12.994898 -3.7111356
v 3.2407193 11.22713 -3.5408916
v -0.916673 14.806763 0.9203102
v -2.024538 11.744898 -0.45723328
v 4.3485937 14.288996 -2.1633441
v 2.649435 9.97713 -0.28698832
v -0.32538155 16.056763 -2.3335893
v 1.342869 14.559466 2.8654985
v -3.4883587 9.729836 1.0395936
v 1.4824669 9.729836 1.578957
v -3.6279476 14.559466 2.3261428
v -3.8186398 11.497604 4.083594
v 1.6731583 12.791701 -0.1784967
v 1.1521733 11.497603 4.6229515
v -3.297665 12.7917 -0.717854
v 1.0136037 12.425584 -0.8879162
v -3.1590855 11.863719 4.79301
v -2.691991 9.36372 0.4881505
v 0.5465078 14.925586 3.416942
v 0.35581636 11.86372 5.174404
v -2.501295 12.425583 -1.2693005
v 0.82291156 9.36372 0.86953545
v -2.968404 14.925583 3.035563
v -4.9462714 11.467644 3.071801
v -2.0472798 8.686709 -2.7473257
v -0.36194965 9.936709 1.7910798
v -6.6315904 10.217643 -1.4666123
v -4.874155 7.1557784 -1.2759198
v -2.1194017 12.998573 1.6003869
v -3.1888168 8.405779 3.2624938
v -3.8047307 11.748573 -2.9380138
v -1.7807457 13.132583 0.6310118
v -5.212802 7.0217714 -0.30654606
v -1.215003 9.186835 -2.3874357
v -5.778545 10.967519 2.7119071
v -4.0210986 7.905655 2.902593
v -2.9724545 12.248698 -2.5781262
v -0.023295065 10.070719 0.82170534
v -6.9702516 10.083635 -0.49723655
v 3.772268 12.937762 -0.4289654
v 1.0439873 9.402229 5.0534167
v 0.27842453 9.402229 0.11236592
v 4.537828 12.937764 4.512075
v 4.537828 9.402228 4.512075
v 0.27842328 12.937762 0.112367444
v 3.772268 9.40223 -0.42896518
v 1.0439869 12.937764 5.0534167
v -0.33306035 12.937764 0.94808024
v 5.1493134 9.402228 3.6763608
v 0.20827217 9.402229 4.4419274
v 4.6079826 12.937764 0.18252316
v 4.607981 9.40223 0.18252163
v 0.20827179 12.937762 4.4419274
v -0.33306035 9.402229 0.94808024
v 5.149312 12.937762 3.6763608
v -0.42633125 12.810721 -6.3369613
v -3.092919 10.562939 -0.18580519
v 1.3683565 10.267484 -2.424027
v -4.8876143 13.106186 -4.098733
v -3.3054178 13.981925 -1.0606673
v -0.21383686 9.391742 -5.462092
v 1.1558626 13.686465 -3.2989137
v -4.675111 9.6872015 -3.2238576
v -0.82316715 8.726917 -4.953106
v -2.696088 14.64675 -1.5696545
v -2.395572 9.811578 -0.33239156
v -1.12368 13.562088 -6.190374
v 0.45851097 14.437827 -3.1523213
v -3.9777634 8.93584 -3.3704422
v 0.7590308 9.602659 -1.9150552
v -4.278285 13.771011 -4.6077013
v 4.392513 9.04363 3.2283554
v -1.7726185 6.575391 5.6571555
v 0.8729868 5.964493 1.4586333
v 1.7469034 9.654525 7.4268756
v 1.1718079 6.169077 7.571636
v 1.4480807 9.449938 1.3138754
v 3.8174074 5.5581775 3.3731225
v -1.1975278 10.060834 5.5123935
v 0.4508337 9.623553 1.5322322
v 2.1690593 5.9954653 7.3532815
v -1.9949887 6.5700774 4.6457925
v 4.6148696 9.048936 4.239734
v 4.0397925 5.5635 4.3844824
v -1.4199009 10.055518 4.501029
v -0.12425919 6.1381097 1.6769927
v 2.7441478 9.4809065 7.208529
vt 2.9802322E-08 1
vt 1 0
vt 2.9802322E-08 2.9802322E-08
vt 1 1
vt 2.9802322E-08 1
vt 1 0
vt 2.9802322E-08 2.9802322E-08
vt 1 1
vt 2.9802322E-08 1
vt 1 0
vt 2.9802322E-08 2.9802322E-08
vt 1 1
vt 2.9802322E-08 1
vt 1 0
vt 2.9802322E-08 2.9802322E-08
vt 1 1
vt 2.9802322E-08 1
vt 1 0
vt 2.9802322E-08 2.9802322E-08
vt 1 1
vt 2.9802322E-08 1
vt 1 0
vt 2.9802322E-08 2.9802322E-08
vt 1 1
vt 2.9802322E-08 1
vt 1 0
vt 2.9802322E-08 2.9802322E-08
vt 1 1
vt 2.9802322E-08 1
vt 1 0
vt 2.9802322E-08 2.9802322E-08
vt 1 1
vt 2.9802322E-08 1
vt 1 0
vt 2.9802322E-08 2.9802322E-08
vt 1 1
vt 2.9802322E-08 1
vt 1 0
vt 2.9802322E-08 2.9802322E-08
vt 1 1
vt 2.9802322E-08 1
vt 1 0
vt 2.9802322E-08 2.9802322E-08
vt 1 1
vt 2.9802322E-08 1
vt 1 0
vt 2.9802322E-08 2.9802322E-08
vt 1 1
vt 2.9802322E-08 1
vt 1 0
vt 2.9802322E-08 2.9802322E-08
vt 1 1
vt 2.9802322E-08 1
vt 1 0
vt 2.9802322E-08 2.9802322E-08
vt 1 1
vt 2.9802322E-08 1
vt 1 0
vt 2.9802322E-08 2.9802322E-08
vt 1 1
vt 2.9802322E-08 1
vt 1 0
vt 2.9802322E-08 2.9802322E-08
vt 1 1
vt 2.9802322E-08 1
vt 1 0
vt 2.9802322E-08 2.9802322E-08
vt 1 1
vt 2.9802322E-08 1
vt 1 0
vt 2.9802322E-08 2.9802322E-08
vt 1 1
vt 2.9802322E-08 1
vt 1 0
vt 2.9802322E-08 2.9802322E-08
vt 1 1
vt 2.9802322E-08 1
vt 1 0
vt 2.9802322E-08 2.9802322E-08
vt 1 1
vt 2.9802322E-08 1
vt 1 0
vt 2.9802322E-08 2.9802322E-08
vt 1 1
vt 2.9802322E-08 1
vt 1 0
vt 2.9802322E-08 2.9802322E-08
vt 1 1
vt 2.9802322E-08 1
vt 1 0
vt 2.9802322E-08 2.9802322E-08
vt 1 1
vt 2.9802322E-08 1
vt 1 0
vt 2.9802322E-08 2.9802322E-08
vt 1 1
vt 2.9802322E-08 1
vt 1 0
vt 2.9802322E-08 2.9802322E-08
vt 1 1
vt 2.9802322E-08 1
vt 1 0
vt 2.9802322E-08 2.9802322E-08
vt 1 1
vt 2.9802322E-08 1
vt 1 0
vt 2.9802322E-08 2.9802322E-08
vt 1 1
vt 2.9802322E-08 1
vt 1 0
vt 2.9802322E-08 2.9802322E-08
vt 1 1
vt 2.9802322E-08 1
vt 1 0
vt 2.9802322E-08 2.9802322E-08
vt 1 1
vt 2.9802322E-08 1
vt 1 0
vt 2.9802322E-08 2.9802322E-08
vt 1 1
vt 2.9802322E-08 1
vt 1 0
vt 2.9802322E-08 2.9802322E-08
vt 1 1
vt 2.9802322E-08 1
vt 1 0
vt 2.9802322E-08 2.9802322E-08
vt 1 1
vn 0.35659763 0.86237204 0.35937795
vn 0.35659763 0.86237204 0.35937795
vn 0.35659763 0.86237204 0.35937795
vn 0.35659763 0.86237204 0.35937795
vn 0.060951628 0.36237293 -0.9300381
vn 0.060951628 0.36237293 -0.9300381
vn 0.060951628 0.36237293 -0.9300381
vn 0.060951628 0.36237293 -0.9300381
vn 0.8679868 0.36237276 -0.33953625
vn 0.8679868 0.36237276 -0.33953625
vn 0.8679868 0.36237276 -0.33953625
vn 0.8679868 0.36237276 -0.33953625
vn -0.45043853 0.8623726 -0.23112498
vn -0.45043853 0.8623726 -0.23112498
vn -0.45043853 0.8623726 -0.23112498
vn -0.45043853 0.8623726 -0.23112498
vn 0.94777083 0.2873917 -0.13833462
vn 0.94777083 0.2873917 -0.13833462
vn 0.94777083 0.2873917 -0.13833462
vn 0.94777083 0.2873917 -0.13833462
vn -0.2983718 0.9521584 -0.06609541
vn -0.2983718 0.9521584 -0.06609541
vn -0.2983718 0.9521584 -0.06609541
vn -0.2983718 0.9521584 -0.06609541
vn 0.24499361 0.54629356 -0.80096287
vn 0.24499361 0.54629356 -0.80096287
vn 0.24499361 0.54629356 -0.80096287
vn 0.24499361 0.54629356 -0.80096287
vn 0.40440458 0.69325763 0.59653234
vn 0.40440458 0.69325763 0.59653234
vn 0.40440458 0.69325763 0.59653234
vn 0.40440458 0.69325763 0.59653234
vn 0.88257295 0.36237225 0.2995853
vn 0.88257295 0.36237225 0.2995853
vn 0.88257295 0.36237225 0.2995853
vn 0.88257295 0.36237225 0.2995853
vn -0.4394263 0.8623724 0.25143257
vn -0.4394263 0.8623724 0.25143257
vn -0.4394263 0.8623724 0.25143257
vn -0.4394263 0.8623724 0.25143257
vn 0.33983153 0.86237216 -0.3752716
vn 0.33983153 0.86237216 -0.3752716
vn 0.33983153 0.86237216 -0.3752716
vn 0.33983153 0.86237216 -0.3752716
vn 0.10331535 0.36237213 0.92628956
vn 0.10331535 0.36237213 0.92628956
vn 0.10331535 0.36237213 0.92628956
vn 0.10331535 0.36237213 0.92628956
vn 0.10419633 0.25881916 -0.9602894
vn 0.10419633 0.25881916 -0.9602894
vn 0.10419633 0.25881916 -0.9602894
vn 0.10419633 0.25881916 -0.9602894
vn -0.027919255 0.96592575 0.25730893
vn -0.027919255 0.96592575 0.25730893
vn -0.027919255 0.96592575 0.25730893
vn -0.027919255 0.96592575 0.25730893
vn -0.6648426 0.61237216 -0.42776707
vn -0.6648426 0.61237216 -0.42776707
vn -0.6648426 0.61237216 -0.42776707
vn -0.6648426 0.61237216 -0.42776707
vn 0.74111897 0.61237293 -0.2752128
vn 0.74111897 0.61237293 -0.2752128
vn 0.74111897 0.61237293 -0.2752128
vn 0.74111897 0.61237293 -0.2752128
vn 0.2138845 0.91855836 -0.33242133
vn 0.2138845 0.91855836 -0.33242133
vn 0.2138845 0.91855836 -0.33242133
vn 0.2138845 0.91855836 -0.33242133
vn -0.91686416 0.3061863 0.2561446
vn -0.91686416 0.3061863 0.2561446
vn -0.91686416 0.3061863 0.2561446
vn -0.91686416 0.3061863 0.2561446
vn -0.58983207 0.43559593 -0.6799664
vn -0.58983207 0.43559593 -0.6799664
vn -0.58983207 0.43559593 -0.6799664
vn -0.58983207 0.43559593 -0.6799664
vn -0.11314864 0.7891487 0.6036901
vn -0.11314864 0.7891487 0.6036901
vn -0.11314864 0.7891487 0.6036901
vn -0.11314864 0.7891487 0.6036901
vn -0.69876945 0.7071065 0.1082668
vn -0.69876945 0.7071065 0.1082668
vn -0.69876945 0.7071065 0.1082668
vn -0.69876945 0.7071065 0.1082668
vn 0.6987694 0.70710653 -0.108266816
vn 0.6987694 0.70710653 -0.108266816
vn 0.6987694 0.70710653 -0.108266816
vn 0.6987694 0.70710653 -0.108266816
vn 0.10826698 0.7071064 0.6987695
vn 0.10826698 0.7071064 0.6987695
vn 0.10826698 0.7071064 0.6987695
vn 0.10826698 0.7071064 0.6987695
vn -0.10826708 0.70710665 -0.6987692
vn -0.10826708 0.70710665 -0.6987692
vn -0.10826708 0.70710665 -0.6987692
vn -0.10826708 0.70710665 -0.6987692
vn -0.27393857 -0.85894424 -0.43263426
vn -0.27393857 -0.85894424 -0.43263426
vn -0.27393857 -0.85894424 -0.43263426
vn -0.27393857 -0.85894424 -0.43263426
vn -0.35893893 0.50865 -0.78258413
vn -0.35893893 0.50865 -0.78258413
vn -0.35893893 0.50865 -0.78258413
vn -0.35893893 0.50865 -0.78258413
vn -0.947359 -0.13336308 -0.29107597
vn -0.947359 -0.13336308 -0.29107597
vn -0.947359 -0.13336308 -0.29107597
vn -0.947359 -0.13336308 -0.29107597
vn 0.31448215 -0.2169314 -0.9241438
vn 0.31448215 -0.2169314 -0.9241438
vn 0.31448215 -0.2169314 -0.9241438
vn 0.31448215 -0.2169314 -0.9241438
vn -0.47386736 0.77835053 -0.41184968
vn -0.47386736 0.77835053 -0.41184968
vn -0.47386736 0.77835053 -0.41184968
vn -0.47386736 0.77835053 -0.41184968
vn 0.7039046 0.6158254 0.3539456
vn 0.7039046 0.6158254 0.3539456
vn 0.7039046 0.6158254 0.3539456
vn 0.7039046 0.6158254 0.3539456
vn -0.25912735 0.78348196 0.56480885
vn -0.25912735 0.78348196 0.56480885
vn -0.25912735 0.78348196 0.56480885
vn -0.25912735 0.78348196 0.56480885
vn 0.48916334 0.6106957 -0.62271166
vn 0.48916334 0.6106957 -0.62271166
vn 0.48916334 0.6106957 -0.62271166
vn 0.48916334 0.6106957 -0.62271166
g leaf_0
f 3/3/3 2/2/2 1/1/1
f 2/2/2 4/4/4 1/1/1
f 7/7/7 6/6/6 5/5/5
f 6/6/6 8/8/8 5/5/5
f 11/11/11 10/10/10 9/9/9
f 10/10/10 12/12/12 9/9/9
f 15/15/15 14/14/14 13/13/13
f 14/14/14 16/16/16 13/13/13
f 19/19/19 18/18/18 17/17/17
f 18/18/18 20/20/20 17/17/17
f 23/23/23 22/22/22 21/21/21
f 22/22/22 24/24/24 21/21/21
f 27/27/27 26/26/26 25/25/25
f 26/26/26 28/28/28 25/25/25
f 31/31/31 30/30/30 29/29/29
f 30/30/30 32/32/32 29/29/29
f 35/35/35 34/34/34 33/33/33
f 34/34/34 36/36/36 33/33/33
f 39/39/39 38/38/38 37/37/37
f 38/38/38 40/40/40 37/37/37
f 43/43/43 42/42/42 41/41/41
f 42/42/42 44/44/44 41/41/41
f 47/47/47 46/46/46 45/45/45
f 46/46/46 48/48/48 45/45/45
f 51/51/51 50/50/50 49/49/49
f 50/50/50 52/52/52 49/49/49
f 55/55/55 54/54/54 53/53/53
f 54/54/54 56/56/56 53/53/53
f 59/59/59 58/58/58 57/57/57
f 58/58/58 60/60/60 57/57/57
f 63/63/63 62/62/62 61/61/61
f 62/62/62 64/64/64 61/61/61
f 67/67/67 66/66/66 65/65/65
f 66/66/66 68/68/68 65/65/65
f 71/71/71 70/70/70 69/69/69
f 70/70/70 72/72/72 69/69/69
f 75/75/75 74/74/74 73/73/73
f 74/74/74 76/76/76 73/73/73
f 79/79/79 78/78/78 77/77/77
f 78/78/78 80/80/80 77/77/77
f 83/83/83 82/82/82 81/81/81
f 82/82/82 84/84/84 81/81/81
f 87/87/87 86/86/86 85/85/85
f 86/86/86 88/88/88 85/85/85
f 91/91/91 90/90/90 89/89/89
f 90/90/90 92/92/92 89/89/89
f 95/95/95 94/94/94 93/93/93
f 94/94/94 96/96/96 93/93/93
f 99/99/99 98/98/98 97/97/97
f 98/98/98 100/100/100 97/97/97
f 103/103/103 102/102/102 101/101/101
f 102/102/102 104/104/104 101/101/101
f 107/107/107 106/106/106 105/105/105
f 106/106/106 108/108/108 105/105/105
f 111/111/111 110/110/110 109/109/109
f 110/110/110 112/112/112 109/109/109
f 115/115/115 114/114/114 113/113/113
f 114/114/114 116/116/116 113/113/113
f 119/119/119 118/118/118 117/117/117
f 118/118/118 120/120/120 117/117/117
f 123/123/123 122/122/122 121/121/121
f 122/122/122 124/124/124 121/121/121
f 127/127/127 126/126/126 125/125/125
f 126/126/126 128/128/128 125/125/125
