g mesh0
v -1.2 0 2.4
v -0.5171573 0 1.4857864
v -0.8 0 2.5
v -1.5 0 1.1
v -1 0 0.6
v 0.3 0 2.5
v -0.2 0 0.3
v -0 0 0.5
v 0.4 0 0.6
v 1.2 0 0.3
v 1.6 0 0.4
v 2 0 1.3000001
v 1.1 0 2.3
v 0.8 0 2.3
v -1.6 0 0.1
v -1 0 0.6
v -2 0 1
v -0.2 0 0.3
v -1.5 0 1.1
v -1.2 0 2.4
v -2.1000001 0 2.3
v -2.5 0 1.9
v -2.5 0 1.2
v -2.4 0 0.6
v -2.2 0 -0.2
v 0.6 0 -2.2
v -1 0 -0.90000004
v -0.8 0 -2.5
v -0 0 -1.3000001
v -2.2 0 -1.9
v -0.2 0 -0.8
v -0.3 0 -0.4
v -2.4 0 -1
v -2.2 0 -0.2
v -1.6 0 0.1
v -0.2 0 0.3
v -0 0 -1.3000001
v 1.2 0 -1
v -0.2 0 -0.8
v -0.3 0 -0.4
v -0.2 0 0.3
v -0 0 0.5
v 0.4 0 0.6
v 1.2 0 0.3
v 1.6 0 0.4
v 2.1000001 0 0.1
v 2.5 0 -0.6
v 0.6 0 -2.2
v 2.3 0 -1.5
v 1.4 0 -2.3
vt 0.73998535 0.9799927
vt 0.60341686 0.79714996
vt 0.6599853 0.99999267
vt 0.79998535 0.7199927
vt 0.6999853 0.6199927
vt 0.43998542 0.99999267
vt 0.53998536 0.55999273
vt 0.49998543 0.5999927
vt 0.41998544 0.6199927
vt 0.2599854 0.55999273
vt 0.1799854 0.5799927
vt 0.09998541 0.75999266
vt 0.27998537 0.9599927
vt 0.33998543 0.9599927
vt 0.81998533 0.5199927
vt 0.6999853 0.6199927
vt 0.8999853 0.69999266
vt 0.53998536 0.55999273
vt 0.79998535 0.7199927
vt 0.73998535 0.9799927
vt 0.9199853 0.9599927
vt 0.99998534 0.87999266
vt 0.99998534 0.7399927
vt 0.9799853 0.6199927
vt 0.93998533 0.45999274
vt 0.3799854 0.05999273
vt 0.6999853 0.31999272
vt 0.6599853 -7.275211E-06
vt 0.49998543 0.23999274
vt 0.93998533 0.11999273
vt 0.53998536 0.3399928
vt 0.5599854 0.41999277
vt 0.9799853 0.29999274
vt 0.93998533 0.45999274
vt 0.81998533 0.5199927
vt 0.53998536 0.55999273
vt 0.49998543 0.23999274
vt 0.2599854 0.29999274
vt 0.53998536 0.3399928
vt 0.5599854 0.41999277
vt 0.53998536 0.55999273
vt 0.49998543 0.5999927
vt 0.41998544 0.6199927
vt 0.2599854 0.55999273
vt 0.1799854 0.5799927
vt 0.07998543 0.5199927
vt -1.4601135E-05 0.37999275
vt 0.3799854 0.05999273
vt 0.039985355 0.19999272
vt 0.21998543 0.039992686
vn -0 1 0
vn -0 1 0
vn -0 1 0
vn -0 1 0
vn -0 1 0
vn -0 1 0
vn -0 1 0
vn -0 1 0
vn -0 1 0
vn -0 1 0
vn -0 1 0
vn -0 1 0
vn -0 1 0
vn -0 1 0
vn -0 1 0
vn -0 1 0
vn -0 1 0
vn -0 1 0
vn -0 1 0
vn -0 1 0
vn -0 1 0
vn -0 1 0
vn -0 1 0
vn -0 1 0
vn -0 1 0
vn -0 1 0
vn -0 1 0
vn -0 1 0
vn -0 1 0
vn -0 1 0
vn -0 1 0
vn -0 1 0
vn -0 1 0
vn -0 1 0
vn -0 1 0
vn -0 1 0
vn -0 1 0
vn -0 1 0
vn -0 1 0
vn -0 1 0
vn -0 1 0
vn -0 1 0
vn -0 1 0
vn -0 1 0
vn -0 1 0
vn -0 1 0
vn -0 1 0
vn -0 1 0
vn -0 1 0
vn -0 1 0
g mesh0_0
f 3/3/3 2/2/2 1/1/1
f 1/1/1 2/2/2 4/4/4
f 4/4/4 2/2/2 5/5/5
f 3/3/3 6/6/6 2/2/2
f 5/5/5 2/2/2 7/7/7
f 8/8/8 7/7/7 2/2/2
f 8/8/8 2/2/2 9/9/9
f 10/10/10 9/9/9 2/2/2
f 10/10/10 2/2/2 11/11/11
f 11/11/11 2/2/2 12/12/12
f 13/13/13 12/12/12 2/2/2
f 13/13/13 2/2/2 14/14/14
f 14/14/14 2/2/2 6/6/6
f 17/17/17 16/16/16 15/15/15
f 16/16/16 18/18/18 15/15/15
f 19/19/19 16/16/16 17/17/17
f 19/19/19 17/17/17 20/20/20
f 21/21/21 20/20/20 17/17/17
f 21/21/21 17/17/17 22/22/22
f 23/23/23 22/22/22 17/17/17
f 23/23/23 17/17/17 24/24/24
f 25/25/25 24/24/24 17/17/17
f 25/25/25 17/17/17 15/15/15
f 28/28/28 27/27/27 26/26/26
f 26/26/26 27/27/27 29/29/29
f 28/28/28 30/30/30 27/27/27
f 29/29/29 27/27/27 31/31/31
f 32/32/32 31/31/31 27/27/27
f 33/33/33 27/27/27 30/30/30
f 33/33/33 34/34/34 27/27/27
f 35/35/35 27/27/27 34/34/34
f 35/35/35 36/36/36 27/27/27
f 32/32/32 27/27/27 36/36/36
f 39/39/39 38/38/38 37/37/37
f 40/40/40 38/38/38 39/39/39
f 40/40/40 41/41/41 38/38/38
f 42/42/42 38/38/38 41/41/41
f 43/43/43 38/38/38 42/42/42
f 43/43/43 44/44/44 38/38/38
f 45/45/45 38/38/38 44/44/44
f 45/45/45 46/46/46 38/38/38
f 47/47/47 38/38/38 46/46/46
f 48/48/48 37/37/37 38/38/38
f 49/49/49 38/38/38 47/47/47
f 50/50/50 38/38/38 49/49/49
f 48/48/48 38/38/38 50/50/50
