g mesh1
v -0 0.05 0
v -1.2 0.05 2.4
v -2.1000001 0.05 2.3
v -2.5 0.05 1.9
v -0.8 0.05 2.5
v -2.5 0.05 1.2
v -2.4 0.05 0.6
v -2.2 0.05 -0.2
v -2.4 0.05 -1
v -2.2 0.05 -1.9
v -0.8 0.05 -2.5
v 0.6 0.05 -2.2
v 1.4 0.05 -2.3
v 2.3 0.05 -1.5
v 2.5 0.05 -0.6
v 2.1000001 0.05 0.1
v 1.6 0.05 0.4
v 2 0.05 1.3000001
v 1.1 0.05 2.3
v 0.8 0.05 2.3
v 0.3 0.05 2.5
v 2 0 1.3000001
v 1.9 -0.6 1.3000001
v 1.1 0 2.3
v 1 -0.6 2.2
v 0.8 0 2.3
v 0.8 -0.6 2.2
v 0.3 0 2.5
v 0.3 -0.6 2.4
v -0.8 0 2.5
v -0.8 -0.6 2.4
v 0.2 -0.8 2.1000001
v -0.8 -0.8 2
v -0.5171573 -0.90000004 1.4857864
v 0.7 -0.8 1.9
v -1.1 -0.6 2.3
v -1.2 -0.8 1.2
v -1.4 -0.6 1.1
v -1.2 0 2.4
v -1.5 0 1.1
v -0.5171573 -0.90000004 1.4857864
v 1.9 -0.6 1.3000001
v 2 0 1.3000001
v 1.6 0 0.4
v 1.5 -0.6 0.5
v 1.2 -0.6 0.4
v 1.2 0 0.3
v 0.4 -0.6 0.7
v 0.4 0 0.6
v -0 -0.6 0.6
v -0 0 0.5
v -0.2 -0.6 0.4
v -0.2 0 0.3
v -1 -0.6 0.7
v -1 0 0.6
v -1.4 -0.6 1.1
v -1.5 0 1.1
v -1.2 -0.8 1.2
v -0.8 -0.8 1
v -0.5171573 -0.90000004 1.4857864
v -0.4 -0.8 0.7
v 0.04852815 -0.8 0.920101
v 0.6849243 -0.8 1.4150758
v -0.5171573 -0.90000004 1.4857864
v 0.6849243 -0.8 1.4150758
v 0.7 -0.8 1.9
v -0.5171573 -0.90000004 1.4857864
v -2.1000001 -0.8 0.4
v -2.1000001 -0.6 0
v -2.3 -0.6 0.6
v -2.2 -0.8 1.4
v -1.9 -0.90000004 1
v -2.4 0 0.6
v -2.2 0 -0.2
v -2.5 0 1.2
v -2.4 -0.6 1.2
v -2.2 -0.8 1.4
v -2.2 -0.8 1.4
v -2.4 -0.6 1.8000001
v -2.1000001 -0.6 2.2
v -2.4 -0.6 1.2
v -2.5 0 1.9
v -2.1000001 0 2.3
v -1.2 0 2.4
v -1.3000001 -0.6 2.3
v -1.6 -0.8 1.8000001
v -2.2 -0.8 1.4
v -1.5 0 1.1
v -2.5 0 1.2
v -1.9 -0.90000004 1
v -1.6 -0.6 1.1
v -1.3000001 -0.6 2.3
v -1.6 -0.8 1.8000001
v -1.7 -0.8 1.1
v -1.9 -0.90000004 1
v -1.6 -0.6 0.2
v -1.7 -0.8 0.3
v -1.2 -0.8 0.4
v -0.4 -0.6 0.3
v -2.1000001 -0.8 0.4
v -1.9 -0.90000004 1
v -1.6 0 0.1
v -2.1000001 -0.6 0
v -2.1000001 -0.8 0.4
v -2.2 0 -0.2
v -0.2 0 0.3
v -1 0 0.6
v -1.1 -0.6 0.5
v -1.6 -0.6 1.1
v -1.5 0 1.1
v -1.7 -0.8 1.1
v -1.2 -0.8 0.4
v -1.9 -0.90000004 1
v -1.9 -0.90000004 1
v 2.2 -0.6 -1.4
v 2.3 0 -1.5
v 1.4 -0.6 -2.2
v 1.4 0 -2.3
v 0.6 0 -2.2
v 0.7 -0.6 -2.1000001
v -0 0 -1.3000001
v 0.1 -0.6 -1.3000001
v 2.4 -0.6 -0.6
v 2.5 0 -0.6
v 1.4 -0.8 -2
v 1.9 -0.8 -1.3000001
v 1.2 -0.90000004 -1
v 2 -0.8 -1
v 0.90000004 -0.8 -2
v 1.2 -0.90000004 -1
v 0.3 -0.8 -1.1
v 1.2 -0.90000004 -1
v -0 -0.8 -0.5
v -0.1 -0.6 -0.8
v -0.2 0 -0.8
v -0.1 -0.6 -0.8
v 0.1 -0.6 -1.3000001
v -0 0 -1.3000001
v -0.3 0 -0.4
v -0.2 -0.6 -0.4
v -0 -0.8 -0.5
v -0.1 -0.6 0.2
v -0.2 0 0.3
v 0.1 -0.6 0.4
v -0 0 0.5
v 0.4 0 0.6
v 0.4 -0.6 0.5
v 1.2 0 0.3
v 1.2 -0.6 0.2
v 1.6 0 0.4
v 1.6 -0.6 0.3
v -0.2 -0.6 -0.4
v -0.3 0 -0.4
v 2.1000001 0 0.1
v 2 -0.6 0.1
v 2.5 0 -0.6
v 2.4 -0.6 -0.6
v 1.7 -0.8 -0.3
v 2 -0.8 -1
v 1.2 -0.90000004 -1
v 1.2 -0.8 -0.2
v 1.2 -0.90000004 -1
v 0.4 -0.8 -0.1
v -0 -0.8 -0.5
v -0 -0.8 -0.5
v 1.2 -0.90000004 -1
v -0.1 -0.6 -1.3000001
v -0 0 -1.3000001
v 0.4 -0.6 -2.1000001
v 0.6 0 -2.2
v -0.8 0 -2.5
v -0.8 -0.6 -2.4
v 0.4 -0.6 -2.1000001
v 0.6 0 -2.2
v -2.1000001 -0.6 -1.9
v -2.2 0 -1.9
v -2.3 -0.6 -1
v -2.4 0 -1
v -1.2 -0.8 -1.4
v -1.5 -0.8 -0.90000004
v -0.7 -0.8 -1.4
v -1 -0.90000004 -0.90000004
v -1 -0.90000004 -0.90000004
v -0.7 -0.8 -0.90000004
v -0.1 -0.6 -1.3000001
v -0.3 -0.6 -0.8
v -0.2 0 -0.8
v -0 0 -1.3000001
v -0.3 0 -0.4
v -0.4 -0.6 -0.4
v -0.90000004 -0.8 -0.5
v -1 -0.90000004 -0.90000004
v -0.3 -0.6 0.2
v -0.2 0 0.3
v -0.4 -0.6 -0.4
v -0.3 0 -0.4
v -1.6 0 0.1
v -1.6 -0.6 0
v -2.1000001 -0.6 -0.3
v -2.2 0 -0.2
v -2.4 0 -1
v -2.3 -0.6 -1
v -1.5 -0.8 -0.90000004
v -0.90000004 -0.8 -0.5
v -1.5 -0.8 -0.90000004
v -1 -0.90000004 -0.90000004
v -0.90000004 -0.8 -0.5
v -0.3 -0.6 0.2
v 0.4 -0.6 -2.1000001
v -0.7 -0.8 -1.4
v -0.7 -0.8 -0.90000004
v -1 -0.90000004 -0.90000004
vt 0.3046933 0.66290224
vt 0.44410214 0.9417197
vt 0.54865867 0.93010235
vt 0.59512824 0.88363266
vt 0.39763257 0.9533371
vt 0.59512824 0.80231094
vt 0.5835108 0.73260653
vt 0.56027603 0.63966745
vt 0.5835108 0.54672825
vt 0.56027603 0.44217163
vt 0.39763257 0.37246734
vt 0.23498896 0.4073195
vt 0.14204982 0.39570206
vt 0.037493225 0.48864126
vt 0.01425844 0.5931978
vt 0.06072801 0.6745196
vt 0.11881497 0.70937175
vt 0.07234543 0.81392837
vt 0.17690203 0.93010235
vt 0.21175423 0.93010235
vt 0.26984116 0.9533371
vt 1.4164287 0.3467625
vt 1.3804046 0.13061734
vt 0.9401954 0.3467625
vt 0.9041711 0.13061734
vt 0.8321227 0.3467625
vt 0.8321227 0.13061734
vt 0.65200186 0.3467625
vt 0.65200186 0.13061734
vt 0.2557358 0.3467625
vt 0.2557358 0.13061734
vt 0.6159777 0.058568995
vt 0.2557358 0.058568995
vt 0.35762757 0.022544788
vt 0.79609853 0.058568995
vt 0.14766327 0.13061734
vt 0.11163906 0.058568995
vt 0.03959071 0.13061734
vt 0.11163906 0.3467625
vt 0.0035665045 0.3467625
vt 0.35762757 0.022544788
vt 1.3804046 0.13061734
vt 1.4164287 0.3467625
vt 1.1203163 0.3467625
vt 1.084292 0.13061734
vt 0.97621953 0.13061734
vt 0.97621953 0.3467625
vt 0.688026 0.13061734
vt 0.688026 0.3467625
vt 0.5439293 0.13061734
vt 0.5439293 0.3467625
vt 0.47188094 0.13061734
vt 0.47188094 0.3467625
vt 0.18368746 0.13061734
vt 0.18368746 0.3467625
vt 0.03959071 0.13061734
vt 0.0035665045 0.3467625
vt 0.11163906 0.058568995
vt 0.2557358 0.058568995
vt 0.35762757 0.022544788
vt 0.39983258 0.058568995
vt 0.5614111 0.058568995
vt 0.7906676 0.058568995
vt 0.35762757 0.022544788
vt 0.7906676 0.058568995
vt 0.79609853 0.058568995
vt 0.35762757 0.022544788
vt -0.21257855 0.058568995
vt -0.21257855 0.13061734
vt -0.28462696 0.13061734
vt -0.24860276 0.058568995
vt -0.1405302 0.022544788
vt -0.3206511 0.3467625
vt -0.24860276 0.3467625
vt -0.4095504 0.3467625
vt -0.3735262 0.13061734
vt -0.24860276 0.058568995
vt -0.24860276 0.058568995
vt -0.3206511 0.13061734
vt -0.21257855 0.13061734
vt -0.3735262 0.13061734
vt -0.35667533 0.3467625
vt -0.21257855 0.3467625
vt 0.11163906 0.3467625
vt 0.075614914 0.13061734
vt -0.032457646 0.058568995
vt -0.24860276 0.058568995
vt 0.0035665045 0.3467625
vt -0.4095504 0.3467625
vt -0.1405302 0.022544788
vt -0.032457646 0.13061734
vt 0.075614914 0.13061734
vt -0.032457646 0.058568995
vt -0.06848185 0.058568995
vt -0.1405302 0.022544788
vt -0.032457646 0.13061734
vt -0.06848185 0.058568995
vt 0.11163906 0.058568995
vt 0.39983258 0.13061734
vt -0.21257855 0.058568995
vt -0.1405302 0.022544788
vt -0.032457646 0.3467625
vt -0.21257855 0.13061734
vt -0.21257855 0.058568995
vt -0.24860276 0.3467625
vt 0.47188094 0.3467625
vt 0.18368746 0.3467625
vt 0.14766327 0.13061734
vt -0.032457646 0.13061734
vt 0.0035665045 0.3467625
vt -0.06848185 0.058568995
vt 0.11163906 0.058568995
vt -0.1405302 0.022544788
vt -0.1405302 0.022544788
vt 1.3364613 0.13061734
vt 1.3724856 0.3467625
vt 1.0482678 0.13061734
vt 1.0482678 0.3467625
vt 0.7600744 0.3467625
vt 0.79609853 0.13061734
vt 0.5439293 0.3467625
vt 0.57995343 0.13061734
vt 1.4547755 0.13061734
vt 1.4907997 0.3467625
vt 1.0482678 0.058568995
vt 1.2283888 0.058568995
vt 0.97621953 0.022544788
vt 1.2644129 0.058568995
vt 0.86814696 0.058568995
vt 0.97621953 0.022544788
vt 0.65200186 0.058568995
vt 0.97621953 0.022544788
vt 0.5439293 0.058568995
vt 0.50790507 0.13061734
vt 0.47188094 0.3467625
vt 0.50790507 0.13061734
vt 0.57995343 0.13061734
vt 0.5439293 0.3467625
vt 0.43585673 0.3467625
vt 0.47188094 0.13061734
vt 0.5439293 0.058568995
vt 0.50790507 0.13061734
vt 0.47188094 0.3467625
vt 0.57995343 0.13061734
vt 0.5439293 0.3467625
vt 0.688026 0.3467625
vt 0.688026 0.13061734
vt 0.97621953 0.3467625
vt 0.97621953 0.13061734
vt 1.1203163 0.3467625
vt 1.1203163 0.13061734
vt 0.47188094 0.13061734
vt 0.43585673 0.3467625
vt 1.3004371 0.3467625
vt 1.2644129 0.13061734
vt 1.4907997 0.3467625
vt 1.4547755 0.13061734
vt 1.1563405 0.058568995
vt 1.2644129 0.058568995
vt 0.97621953 0.022544788
vt 0.97621953 0.058568995
vt 0.97621953 0.022544788
vt 0.688026 0.058568995
vt 0.5439293 0.058568995
vt 0.5439293 0.058568995
vt 0.97621953 0.022544788
vt 0.50790507 0.13061734
vt 0.5439293 0.3467625
vt 0.688026 0.13061734
vt 0.7600744 0.3467625
vt 0.2557358 0.3467625
vt 0.2557358 0.13061734
vt 0.688026 0.13061734
vt 0.7600744 0.3467625
vt -0.21257855 0.13061734
vt -0.24860276 0.3467625
vt -0.37385365 0.13061734
vt -0.4098778 0.3467625
vt 0.11163906 0.058568995
vt 0.0035665045 0.058568995
vt 0.29176003 0.058568995
vt 0.18368746 0.022544788
vt 0.18368746 0.022544788
vt 0.29176003 0.058568995
vt 0.50790507 0.13061734
vt 0.43585673 0.13061734
vt 0.47188094 0.3467625
vt 0.5439293 0.3467625
vt 0.43585673 0.3467625
vt 0.39983258 0.13061734
vt 0.21971162 0.058568995
vt 0.18368746 0.022544788
vt 0.43585673 0.13061734
vt 0.47188094 0.3467625
vt 0.39983258 0.13061734
vt 0.43585673 0.3467625
vt -0.032457646 0.3467625
vt -0.032457646 0.13061734
vt -0.21257855 0.13061734
vt -0.24860276 0.3467625
vt -0.4098778 0.3467625
vt -0.37385365 0.13061734
vt 0.0035665045 0.058568995
vt 0.21971162 0.058568995
vt 0.0035665045 0.058568995
vt 0.18368746 0.022544788
vt 0.21971162 0.058568995
vt 0.43585673 0.13061734
vt 0.688026 0.13061734
vt 0.29176003 0.058568995
vt 0.29176003 0.058568995
vt 0.18368746 0.022544788
vn -0 1 0
vn -0 1 0
vn -0 1 0
vn -0 1 0
vn -0 1 0
vn -0 1 0
vn -0 1 0
vn -0 1 0
vn -0 1 0
vn -0 1 0
vn -0 1 0
vn -0 1 0
vn -0 1 0
vn -0 1 0
vn -0 1 0
vn -0 1 0
vn -0 1 0
vn -0 1 0
vn -0 1 0
vn -0 1 0
vn -0 1 0
vn 0.974351 -0.16239183 0.15578538
vn 0.7210334 -0.6789391 0.13839263
vn 0.51157385 -0.18539801 0.8389993
vn 0.22939157 -0.5318543 0.81517524
vn 0.12428335 -0.16312437 0.9787462
vn 0.20894791 -0.55244154 0.8069381
vn 0.24856672 -0.15923929 0.9554357
vn 0.12490521 -0.47652346 0.87024367
vn -0.08032958 -0.16386771 0.9832063
vn -0.13749692 -0.58276784 0.8009221
vn 0.06454886 -0.9186916 0.38966557
vn -0.16128792 -0.9470019 0.27780148
vn -0.015492039 -0.9997349 -0.017033482
vn 0.13606599 -0.9583696 0.25102544
vn -0.59232545 -0.6589555 0.46360338
vn -0.3781718 -0.9193303 -0.108710214
vn -0.8899023 -0.3854482 -0.24393353
vn -0.7080571 -0.20834401 0.6747206
vn -0.9486939 -0.15811564 -0.27382374
vn -0.015492039 -0.9997349 -0.017033482
vn 0.7210334 -0.6789391 0.13839263
vn 0.974351 -0.16239183 0.15578538
vn 0.6359879 -0.2009579 -0.745074
vn 0.43478808 -0.7475496 -0.5021245
vn 0.041632947 -0.6093886 -0.7917779
vn -0.15763563 -0.16234355 -0.97406137
vn -0.0252128 -0.6246756 -0.7804773
vn 0.04576462 -0.16422674 -0.98536044
vn 0.4020854 -0.43154523 -0.8075246
vn 0.56594604 -0.13553749 -0.8132249
vn 0.30858123 -0.5364184 -0.7855145
vn 0.003245262 -0.1643981 -0.9863887
vn -0.41423506 -0.5704517 -0.7092208
vn -0.59565926 -0.13205136 -0.7923083
vn -0.8899023 -0.3854482 -0.24393353
vn -0.9486939 -0.15811564 -0.27382374
vn -0.3781718 -0.9193303 -0.108710214
vn -0.17595817 -0.9423079 -0.2847712
vn -0.015492039 -0.9997349 -0.017033482
vn -0.0764874 -0.9292428 -0.36146572
vn 0.21976598 -0.90830535 -0.35592747
vn 0.104785435 -0.9850226 -0.13693248
vn -0.015492039 -0.9997349 -0.017033482
vn 0.104785435 -0.9850226 -0.13693248
vn 0.13606599 -0.9583696 0.25102544
vn -0.015492039 -0.9997349 -0.017033482
vn -0.38777062 -0.8458651 -0.36625972
vn -0.41380805 -0.5295095 -0.74052864
vn -0.8850813 -0.42513606 -0.18944775
vn -0.43865192 -0.889152 0.13035801
vn 0.057943594 -0.9983168 0.0024402088
vn -0.9535986 -0.18519215 -0.23738901
vn -0.38935742 -0.3490255 -0.8523978
vn -0.98057425 -0.16342904 -0.108467355
vn -0.90901643 -0.41283208 -0.05708631
vn -0.43865192 -0.889152 0.13035801
vn -0.43865192 -0.889152 0.13035801
vn -0.79388475 -0.5590632 0.23915543
vn -0.42114368 -0.5038189 0.7541913
vn -0.90901643 -0.41283208 -0.05708631
vn -0.9218628 -0.17963456 0.34336624
vn -0.42942515 -0.14846914 0.8908148
vn 0.3795626 -0.22231162 0.8980589
vn 0.58113444 -0.75819784 0.2956668
vn 0.40218937 -0.9125217 0.07448343
vn -0.43865192 -0.889152 0.13035801
vn 0.9845717 -0.15015687 0.08984126
vn -0.98057425 -0.16342904 -0.108467355
vn 0.057943594 -0.9983168 0.0024402088
vn 0.8935146 -0.36752015 0.25799358
vn 0.58113444 -0.75819784 0.2956668
vn 0.40218937 -0.9125217 0.07448343
vn 0.6762103 -0.694491 0.24580847
vn 0.057943594 -0.9983168 0.0024402088
vn 0.11267043 -0.48017877 -0.8699044
vn -0.020094533 -0.8104149 -0.58551157
vn 0.33914545 -0.939514 -0.047894
vn 0.55774885 -0.82966304 -0.023988739
vn -0.38777062 -0.8458651 -0.36625972
vn 0.057943594 -0.9983168 0.0024402088
vn 0.2603642 -0.14761896 -0.95415884
vn -0.41380805 -0.5295095 -0.74052864
vn -0.38777062 -0.8458651 -0.36625972
vn -0.38935742 -0.3490255 -0.8523978
vn 0.9425807 -0.31419358 -0.11324315
vn 0.5350322 -0.17169382 0.8272012
vn 0.55608755 -0.39814797 0.72955114
vn 0.8935146 -0.36752015 0.25799358
vn 0.9845717 -0.15015687 0.08984126
vn 0.6762103 -0.694491 0.24580847
vn 0.33914545 -0.939514 -0.047894
vn 0.057943594 -0.9983168 0.0024402088
vn 0.057943594 -0.9983168 0.0024402088
vn 0.67176723 -0.6331523 -0.3845086
vn 0.8511324 -0.18570796 -0.4910053
vn 0.2947908 -0.37388134 -0.87938106
vn 0.29416594 -0.15712507 -0.9427503
vn -0.38659266 -0.20686878 -0.8987499
vn -0.4462105 -0.45596442 -0.7700602
vn -0.846372 -0.1713003 -0.5042922
vn -0.7608196 -0.5016169 -0.41174507
vn 0.78194535 -0.6215732 0.046992067
vn 0.9492625 -0.15821041 0.2717907
vn 0.19239469 -0.84602666 -0.49721542
vn 0.30493447 -0.93948805 -0.15613203
vn 0.014623525 -0.9998903 0.0023242717
vn 0.3349825 -0.94169056 -0.031711087
vn -0.24985537 -0.8832576 -0.3967723
vn 0.014623525 -0.9998903 0.0023242717
vn -0.3856014 -0.90040666 -0.20144348
vn 0.014623525 -0.9998903 0.0023242717
vn -0.43004027 -0.90251744 -0.022969909
vn -0.8383421 -0.47047508 -0.2753828
vn -0.9327995 -0.15546659 -0.3251389
vn -0.8383421 -0.47047508 -0.2753828
vn -0.7608196 -0.5016169 -0.41174507
vn -0.846372 -0.1713003 -0.5042922
vn -0.9798543 -0.16330904 -0.11495985
vn -0.9161947 -0.40072665 -0.0023354907
vn -0.43004027 -0.90251744 -0.022969909
vn -0.6410477 -0.69392973 0.3279014
vn -0.8722263 -0.21267241 0.44044492
vn -0.43648282 -0.51970863 0.7344288
vn -0.47964132 -0.22145033 0.84906065
vn -0.07088626 -0.17742167 0.9815787
vn 0.09470433 -0.5642619 0.8201461
vn 0.15763563 -0.16234355 0.97406137
vn -0.013469817 -0.6200167 0.784473
vn 0.010871629 -0.16438927 0.98633564
vn 0.17901537 -0.53568447 0.82522464
vn -0.9161947 -0.40072665 -0.0023354907
vn -0.9798543 -0.16330904 -0.11495985
vn 0.6259899 -0.12385426 0.7699329
vn 0.5471498 -0.630863 0.5501263
vn 0.9492625 -0.15821041 0.2717907
vn 0.78194535 -0.6215732 0.046992067
vn 0.18340482 -0.9653565 0.18560565
vn 0.3349825 -0.94169056 -0.031711087
vn 0.014623525 -0.9998903 0.0023242717
vn 0.03388512 -0.95157707 0.30553702
vn 0.014623525 -0.9998903 0.0023242717
vn -0.06471444 -0.9658178 0.25101382
vn -0.43004027 -0.90251744 -0.022969909
vn -0.43004027 -0.90251744 -0.022969909
vn 0.014623525 -0.9998903 0.0023242717
vn 0.7889226 -0.48202452 0.38112122
vn 0.8621267 -0.15890394 0.48113102
vn 0.5217956 -0.8325713 -0.18588795
vn 0.87099606 -0.34811136 -0.34667605
vn -0.079861045 -0.15893686 -0.9840535
vn -0.049240824 -0.7027999 -0.7096813
vn 0.5217956 -0.8325713 -0.18588795
vn 0.87099606 -0.34811136 -0.34667605
vn -0.47256774 -0.7094044 -0.5229007
vn -0.85622007 -0.14270335 -0.4965108
vn -0.8117656 -0.5830339 -0.03328869
vn -0.9790838 -0.17672631 0.100810684
vn -0.06736658 -0.98073494 -0.18335938
vn -0.19711865 -0.97153854 0.13136627
vn 0.12584092 -0.98480606 -0.1196708
vn 0.051298194 -0.99834 0.02618808
vn 0.051298194 -0.99834 0.02618808
vn 0.35191533 -0.9259029 0.13732956
vn 0.7889226 -0.48202452 0.38112122
vn 0.7567783 -0.60572433 0.24573274
vn 0.9327995 -0.15546659 0.3251389
vn 0.8621267 -0.15890394 0.48113102
vn 0.9798543 -0.16330904 0.11495985
vn 0.84470624 -0.5351582 -0.008784078
vn 0.162513 -0.96391314 0.21085791
vn 0.051298194 -0.99834 0.02618808
vn 0.17091465 -0.77314675 0.6107638
vn 0.91361034 -0.22087535 0.34136513
vn 0.84470624 -0.5351582 -0.008784078
vn 0.9798543 -0.16330904 0.11495985
vn -0.3140264 -0.16828324 0.9343811
vn -0.24814321 -0.6868635 0.6831131
vn -0.66143405 -0.54538447 0.51484054
vn -0.7600921 -0.22809337 0.6084681
vn -0.9790838 -0.17672631 0.100810684
vn -0.8117656 -0.5830339 -0.03328869
vn -0.19711865 -0.97153854 0.13136627
vn 0.162513 -0.96391314 0.21085791
vn -0.19711865 -0.97153854 0.13136627
vn 0.051298194 -0.99834 0.02618808
vn 0.162513 -0.96391314 0.21085791
vn 0.17091465 -0.77314675 0.6107638
vn 0.5217956 -0.8325713 -0.18588795
vn 0.12584092 -0.98480606 -0.1196708
vn 0.35191533 -0.9259029 0.13732956
vn 0.051298194 -0.99834 0.02618808
g mesh1_0
f 3/3/3 2/2/2 1/1/1
f 3/3/3 1/1/1 4/4/4
f 5/5/5 1/1/1 2/2/2
f 6/6/6 4/4/4 1/1/1
f 6/6/6 1/1/1 7/7/7
f 8/8/8 7/7/7 1/1/1
f 9/9/9 8/8/8 1/1/1
f 9/9/9 1/1/1 10/10/10
f 11/11/11 10/10/10 1/1/1
f 11/11/11 1/1/1 12/12/12
f 12/12/12 1/1/1 13/13/13
f 13/13/13 1/1/1 14/14/14
f 14/14/14 1/1/1 15/15/15
f 15/15/15 1/1/1 16/16/16
f 17/17/17 16/16/16 1/1/1
f 17/17/17 1/1/1 18/18/18
f 19/19/19 18/18/18 1/1/1
f 19/19/19 1/1/1 20/20/20
f 20/20/20 1/1/1 21/21/21
f 5/5/5 21/21/21 1/1/1
f 24/24/24 23/23/23 22/22/22
f 23/23/23 24/24/24 25/25/25
f 26/26/26 25/25/25 24/24/24
f 25/25/25 26/26/26 27/27/27
f 28/28/28 27/27/27 26/26/26
f 27/27/27 28/28/28 29/29/29
f 30/30/30 29/29/29 28/28/28
f 29/29/29 30/30/30 31/31/31
f 29/29/29 31/31/31 32/32/32
f 27/27/27 29/29/29 32/32/32
f 33/33/33 32/32/32 31/31/31
f 32/32/32 33/33/33 34/34/34
f 32/32/32 34/34/34 35/35/35
f 23/23/23 25/25/25 35/35/35
f 25/25/25 27/27/27 35/35/35
f 32/32/32 35/35/35 27/27/27
f 31/31/31 36/36/36 33/33/33
f 37/37/37 33/33/33 36/36/36
f 36/36/36 38/38/38 37/37/37
f 38/38/38 36/36/36 39/39/39
f 39/39/39 31/31/31 30/30/30
f 31/31/31 39/39/39 36/36/36
f 39/39/39 40/40/40 38/38/38
f 37/37/37 41/41/41 33/33/33
f 44/44/44 43/43/43 42/42/42
f 42/42/42 45/45/45 44/44/44
f 46/46/46 44/44/44 45/45/45
f 44/44/44 46/46/46 47/47/47
f 48/48/48 47/47/47 46/46/46
f 47/47/47 48/48/48 49/49/49
f 50/50/50 49/49/49 48/48/48
f 49/49/49 50/50/50 51/51/51
f 52/52/52 51/51/51 50/50/50
f 51/51/51 52/52/52 53/53/53
f 54/54/54 53/53/53 52/52/52
f 53/53/53 54/54/54 55/55/55
f 56/56/56 55/55/55 54/54/54
f 55/55/55 56/56/56 57/57/57
f 56/56/56 54/54/54 58/58/58
f 59/59/59 58/58/58 54/54/54
f 58/58/58 59/59/59 60/60/60
f 60/60/60 59/59/59 61/61/61
f 54/54/54 52/52/52 61/61/61
f 61/61/61 59/59/59 54/54/54
f 52/52/52 50/50/50 62/62/62
f 62/62/62 61/61/61 52/52/52
f 50/50/50 48/48/48 62/62/62
f 63/63/63 62/62/62 48/48/48
f 62/62/62 63/63/63 64/64/64
f 61/61/61 62/62/62 64/64/64
f 42/42/42 63/63/63 45/45/45
f 46/46/46 45/45/45 63/63/63
f 48/48/48 46/46/46 63/63/63
f 66/66/66 65/65/65 42/42/42
f 66/66/66 67/67/67 65/65/65
f 70/70/70 69/69/69 68/68/68
f 68/68/68 71/71/71 70/70/70
f 71/71/71 68/68/68 72/72/72
f 69/69/69 70/70/70 73/73/73
f 73/73/73 74/74/74 69/69/69
f 75/75/75 73/73/73 70/70/70
f 70/70/70 76/76/76 75/75/75
f 76/76/76 70/70/70 77/77/77
f 80/80/80 79/79/79 78/78/78
f 79/79/79 81/81/81 78/78/78
f 80/80/80 82/82/82 79/79/79
f 81/81/81 79/79/79 82/82/82
f 82/82/82 80/80/80 83/83/83
f 84/84/84 83/83/83 80/80/80
f 80/80/80 85/85/85 84/84/84
f 78/78/78 86/86/86 85/85/85
f 85/85/85 80/80/80 87/87/87
f 88/88/88 84/84/84 85/85/85
f 82/82/82 89/89/89 81/81/81
f 86/86/86 78/78/78 90/90/90
f 92/92/92 91/91/91 88/88/88
f 91/91/91 92/92/92 93/93/93
f 93/93/93 94/94/94 91/91/91
f 94/94/94 93/93/93 95/95/95
f 98/98/98 97/97/97 96/96/96
f 96/96/96 99/99/99 98/98/98
f 100/100/100 96/96/96 97/97/97
f 97/97/97 101/101/101 100/100/100
f 99/99/99 96/96/96 102/102/102
f 103/103/103 102/102/102 96/96/96
f 96/96/96 104/104/104 103/103/103
f 102/102/102 103/103/103 105/105/105
f 102/102/102 106/106/106 99/99/99
f 107/107/107 99/99/99 106/106/106
f 99/99/99 107/107/107 108/108/108
f 99/99/99 108/108/108 98/98/98
f 109/109/109 108/108/108 107/107/107
f 107/107/107 110/110/110 109/109/109
f 108/108/108 109/109/109 111/111/111
f 111/111/111 112/112/112 108/108/108
f 113/113/113 112/112/112 111/111/111
f 97/97/97 98/98/98 114/114/114
f 117/117/117 116/116/116 115/115/115
f 116/116/116 117/117/117 118/118/118
f 119/119/119 118/118/118 117/117/117
f 117/117/117 120/120/120 119/119/119
f 121/121/121 119/119/119 120/120/120
f 120/120/120 122/122/122 121/121/121
f 123/123/123 115/115/115 116/116/116
f 116/116/116 124/124/124 123/123/123
f 115/115/115 125/125/125 117/117/117
f 120/120/120 117/117/117 125/125/125
f 125/125/125 115/115/115 126/126/126
f 126/126/126 127/127/127 125/125/125
f 126/126/126 128/128/128 127/127/127
f 115/115/115 123/123/123 128/128/128
f 128/128/128 126/126/126 115/115/115
f 122/122/122 120/120/120 129/129/129
f 125/125/125 129/129/129 120/120/120
f 129/129/129 125/125/125 130/130/130
f 129/129/129 131/131/131 122/122/122
f 131/131/131 129/129/129 132/132/132
f 131/131/131 132/132/132 133/133/133
f 134/134/134 122/122/122 131/131/131
f 131/131/131 133/133/133 134/134/134
f 137/137/137 136/136/136 135/135/135
f 135/135/135 138/138/138 137/137/137
f 139/139/139 135/135/135 136/136/136
f 136/136/136 140/140/140 139/139/139
f 140/140/140 136/136/136 141/141/141
f 144/144/144 143/143/143 142/142/142
f 143/143/143 144/144/144 145/145/145
f 146/146/146 145/145/145 144/144/144
f 144/144/144 147/147/147 146/146/146
f 148/148/148 146/146/146 147/147/147
f 147/147/147 149/149/149 148/148/148
f 150/150/150 148/148/148 149/149/149
f 149/149/149 151/151/151 150/150/150
f 152/152/152 142/142/142 143/143/143
f 143/143/143 153/153/153 152/152/152
f 154/154/154 150/150/150 151/151/151
f 151/151/151 155/155/155 154/154/154
f 156/156/156 154/154/154 155/155/155
f 155/155/155 157/157/157 156/156/156
f 157/157/157 155/155/155 158/158/158
f 158/158/158 159/159/159 157/157/157
f 160/160/160 159/159/159 158/158/158
f 155/155/155 151/151/151 161/161/161
f 161/161/161 158/158/158 155/155/155
f 151/151/151 149/149/149 161/161/161
f 158/158/158 161/161/161 162/162/162
f 161/161/161 163/163/163 162/162/162
f 163/163/163 161/161/161 149/149/149
f 149/149/149 147/147/147 163/163/163
f 147/147/147 144/144/144 163/163/163
f 142/142/142 163/163/163 144/144/144
f 142/142/142 152/152/152 164/164/164
f 165/165/165 163/163/163 142/142/142
f 165/165/165 166/166/166 163/163/163
f 169/169/169 168/168/168 167/167/167
f 168/168/168 169/169/169 170/170/170
f 173/173/173 172/172/172 171/171/171
f 171/171/171 174/174/174 173/173/173
f 175/175/175 171/171/171 172/172/172
f 171/171/171 175/175/175 176/176/176
f 177/177/177 176/176/176 175/175/175
f 176/176/176 177/177/177 178/178/178
f 175/175/175 172/172/172 179/179/179
f 173/173/173 179/179/179 172/172/172
f 179/179/179 180/180/180 175/175/175
f 177/177/177 175/175/175 180/180/180
f 179/179/179 173/173/173 181/181/181
f 180/180/180 179/179/179 182/182/182
f 181/181/181 183/183/183 179/179/179
f 173/173/173 185/185/185 184/184/184
f 185/185/185 186/186/186 184/184/184
f 185/185/185 187/187/187 186/186/186
f 187/187/187 185/185/185 188/188/188
f 189/189/189 186/186/186 187/187/187
f 186/186/186 189/189/189 190/190/190
f 191/191/191 184/184/184 186/186/186
f 186/186/186 190/190/190 191/191/191
f 184/184/184 191/191/191 192/192/192
f 195/195/195 194/194/194 193/193/193
f 194/194/194 195/195/195 196/196/196
f 197/197/197 193/193/193 194/194/194
f 193/193/193 197/197/197 198/198/198
f 199/199/199 198/198/198 197/197/197
f 197/197/197 200/200/200 199/199/199
f 201/201/201 199/199/199 200/200/200
f 199/199/199 201/201/201 202/202/202
f 198/198/198 199/199/199 203/203/203
f 199/199/199 202/202/202 203/203/203
f 203/203/203 204/204/204 193/193/193
f 193/193/193 198/198/198 205/205/205
f 204/204/204 203/203/203 206/206/206
f 195/195/195 208/208/208 207/207/207
f 211/211/211 210/210/210 209/209/209
f 210/210/210 211/211/211 212/212/212
