g mesh
v -0.29389262 0.4045085 0.1
v -0.29389262 0.4045085 -0.1
v -0.1545085 0.47552824 0.1
v -0.1545085 0.47552824 -0.1
v -0.4045085 0.29389268 -0.1
v -0.4045085 0.29389268 0.1
v -0.47552824 0.15450852 -0.1
v -0.47552824 0.15450852 0.1
v -0.5 0 -0.1
v -0 0.5 0.1
v -0 0.5 -0.1
v -0.5 0 0.1
v -0.47552824 -0.15450847 -0.1
v -0.47552824 -0.15450847 0.1
v -0.4045085 -0.29389262 -0.1
v -0.4045085 -0.29389262 0.1
v -0.29389262 -0.4045085 -0.1
v -0.29389262 -0.4045085 0.1
v -0.1545085 -0.47552824 -0.1
v -0.1545085 -0.47552824 0.1
v -0 -0.5 0.1
v -0 -0.5 -0.1
v -0.1173136 0.1173136 0.1
v -0.47552824 0.15450852 0.1
v -0.4045085 0.29389268 0.1
v -0.29389262 0.4045085 0.1
v -0.1545085 0.47552824 0.1
v -0 0.5 0.1
v -0.5 0 0.1
v 0.1173136 0.1173136 0.1
v 0.1545085 0.47552824 0.1
v 0.29389262 0.4045085 0.1
v 0.4045085 0.29389268 0.1
v 0.47552824 0.15450852 0.1
v 0.5 0 0.1
v -0.47552824 -0.15450847 0.1
v -0.1173136 -0.1173136 0.1
v -0.4045085 -0.29389262 0.1
v -0.29389262 -0.4045085 0.1
v -0.1545085 -0.47552824 0.1
v -0 -0.5 0.1
v 0.1173136 -0.1173136 0.1
v 0.47552824 -0.15450847 0.1
v 0.1545085 -0.47552824 0.1
v 0.29389262 -0.4045085 0.1
v 0.4045085 -0.29389262 0.1
v -0 0.5 0.1
v -0 0.5 -0.1
v 0.1545085 0.47552824 -0.1
v 0.1545085 0.47552824 0.1
v 0.29389262 0.4045085 -0.1
v 0.29389262 0.4045085 0.1
v 0.4045085 0.29389268 -0.1
v 0.4045085 0.29389268 0.1
v 0.47552824 0.15450852 -0.1
v 0.47552824 0.15450852 0.1
v 0.5 0 -0.1
v 0.5 0 0.1
v 0.47552824 -0.15450847 -0.1
v 0.47552824 -0.15450847 0.1
v 0.4045085 -0.29389262 -0.1
v 0.4045085 -0.29389262 0.1
v 0.29389262 -0.4045085 -0.1
v 0.29389262 -0.4045085 0.1
v 0.1545085 -0.47552824 -0.1
v 0.1545085 -0.47552824 0.1
v -0 -0.5 -0.1
v -0 -0.5 0.1
v 4.1287314E-17 1.03218285E-17 0.19297077
v -0.5 0 0.1
v -0.1173136 0.1173136 0.1
v -0.1173136 -0.1173136 0.1
v -0 0.5 0.1
v 4.1287314E-17 1.03218285E-17 0.19297077
v 0.1173136 0.1173136 0.1
v 4.1287314E-17 1.03218285E-17 0.19297077
v -0 -0.5 0.1
v 0.1173136 -0.1173136 0.1
v 4.1287314E-17 1.03218285E-17 0.19297077
v 0.5 0 0.1
v 0.1173136 -0.1173136 0.1
v 0.1173136 0.1173136 0.1
v -0.1173136 0.1173136 -0.1
v -0.4045085 0.29389268 -0.1
v -0.47552824 0.15450852 -0.1
v -0.29389262 0.4045085 -0.1
v -0.1545085 0.47552824 -0.1
v -0 0.5 -0.1
v -0.5 0 -0.1
v 0.1173136 0.1173136 -0.1
v 0.1545085 0.47552824 -0.1
v 0.29389262 0.4045085 -0.1
v 0.4045085 0.29389268 -0.1
v 0.47552824 0.15450852 -0.1
v 0.5 0 -0.1
v -0.47552824 -0.15450847 -0.1
v -0.1173136 -0.1173136 -0.1
v -0.4045085 -0.29389262 -0.1
v -0.29389262 -0.4045085 -0.1
v -0.1545085 -0.47552824 -0.1
v -0 -0.5 -0.1
v 0.1173136 -0.1173136 -0.1
v 0.47552824 -0.15450847 -0.1
v 0.1545085 -0.47552824 -0.1
v 0.29389262 -0.4045085 -0.1
v 0.4045085 -0.29389262 -0.1
v 4.1287314E-17 1.03218285E-17 -0.19297077
v -0.1173136 0.1173136 -0.1
v -0.5 0 -0.1
v -0.1173136 -0.1173136 -0.1
v 4.1287314E-17 1.03218285E-17 -0.19297077
v -0 0.5 -0.1
v 0.1173136 0.1173136 -0.1
v 4.1287314E-17 1.03218285E-17 -0.19297077
v -0 -0.5 -0.1
v 0.1173136 -0.1173136 -0.1
v 4.1287314E-17 1.03218285E-17 -0.19297077
v 0.1173136 -0.1173136 -0.1
v 0.5 0 -0.1
v 0.1173136 0.1173136 -0.1
vt 0.20386338 0.0018147007
vt 0.20386338 0.06367211
vt 0.10481621 0.0018146168
vt 0.10481621 0.06367211
vt 0.30291054 0.06367211
vt 0.30291054 0.0018147007
vt 0.40195766 0.06367211
vt 0.40195766 0.0018147007
vt 0.5010049 0.06367211
vt 0.0057691727 0.0018146168
vt 0.0057691727 0.06367211
vt 0.5010049 0.0018147007
vt 0.60005194 0.06367211
vt 0.60005194 0.0018147007
vt 0.69909924 0.06367211
vt 0.69909924 0.0018147007
vt 0.79814625 0.06367211
vt 0.79814625 0.0018147007
vt 0.8971934 0.06367211
vt 0.8971934 0.0018147007
vt 0.99624044 0.0018147007
vt 0.99624044 0.06367211
vt 0.39614385 0.6472726
vt 0.06985056 0.6811529
vt 0.13454153 0.8081162
vt 0.2353002 0.9088746
vt 0.36226338 0.9735657
vt 0.5030033 0.9958566
vt 0.047559552 0.54041296
vt 0.609863 0.6472726
vt 0.6437431 0.9735657
vt 0.7707065 0.9088746
vt 0.87146497 0.8081162
vt 0.93615603 0.6811529
vt 0.95844704 0.54041296
vt 0.06985056 0.39967325
vt 0.39614385 0.4335537
vt 0.13454153 0.27271
vt 0.2353002 0.17195141
vt 0.36226338 0.10726038
vt 0.5030033 0.08496939
vt 0.609863 0.4335537
vt 0.93615603 0.39967325
vt 0.6437431 0.10726038
vt 0.7707065 0.17195141
vt 0.87146497 0.27271
vt 0.0057691727 0.0018146168
vt 0.0057691727 0.06367211
vt 0.10481633 0.06367211
vt 0.10481633 0.0018146168
vt 0.20386353 0.06367211
vt 0.20386353 0.0018147007
vt 0.30291057 0.06367211
vt 0.30291057 0.0018147007
vt 0.40195772 0.06367211
vt 0.40195772 0.0018147007
vt 0.50100476 0.06367211
vt 0.50100476 0.0018147007
vt 0.6000519 0.06367211
vt 0.6000519 0.0018147007
vt 0.6990991 0.06367211
vt 0.6990991 0.0018147007
vt 0.7981463 0.06367211
vt 0.7981463 0.0018147007
vt 0.89719325 0.06367211
vt 0.89719325 0.0018147007
vt 0.99624044 0.06367211
vt 0.99624044 0.0018147007
vt 0.36972708 0.54041296
vt 0.78410554 0.54041296
vt 0.4669513 0.6376374
vt 0.46695137 0.4431886
vt 0.78410554 0.540413
vt 0.36972713 0.54041296
vt 0.46695137 0.4431886
vt 0.36972713 0.54041296
vt 0.78410554 0.54041296
vt 0.46695137 0.6376374
vt 0.36972708 0.54041296
vt 0.78410554 0.54041296
vt 0.46695137 0.4431886
vt 0.46695137 0.6376374
vt 0.39614385 0.6472726
vt 0.13454153 0.8081162
vt 0.06985056 0.6811529
vt 0.2353002 0.9088746
vt 0.36226338 0.9735657
vt 0.5030033 0.9958566
vt 0.047559552 0.54041296
vt 0.609863 0.6472726
vt 0.6437431 0.9735657
vt 0.7707065 0.9088746
vt 0.87146497 0.8081162
vt 0.93615603 0.6811529
vt 0.95844704 0.54041296
vt 0.06985056 0.39967325
vt 0.39614385 0.4335537
vt 0.13454153 0.27271
vt 0.2353002 0.17195141
vt 0.36226338 0.10726038
vt 0.5030033 0.08496939
vt 0.609863 0.4335537
vt 0.93615603 0.39967325
vt 0.6437431 0.10726038
vt 0.7707065 0.17195141
vt 0.87146497 0.27271
vt 0.36972708 0.54041296
vt 0.4669513 0.6376374
vt 0.78410554 0.54041296
vt 0.46695137 0.4431886
vt 0.36972713 0.54041296
vt 0.78410554 0.540413
vt 0.46695137 0.4431886
vt 0.36972713 0.54041296
vt 0.78410554 0.54041296
vt 0.46695137 0.6376374
vt 0.36972708 0.54041296
vt 0.46695137 0.4431886
vt 0.78410554 0.54041296
vt 0.46695137 0.6376374
vn -0.52209264 0.6442224 0.55892473
vn -0.45135617 0.69561535 -0.55892473
vn -0.29746404 0.7740273 0.5589247
vn -0.21430844 0.80104625 -0.55892473
vn -0.64422226 0.5220928 -0.55892473
vn -0.69561535 0.4513562 0.55892473
vn -0.7740273 0.297464 -0.5589247
vn -0.8010462 0.21430837 0.55892473
vn -0.66381997 0.03168802 -0.74722075
vn -0 0.75633174 0.6541882
vn -0 0.52732795 -0.8496618
vn -0.66381997 -0.031688057 0.74722075
vn -0.80104625 -0.21430841 -0.55892473
vn -0.7740273 -0.297464 0.5589247
vn -0.69561535 -0.45135617 -0.55892473
vn -0.64422226 -0.52209276 0.55892473
vn -0.52209276 -0.64422226 -0.55892473
vn -0.45135626 -0.69561535 0.55892473
vn -0.27570248 -0.8485249 -0.45165655
vn -0.21715043 -0.6683203 0.7114729
vn -0.03168805 -0.66381997 0.74722075
vn 0.03168804 -0.66381997 -0.74722075
vn -0.09905947 0.09905948 0.9901386
vn -0.8010462 0.21430837 0.55892473
vn -0.69561535 0.4513562 0.55892473
vn -0.52209264 0.6442224 0.55892473
vn -0.29746404 0.7740273 0.5589247
vn -0 0.75633174 0.6541882
vn -0.66381997 -0.031688057 0.74722075
vn 0.09905948 0.09905948 0.9901386
vn 0.29746404 0.7740273 0.5589247
vn 0.52209264 0.6442224 0.55892473
vn 0.69561535 0.45135626 0.5589248
vn 0.8010462 0.21430837 0.55892473
vn 0.66381997 -0.031688057 0.74722075
vn -0.7740273 -0.297464 0.5589247
vn -0.09905948 -0.09905948 0.9901386
vn -0.64422226 -0.52209276 0.55892473
vn -0.45135626 -0.69561535 0.55892473
vn -0.21715043 -0.6683203 0.7114729
vn -0.03168805 -0.66381997 0.74722075
vn 0.09905947 -0.09905948 0.9901386
vn 0.7740273 -0.297464 0.5589247
vn 0.21430844 -0.80104625 0.55892473
vn 0.45135626 -0.69561535 0.55892473
vn 0.64422226 -0.52209276 0.55892473
vn -0 0.75633174 0.6541882
vn -0 0.52732795 -0.8496618
vn 0.21430844 0.80104625 -0.55892473
vn 0.29746404 0.7740273 0.5589247
vn 0.45135617 0.69561535 -0.55892473
vn 0.52209264 0.6442224 0.55892473
vn 0.64422226 0.5220928 -0.55892473
vn 0.69561535 0.45135626 0.5589248
vn 0.7740273 0.297464 -0.5589247
vn 0.8010462 0.21430837 0.55892473
vn 0.66381997 0.03168802 -0.74722075
vn 0.66381997 -0.031688057 0.74722075
vn 0.80104625 -0.21430841 -0.55892473
vn 0.7740273 -0.297464 0.5589247
vn 0.69561535 -0.45135617 -0.55892473
vn 0.64422226 -0.52209276 0.55892473
vn 0.52209276 -0.64422226 -0.55892473
vn 0.45135626 -0.69561535 0.55892473
vn 0.29746404 -0.7740273 -0.5589247
vn 0.21430844 -0.80104625 0.55892473
vn 0.03168804 -0.66381997 -0.74722075
vn -0.03168805 -0.66381997 0.74722075
vn -0 0 1
vn -0.66381997 -0.031688057 0.74722075
vn -0.09905947 0.09905948 0.9901386
vn -0.09905948 -0.09905948 0.9901386
vn -0 0.75633174 0.6541882
vn -0 0 1
vn 0.09905948 0.09905948 0.9901386
vn -0 0 1
vn -0.03168805 -0.66381997 0.74722075
vn 0.09905947 -0.09905948 0.9901386
vn -0 0 1
vn 0.66381997 -0.031688057 0.74722075
vn 0.09905947 -0.09905948 0.9901386
vn 0.09905948 0.09905948 0.9901386
vn -0.09905948 0.09905948 -0.9901386
vn -0.64422226 0.5220928 -0.55892473
vn -0.7740273 0.297464 -0.5589247
vn -0.45135617 0.69561535 -0.55892473
vn -0.21430844 0.80104625 -0.55892473
vn -0 0.52732795 -0.8496618
vn -0.66381997 0.03168802 -0.74722075
vn 0.09905948 0.09905948 -0.9901386
vn 0.21430844 0.80104625 -0.55892473
vn 0.45135617 0.69561535 -0.55892473
vn 0.64422226 0.5220928 -0.55892473
vn 0.7740273 0.297464 -0.5589247
vn 0.66381997 0.03168802 -0.74722075
vn -0.80104625 -0.21430841 -0.55892473
vn -0.09905948 -0.09905948 -0.9901386
vn -0.69561535 -0.45135617 -0.55892473
vn -0.52209276 -0.64422226 -0.55892473
vn -0.27570248 -0.8485249 -0.45165655
vn 0.03168804 -0.66381997 -0.74722075
vn 0.09905948 -0.09905948 -0.9901386
vn 0.80104625 -0.21430841 -0.55892473
vn 0.29746404 -0.7740273 -0.5589247
vn 0.52209276 -0.64422226 -0.55892473
vn 0.69561535 -0.45135617 -0.55892473
vn -0 0 -1
vn -0.09905948 0.09905948 -0.9901386
vn -0.66381997 0.03168802 -0.74722075
vn -0.09905948 -0.09905948 -0.9901386
vn -0 0 -1
vn -0 0.52732795 -0.8496618
vn 0.09905948 0.09905948 -0.9901386
vn -0 0 -1
vn 0.03168804 -0.66381997 -0.74722075
vn 0.09905948 -0.09905948 -0.9901386
vn -0 0 -1
vn 0.09905948 -0.09905948 -0.9901386
vn 0.66381997 0.03168802 -0.74722075
vn 0.09905948 0.09905948 -0.9901386
g mesh_0
f 3/3/3 2/2/2 1/1/1
f 2/2/2 3/3/3 4/4/4
f 5/5/5 1/1/1 2/2/2
f 1/1/1 5/5/5 6/6/6
f 7/7/7 6/6/6 5/5/5
f 6/6/6 7/7/7 8/8/8
f 9/9/9 8/8/8 7/7/7
f 10/10/10 4/4/4 3/3/3
f 4/4/4 10/10/10 11/11/11
f 8/8/8 9/9/9 12/12/12
f 13/13/13 12/12/12 9/9/9
f 12/12/12 13/13/13 14/14/14
f 15/15/15 14/14/14 13/13/13
f 14/14/14 15/15/15 16/16/16
f 17/17/17 16/16/16 15/15/15
f 16/16/16 17/17/17 18/18/18
f 19/19/19 18/18/18 17/17/17
f 18/18/18 19/19/19 20/20/20
f 21/21/21 20/20/20 19/19/19
f 19/19/19 22/22/22 21/21/21
f 25/25/25 24/24/24 23/23/23
f 23/23/23 26/26/26 25/25/25
f 27/27/27 26/26/26 23/23/23
f 23/23/23 28/28/28 27/27/27
f 24/24/24 29/29/29 23/23/23
f 31/31/31 28/28/28 30/30/30
f 32/32/32 31/31/31 30/30/30
f 33/33/33 32/32/32 30/30/30
f 30/30/30 34/34/34 33/33/33
f 30/30/30 35/35/35 34/34/34
f 37/37/37 29/29/29 36/36/36
f 37/37/37 36/36/36 38/38/38
f 37/37/37 38/38/38 39/39/39
f 39/39/39 40/40/40 37/37/37
f 40/40/40 41/41/41 37/37/37
f 43/43/43 35/35/35 42/42/42
f 42/42/42 41/41/41 44/44/44
f 42/42/42 44/44/44 45/45/45
f 46/46/46 43/43/43 42/42/42
f 42/42/42 45/45/45 46/46/46
f 49/49/49 48/48/48 47/47/47
f 47/47/47 50/50/50 49/49/49
f 51/51/51 49/49/49 50/50/50
f 50/50/50 52/52/52 51/51/51
f 53/53/53 51/51/51 52/52/52
f 52/52/52 54/54/54 53/53/53
f 55/55/55 53/53/53 54/54/54
f 54/54/54 56/56/56 55/55/55
f 57/57/57 55/55/55 56/56/56
f 56/56/56 58/58/58 57/57/57
f 59/59/59 57/57/57 58/58/58
f 58/58/58 60/60/60 59/59/59
f 61/61/61 59/59/59 60/60/60
f 60/60/60 62/62/62 61/61/61
f 63/63/63 61/61/61 62/62/62
f 62/62/62 64/64/64 63/63/63
f 65/65/65 63/63/63 64/64/64
f 64/64/64 66/66/66 65/65/65
f 67/67/67 65/65/65 66/66/66
f 66/66/66 68/68/68 67/67/67
f 71/71/71 70/70/70 69/69/69
f 69/69/69 70/70/70 72/72/72
f 74/74/74 73/73/73 71/71/71
f 75/75/75 73/73/73 74/74/74
f 72/72/72 77/77/77 76/76/76
f 76/76/76 77/77/77 78/78/78
f 81/81/81 80/80/80 79/79/79
f 79/79/79 80/80/80 82/82/82
f 85/85/85 84/84/84 83/83/83
f 86/86/86 83/83/83 84/84/84
f 86/86/86 87/87/87 83/83/83
f 88/88/88 83/83/83 87/87/87
f 89/89/89 85/85/85 83/83/83
f 88/88/88 91/91/91 90/90/90
f 91/91/91 92/92/92 90/90/90
f 92/92/92 93/93/93 90/90/90
f 94/94/94 90/90/90 93/93/93
f 95/95/95 90/90/90 94/94/94
f 89/89/89 97/97/97 96/96/96
f 96/96/96 97/97/97 98/98/98
f 98/98/98 97/97/97 99/99/99
f 100/100/100 99/99/99 97/97/97
f 101/101/101 100/100/100 97/97/97
f 95/95/95 103/103/103 102/102/102
f 101/101/101 102/102/102 104/104/104
f 104/104/104 102/102/102 105/105/105
f 103/103/103 106/106/106 102/102/102
f 105/105/105 102/102/102 106/106/106
f 109/109/109 108/108/108 107/107/107
f 109/109/109 107/107/107 110/110/110
f 112/112/112 111/111/111 108/108/108
f 112/112/112 113/113/113 111/111/111
f 115/115/115 110/110/110 114/114/114
f 115/115/115 114/114/114 116/116/116
f 119/119/119 118/118/118 117/117/117
f 119/119/119 117/117/117 120/120/120
