g mr_glass
v 7.363231 3.2845666 1.4843423
v 7.363231 1.3813728 1.4843423
v 7.058376 3.2641895 1.3083339
v 5.9907217 1.3813728 0.6919233
v 5.9907217 2.0628877 0.6919233
v 6.643079 3.1804988 1.0731801
v 6.2582955 3.04782 0.84640735
v 5.9907217 2.8844023 0.6919233
v 7.363231 3.2845666 3.54714
v 7.058376 3.2641895 3.723148
v 7.363231 1.3813728 3.54714
v 5.9907217 1.3813728 4.3395586
v 5.9907217 2.0628877 4.3395586
v 6.643079 3.1804988 3.958302
v 6.2582955 3.04782 4.185075
v 5.9907217 2.8844023 4.339559
v -5.5493026 1.1283883 -0.55165
v -5.3541975 1.8300629 -1.6281439
v -5.3541975 1.1276777 -1.6281441
v -5.550567 1.8307736 -0.5436649
v -5.5152926 3.8987217 -0.7373937
v -5.5477853 3.5178654 -0.5322418
v -5.5484715 3.8987217 -0.52791196
v -5.348022 3.5171547 -1.6381476
v -5.4763665 3.99297 -0.98315996
v -5.4538503 4.12025 -1.0753237
v -5.348022 4.1195397 -1.6381476
v -5.28952 3.5171547 -1.8181988
v -4.9711075 4.14454 -2.4431195
v -4.9711075 3.5171547 -2.4431195
v -5.28952 4.1195397 -1.8181988
v -4.898469 4.14454 -2.5856805
v -4.580056 3.5171547 -3.210601
v -4.898469 3.5171547 -2.5856805
v -4.580056 4.16954 -3.210601
v -4.468778 3.5171547 -3.363762
v -3.9728382 4.1945395 -3.8597023
v -3.9728382 3.5171547 -3.8597023
v -4.468778 4.16954 -3.363762
v -3.8597012 4.1945395 -3.9728394
v -3.3637612 3.5171547 -4.46878
v -3.8597012 3.5171547 -3.9728394
v -3.3637612 4.2195396 -4.46878
v -3.2106004 4.2195396 -4.5800576
v -2.5856802 3.5171547 -4.8984704
v -3.2106004 3.5171547 -4.5800576
v -2.5856802 4.2195396 -4.8984704
v -2.4431193 3.5171547 -4.971109
v -1.8181988 4.2195396 -5.2895217
v -1.8181988 3.5171547 -5.2895217
v -2.4431193 4.2195396 -4.971109
v -5.5362334 2.754475 -0.5320421
v -5.348022 3.3571548 -1.6381476
v -5.3380227 2.7537644 -1.6281439
v -5.547497 3.3578656 -0.5340608
v -5.550855 1.9907734 -0.541846
v -5.3380227 2.5937645 -1.6281439
v -5.354197 1.9900627 -1.6281437
v -5.5359454 2.5944753 -0.5338611
v -1.628148 2.7537644 -5.3380203
v -0.5939007 3.3571548 -5.538358
v -0.59416765 2.7537644 -5.526729
v -1.6381474 3.3571548 -5.348024
v -0.59650624 2.5937645 -5.526359
v -1.6443226 1.9900627 -5.3380203
v -1.628148 2.5937645 -5.3380203
v -0.62294716 1.9900627 -5.524732
v -0.6252858 1.8300629 -5.524362
v -1.6443224 1.1276778 -5.3380203
v -1.6443226 1.8300629 -5.3380203
v -0.63555175 1.1276778 -5.5227356
v -5.295695 1.8300629 -1.8081951
v -4.9772825 1.1276778 -2.4331157
v -5.295695 1.1276778 -1.8081951
v -4.9772825 1.8300629 -2.4331157
v -4.9046435 1.8300629 -2.5756767
v -4.5862308 1.1526778 -3.2005975
v -4.9046435 1.1276778 -2.5756767
v -4.5862308 1.8300629 -3.2005975
v -4.474953 1.8300629 -3.3537583
v -3.9790132 1.1526778 -3.8496988
v -4.474953 1.1526778 -3.3537583
v -3.9790132 1.8300629 -3.8496988
v -3.865876 1.8300629 -3.9628358
v -3.369936 1.1526778 -4.458776
v -3.865876 1.1526778 -3.9628358
v -3.369936 1.8300629 -4.458776
v -3.2167752 1.8300629 -4.570054
v -2.5918553 1.1276778 -4.888467
v -3.2167752 1.1526778 -4.570054
v -2.5918553 1.8300629 -4.888467
v -2.4492943 1.8300629 -4.9611053
v -1.8243738 1.1276778 -5.279518
v -2.4492943 1.1276778 -4.9611053
v -1.8243738 1.8300629 -5.279518
v -5.1334014 2.6736088 -2.1256573
v -5.016312 2.0609493 -2.3562512
v -5.255121 2.0609496 -1.8875607
v -5.25049 3.2862682 -1.8950634
v -5.011681 3.286268 -2.3637538
v -4.465694 2.7645097 -3.848528
v -4.499206 2.2333276 -4.246744
v -4.87116 2.2333276 -3.874789
v -4.0608177 3.2956948 -3.821674
v -4.432773 3.2956944 -3.4497192
v -3.780188 2.7143683 -4.3811774
v -3.815179 3.2904918 -4.0514636
v -3.443224 3.2904916 -4.423419
v -4.1171527 2.1382453 -4.3389363
v -3.7451973 2.1382453 -4.7108912
v -2.2399683 2.7137854 -5.333783
v -2.3763409 3.2904313 -5.032012
v -1.90765 3.2904313 -5.270822
v -2.572285 2.137142 -5.3967443
v -2.1035964 2.137142 -5.635553
v -4.74235 2.6736085 -2.893139
v -4.8640704 2.0609493 -2.6550424
v -4.8594394 3.2862682 -2.662545
v -4.625261 2.060949 -3.1237328
v -4.62063 3.2862682 -3.1312356
v -2.9012277 2.6736085 -4.734262
v -3.1378884 2.0609493 -4.6111064
v -3.1332574 3.2862687 -4.618609
v -2.6691985 2.060949 -4.8499155
v -2.6645672 3.286268 -4.857418
v -0.7952139 3.898011 -5.5064735
v -0.5859954 3.898011 -5.5396104
v -0.59156203 3.5171547 -5.538729
v -1.6381474 3.5171547 -5.348024
v -1.6381474 4.2195396 -5.348024
v -1.183144 4.2195396 -5.4450316
v -1.0409805 3.9922593 -5.467548
v -1.6381474 3.5171547 -5.348024
vt 0.43261835 0.7789021
vt 0.43261838 0.5403977
vt 0.38103026 0.77633554
vt 0.20036082 0.5403977
vt 0.20036082 0.6250247
vt 0.31109196 0.76579416
vt 0.24563998 0.7490826
vt 0.20036086 0.7284992
vt 0.43261835 0.7789021
vt 0.38103026 0.77633554
vt 0.43261838 0.5403977
vt 0.20036082 0.5403977
vt 0.20036082 0.6250247
vt 0.31109196 0.76579416
vt 0.24563998 0.7490826
vt 0.20036086 0.7284992
vt 0.008794889 0.5403977
vt 0.45391554 0.8045686
vt 0.45391554 0.5403977
vt 0.008794889 0.8045686
vt 0.08610342 0.1532481
vt 0.0056606387 0.005799503
vt 0.0056606387 0.1532481
vt 0.4549212 0.005799503
vt 0.17714986 0.18816298
vt 0.22981578 0.26914036
vt 0.4549212 0.26914036
vt 0.99348164 0.0057995617
vt 0.7364453 0.26914036
vt 0.7364453 0.0057995617
vt 0.99348164 0.26914036
vt 0.99348164 0.26914036
vt 0.7364453 0.0057995617
vt 0.99348164 0.0057995617
vt 0.7364453 0.26914036
vt 0.7171651 0.0057995617
vt 0.4596038 0.26914036
vt 0.4596038 0.0057995617
vt 0.7171651 0.26914036
vt 0.7364453 0.26914036
vt 0.99348164 0.0057995617
vt 0.7364453 0.0057995617
vt 0.99348164 0.26914036
vt 0.4596038 0.26914036
vt 0.7171651 0.005799502
vt 0.4596038 0.0057994723
vt 0.7171651 0.26914036
vt 0.4596038 0.0057996213
vt 0.7171651 0.26914036
vt 0.7171651 0.0057995617
vt 0.4596038 0.26914036
vt 0.008794889 0.5403977
vt 0.45391554 0.8045686
vt 0.45391554 0.5403977
vt 0.008794889 0.8045686
vt 0.008794889 0.27977178
vt 0.45391554 0.53703314
vt 0.45391554 0.27977178
vt 0.008794889 0.53703314
vt 0.45391554 0.27977178
vt 0.008794904 0.53703314
vt 0.008794904 0.27977178
vt 0.45391554 0.53703314
vt 0.008794889 0.53703314
vt 0.45391554 0.27977178
vt 0.45391554 0.53703314
vt 0.008794889 0.27977178
vt 0.008794889 0.53703314
vt 0.45391554 0.27977178
vt 0.45391554 0.53703314
vt 0.008794889 0.27977178
vt 0.99348164 0.26914036
vt 0.7364453 0.0057995617
vt 0.99348164 0.0057995617
vt 0.7364453 0.26914036
vt 0.7173072 0.26914036
vt 0.4596038 0.005799503
vt 0.7173072 0.005799503
vt 0.4596038 0.26914036
vt 0.99348164 0.26914036
vt 0.7364453 0.005799502
vt 0.99348164 0.005799502
vt 0.7364453 0.26914036
vt 0.4596038 0.26914036
vt 0.7173072 0.005799503
vt 0.4596038 0.005799503
vt 0.7173072 0.26914036
vt 0.7364453 0.26914036
vt 0.99348164 0.0057995617
vt 0.7364453 0.0057995617
vt 0.99348164 0.26914036
vt 0.7364453 0.26914036
vt 0.99348164 0.0057995617
vt 0.7364453 0.0057995617
vt 0.99348164 0.26914036
vt 0.58802056 0.5415811
vt 0.68788743 0.3032605
vt 0.4870181 0.3032605
vt 0.4870181 0.78096473
vt 0.6878872 0.7809646
vt 0.5880204 0.5415813
vt 0.68788713 0.3032605
vt 0.4870181 0.3032605
vt 0.6878873 0.78096473
vt 0.4870181 0.78096485
vt 0.8645353 0.54158103
vt 0.9707846 0.78096473
vt 0.76131296 0.78096473
vt 0.9707846 0.3032605
vt 0.76131296 0.3032605
vt 0.8645351 0.5415803
vt 0.9707846 0.7809644
vt 0.76131296 0.78096443
vt 0.9707846 0.3032605
vt 0.76131296 0.3032605
vt 0.8646829 0.54158103
vt 0.9707846 0.3032605
vt 0.9707846 0.78096473
vt 0.76131296 0.3032605
vt 0.76131296 0.78096473
vt 0.5884771 0.5415811
vt 0.6880014 0.3032605
vt 0.6880015 0.78096485
vt 0.4870181 0.3032605
vt 0.4870181 0.78096473
vt 0.08610342 0.1532481
vt 0.0056606387 0.1532481
vt 0.0056606387 0.005799503
vt 0.4549212 0.005799503
vt 0.4549212 0.26914036
vt 0.22981578 0.26914036
vt 0.17714986 0.18816298
vt 0.4549212 0.005799503
vn -0.5000001 0 0.8660253
vn -0.5000001 0 0.8660253
vn -0.4977844 -0.0026213024 0.8672969
vn -0.5000001 0 0.8660253
vn -0.4999248 -0.0018470914 0.8660669
vn -0.49984777 -0.003694389 0.86610544
vn -0.5042692 0.0015484798 0.8635451
vn -0.5000004 0 0.8660252
vn -0.49999946 0 -0.86602575
vn -0.4977848 -0.002621364 -0.86729664
vn -0.4999995 0 -0.8660257
vn -0.5000004 0 -0.8660252
vn -0.4999254 -0.0018467855 -0.86606646
vn -0.49984813 -0.003694001 -0.8661052
vn -0.5042692 0.0015490865 -0.8635451
vn -0.5000009 0 -0.8660249
vn 0.9839843 -0.00012800276 0.17825532
vn 0.9839843 -0.00012800276 0.17825532
vn 0.9839843 -0.00012800276 0.17825532
vn 0.9839843 -0.00012800276 0.17825532
vn 0.98572624 0.015043704 0.16768293
vn 0.98592246 0.0058955303 0.1670993
vn 0.987688 0 0.15643655
vn 0.9827464 0.0056743147 0.18487121
vn 0.98206323 0.005453203 0.18847302
vn 0.9804635 -0.01121892 0.19638085
vn 0.9827776 0 0.18479246
vn 0.89100695 0 0.45398968
vn 0.89100695 0 0.45398968
vn 0.89100695 0 0.45398968
vn 0.89100695 0 0.45398968
vn 0.89100665 0 0.45399022
vn 0.89100665 0 0.45399022
vn 0.89100665 0 0.45399022
vn 0.89100665 0 0.45399022
vn 0.70710725 0 0.7071063
vn 0.70710725 0 0.7071063
vn 0.70710725 0 0.7071063
vn 0.70710725 0 0.7071063
vn 0.707107 0 0.70710653
vn 0.707107 0 0.70710653
vn 0.707107 0 0.70710653
vn 0.707107 0 0.70710653
vn 0.45399076 0 0.89100635
vn 0.45399076 0 0.89100635
vn 0.45399076 0 0.89100635
vn 0.45399076 0 0.89100635
vn 0.4539905 0 0.8910065
vn 0.4539905 0 0.8910065
vn 0.4539905 0 0.8910065
vn 0.4539905 0 0.8910065
vn 0.9838768 0.019107766 0.17782402
vn 0.9838768 0.019107766 0.17782402
vn 0.9838768 0.019107766 0.17782402
vn 0.9838768 0.019107766 0.17782402
vn 0.9836709 -0.02650266 0.17801453
vn 0.9836709 -0.02650266 0.17801453
vn 0.9836709 -0.02650266 0.17801453
vn 0.9836709 -0.02650266 0.17801453
vn 0.17939512 0.019078963 0.98359203
vn 0.17939512 0.019078963 0.98359203
vn 0.17939512 0.019078963 0.98359203
vn 0.17939512 0.019078963 0.98359203
vn 0.17970611 -0.00501756 0.98370755
vn 0.17970611 -0.00501756 0.98370755
vn 0.17970611 -0.00501756 0.98370755
vn 0.17970611 -0.00501756 0.98370755
vn 0.17999575 -0.00017638603 0.9836674
vn 0.17999575 -0.00017638603 0.9836674
vn 0.17999575 -0.00017638603 0.9836674
vn 0.17999575 -0.00017638603 0.9836674
vn 0.8910069 0 0.45398974
vn 0.8910069 0 0.45398974
vn 0.8910069 0 0.45398974
vn 0.8910069 0 0.45398974
vn 0.8910066 0 0.4539904
vn 0.8910066 0 0.4539904
vn 0.8910066 0 0.4539904
vn 0.8910066 0 0.4539904
vn 0.70710695 0 0.7071066
vn 0.70710695 0 0.7071066
vn 0.70710695 0 0.7071066
vn 0.70710695 0 0.7071066
vn 0.70710677 0 0.70710677
vn 0.70710677 0 0.70710677
vn 0.70710677 0 0.70710677
vn 0.70710677 0 0.70710677
vn 0.45399076 0 0.89100635
vn 0.45399076 0 0.89100635
vn 0.45399076 0 0.89100635
vn 0.45399076 0 0.89100635
vn 0.45399037 0 0.89100665
vn 0.45399037 0 0.89100665
vn 0.45399037 0 0.89100665
vn 0.45399037 0 0.89100665
vn 0.89100677 -0.0005879361 0.45398965
vn 0.89100665 -0.0005880545 0.45398983
vn 0.8910067 -0.0005880543 0.4539897
vn 0.8910068 -0.0005878177 0.4539895
vn 0.89100677 -0.00058781775 0.4539896
vn 0.6130708 -0.49828476 0.61307144
vn 0.6130711 -0.49828503 0.61307096
vn 0.6130704 -0.49828497 0.6130715
vn 0.613071 -0.49828452 0.6130713
vn 0.6130704 -0.4982845 0.61307186
vn 0.66494054 -0.34015858 0.6649407
vn 0.66494125 -0.34015855 0.6649401
vn 0.6649407 -0.34015858 0.66494054
vn 0.6649405 -0.34015867 0.6649408
vn 0.66494 -0.34015876 0.6649412
vn 0.42730114 -0.3378173 0.83862585
vn 0.42730036 -0.33781755 0.8386261
vn 0.4273018 -0.33781707 0.83862555
vn 0.42730045 -0.3378175 0.8386261
vn 0.42730188 -0.337817 0.83862555
vn 0.89100647 -0.00058769895 0.45399013
vn 0.8910065 -0.0005878177 0.45399004
vn 0.89100665 -0.0005875807 0.45398983
vn 0.89100635 -0.0005878172 0.4539905
vn 0.89100647 -0.00058758026 0.45399028
vn 0.45398694 0.0037397684 0.89100045
vn 0.4539867 0.0037397107 0.89100057
vn 0.4539864 0.0037398264 0.89100075
vn 0.4539876 0.0037397102 0.89100015
vn 0.4539872 0.0037398254 0.89100033
vn 0.15643604 -1.2412181E-06 0.98768806
vn 0.15643604 -1.2412181E-06 0.98768806
vn 0.15643604 -1.2412181E-06 0.98768806
vn 0.20851718 0 0.9780187
vn 0.20851718 0 0.9780187
vn 0.20851718 0 0.9780187
vn 0.18309394 0.017148223 0.9829458
vn 0.16937612 0.034888383 0.98493373
g mr_glass_0
f 3/3/3 2/2/2 1/1/1
f 3/3/3 4/4/4 2/2/2
f 3/3/3 5/5/5 4/4/4
f 6/6/6 5/5/5 3/3/3
f 7/7/7 5/5/5 6/6/6
f 7/7/7 8/8/8 5/5/5
f 11/11/11 10/10/10 9/9/9
f 12/12/12 10/10/10 11/11/11
f 13/13/13 10/10/10 12/12/12
f 13/13/13 14/14/14 10/10/10
f 13/13/13 15/15/15 14/14/14
f 16/16/16 15/15/15 13/13/13
f 19/19/19 18/18/18 17/17/17
f 18/18/18 20/20/20 17/17/17
f 23/23/23 22/22/22 21/21/21
f 24/24/24 21/21/21 22/22/22
f 21/21/21 24/24/24 25/25/25
f 25/25/25 24/24/24 26/26/26
f 27/27/27 26/26/26 24/24/24
f 30/30/30 29/29/29 28/28/28
f 29/29/29 31/31/31 28/28/28
f 34/34/34 33/33/33 32/32/32
f 33/33/33 35/35/35 32/32/32
f 38/38/38 37/37/37 36/36/36
f 37/37/37 39/39/39 36/36/36
f 42/42/42 41/41/41 40/40/40
f 41/41/41 43/43/43 40/40/40
f 46/46/46 45/45/45 44/44/44
f 45/45/45 47/47/47 44/44/44
f 50/50/50 49/49/49 48/48/48
f 49/49/49 51/51/51 48/48/48
f 54/54/54 53/53/53 52/52/52
f 53/53/53 55/55/55 52/52/52
f 58/58/58 57/57/57 56/56/56
f 57/57/57 59/59/59 56/56/56
f 62/62/62 61/61/61 60/60/60
f 61/61/61 63/63/63 60/60/60
f 66/66/66 65/65/65 64/64/64
f 65/65/65 67/67/67 64/64/64
f 70/70/70 69/69/69 68/68/68
f 69/69/69 71/71/71 68/68/68
f 74/74/74 73/73/73 72/72/72
f 73/73/73 75/75/75 72/72/72
f 78/78/78 77/77/77 76/76/76
f 77/77/77 79/79/79 76/76/76
f 82/82/82 81/81/81 80/80/80
f 81/81/81 83/83/83 80/80/80
f 86/86/86 85/85/85 84/84/84
f 85/85/85 87/87/87 84/84/84
f 90/90/90 89/89/89 88/88/88
f 89/89/89 91/91/91 88/88/88
f 94/94/94 93/93/93 92/92/92
f 93/93/93 95/95/95 92/92/92
f 98/98/98 97/97/97 96/96/96
f 98/98/98 96/96/96 99/99/99
f 97/97/97 100/100/100 96/96/96
f 100/100/100 99/99/99 96/96/96
f 103/103/103 102/102/102 101/101/101
f 102/102/102 104/104/104 101/101/101
f 104/104/104 105/105/105 101/101/101
f 105/105/105 103/103/103 101/101/101
f 108/108/108 107/107/107 106/106/106
f 107/107/107 109/109/109 106/106/106
f 109/109/109 110/110/110 106/106/106
f 110/110/110 108/108/108 106/106/106
f 113/113/113 112/112/112 111/111/111
f 112/112/112 114/114/114 111/111/111
f 114/114/114 115/115/115 111/111/111
f 115/115/115 113/113/113 111/111/111
f 118/118/118 117/117/117 116/116/116
f 117/117/117 119/119/119 116/116/116
f 119/119/119 120/120/120 116/116/116
f 120/120/120 118/118/118 116/116/116
f 123/123/123 122/122/122 121/121/121
f 122/122/122 124/124/124 121/121/121
f 124/124/124 125/125/125 121/121/121
f 125/125/125 123/123/123 121/121/121
f 128/128/128 127/127/127 126/126/126
f 129/129/129 128/128/128 126/126/126
f 131/131/131 130/130/130 129/129/129
f 129/129/129 132/132/132 131/131/131
f 126/126/126 132/132/132 133/133/133
