g mr_ivy_01
v -10.622205 3.815165 0.6795021
v -10.946727 3.25579 0.37349206
v -10.932792 3.81829 0.46992683
v -10.631981 3.252665 0.5825569
v -11.259006 3.29329 0.47349665
v -11.243596 3.85579 0.56970674
v -11.5544 3.93079 0.669487
v -11.565767 3.36829 0.5727162
v -11.886654 4.0479774 0.6879616
v -11.88571 3.4854774 0.59053004
v -12.2479315 3.64954 0.54738426
v -12.26181 4.21204 0.6438271
v -12.658418 4.39954 0.56838685
v -12.64021 3.83704 0.47266695
v -10.317556 3.28079 0.66050607
v -10.312049 3.84329 0.75778735
v -10.006038 3.3432903 0.6480698
v -10.0021105 3.90579 0.7454281
v -9.692172 4.00579 0.63306886
v -9.69612 3.4432905 0.53571016
v -9.308724 3.4963193 0.3702614
v -9.304748 4.0648127 0.46761933
v -8.762354 4.038158 0.6459904
v -8.765205 3.4659803 0.54859316
v -7.987706 3.9529564 0.6336838
v -7.9880195 3.3752942 0.5362484
v -7.987706 3.9529564 0.6336838
v -6.901569 3.2370636 0.3487854
v -7.9880195 3.3752942 0.5362484
v -6.90352 3.8500557 0.44620058
v -5.885259 3.877063 0.6757645
v -5.8618765 3.303458 0.57843554
v -5.2340045 3.3740888 0.61716694
v -5.3083863 3.9400494 0.7145996
v -4.931194 4.01301 0.5362278
v -4.8449416 3.4978719 0.39251938
v -4.64513 3.819058 0.08637352
v -4.6619744 4.287865 0.3141716
v -4.5203223 4.2415347 -0.30646974
v -4.442801 4.600338 0.13752137
v 1.3509105 4.553437 -4.1529994
v 1.8177105 5.0786276 -3.7526815
v 1.9053377 4.5097194 -3.890007
v 1.3010206 5.1158347 -4.006162
v 2.2331946 5.1007276 -3.4243386
v 2.348691 4.5302563 -3.54282
v 0.6580766 5.247476 -4.2101398
v 0.68514395 4.6881433 -4.362721
v 0.0017107337 4.830721 -4.3670945
v -0.00070462393 5.3879023 -4.2122197
v 2.6271381 4.6031036 -3.1308308
v 2.4869924 5.1728683 -3.0457764
v 2.7679248 4.695159 -2.622579
v 2.6192214 5.261925 -2.5738888
v -1.350201 4.868068 -4.253142
v -0.65928286 5.44799 -4.1600084
v -0.6824791 4.89025 -4.313076
v -1.3017788 5.427214 -4.105996
v 0.0017107337 4.830721 -4.3670945
v -0.00070462393 5.3879023 -4.2122197
v -1.9123133 5.25552 -3.752674
v -1.9837888 4.69357 -3.8902135
v -2.6677172 4.5011554 -3.482542
v -2.5761738 5.067181 -3.3574617
v -3.2286477 4.9568663 -2.9277787
v -3.3376634 4.3906126 -3.037975
v -3.7329423 4.3781977 -2.5662048
v -3.608796 4.9430294 -2.4735067
v 2.7679248 4.695159 -2.622579
v 2.6557817 5.34954 -1.9655707
v 2.8060174 4.78703 -2.0034654
v 2.6192214 5.261925 -2.5738888
v 2.8293998 5.40579 -1.3793066
v 2.9668922 4.843295 -1.4507592
v 3.34752 4.8407006 -1.0795568
v 3.2407396 5.4013186 -0.97358125
v 3.6688771 4.7903986 -0.6933355
v 3.5494823 5.3525767 -0.5956254
v 3.934586 5.2409344 -0.29266956
v 4.087564 4.6749816 -0.3567622
v 4.234056 5.1265407 0.03396101
v 4.403351 4.558523 -0.002995363
v 4.497606 4.4899397 0.66229385
v 4.3280582 5.057144 0.6829411
v 4.4065924 4.4932857 1.2833036
v 4.2519784 5.05579 1.293096
v 4.448461 5.246415 7.4794297
v 4.337281 4.53704 6.8664675
v 4.182549 5.09954 6.8584113
v 4.602823 4.683915 7.4928203
v 4.3679876 4.38704 6.2502594
v 4.2135806 4.94954 6.2373986
v 4.3821125 4.89954 5.616386
v 4.5363564 4.33704 5.631072
v 4.5319467 4.940165 4.9955034
v 4.6868396 4.377665 4.9993834
v 4.4241443 4.72454 8.122378
v 4.270761 5.28704 8.100458
v 4.3242455 4.64954 8.746005
v 4.1712556 5.21204 8.721492
v 4.07175 5.01204 9.3425255
v 4.22474 4.44954 9.367039
v 4.375234 4.18704 9.988072
v 4.2222443 4.74954 9.963559
v 4.4065924 4.4932857 1.2833036
v 4.320044 5.13704 1.9032507
v 4.4749565 4.5745363 1.9010781
v 4.2519784 5.05579 1.293096
v 4.5164084 5.21829 2.5159898
v 4.671337 4.655788 2.5175812
v 4.6118097 4.6745396 3.1342816
v 4.4568686 5.23704 3.1338975
v 4.6679263 4.62454 3.7477562
v 4.5131273 5.18704 3.7543893
v 4.5568857 5.06204 4.3748813
v 4.7116055 4.49954 4.3665957
v 4.5319467 4.940165 4.9955034
v 4.6868396 4.377665 4.9993834
v -4.3517737 4.972245 7.477562
v -4.574267 4.35226 8.120939
v -4.4209247 4.918029 8.098738
v -4.5058966 4.406512 7.493484
v -4.3243556 4.4041247 8.744849
v -4.1713643 4.968253 8.720345
v -4.4998884 4.59914 6.8661957
v -4.345203 5.1636987 6.8572516
v -4.5747395 4.7980704 6.2436366
v -4.419922 5.361024 6.2373734
v -4.494641 5.4332824 5.617495
v -4.649521 4.870632 5.6219444
v -4.4569473 5.396415 4.8428473
v -4.6118884 4.833915 4.8431544
v -4.071804 5.11204 9.341952
v -4.224796 4.54954 9.366456
v -3.9722443 5.29954 9.963559
v -4.125236 4.73704 9.988063
v -4.4569473 5.396415 4.8428473
v -4.599358 4.621603 3.7566688
v -4.6118884 4.833915 4.8431544
v -4.444431 5.184187 3.7586617
v -4.578999 4.9269934 2.676356
v -4.733939 4.362035 2.6757467
v -4.4874873 4.125322 1.9094719
v -4.3325615 4.6904697 1.9073485
v -4.3456216 4.5302315 1.2949902
v -4.500528 3.9647872 1.2982349
v -4.152517 4.5501714 -1.4290694
v -3.7556787 5.0287375 -1.9045277
v -3.8909855 4.468263 -1.9798701
v -4.0102916 5.108383 -1.3676869
v -3.7329423 4.3781977 -2.5662048
v -3.608796 4.9430294 -2.4735067
v -4.1636314 5.109115 -0.9598284
v -4.3104606 4.550529 -1.0092427
v -4.4146886 4.4460325 -0.66108674
v -4.266335 5.0059237 -0.61646116
v -4.3690386 4.802732 -0.2730938
v -4.5203223 4.2415347 -0.30646965
v -4.442801 4.600338 0.13752134
v -4.5971456 4.038162 0.12403192
v -4.6136227 3.9370391 0.6822142
v -4.4586816 4.49954 0.6826319
v -4.3456216 4.5302315 1.2949902
v -4.500528 3.9647872 1.2982349
vt 0.40825912 0.73188055
vt 0.49608064 0.6987561
vt 0.40825912 0.69519126
vt 0.49608064 0.7306013
vt 0.49608064 0.6672045
vt 0.40825912 0.6578433
vt 0.40825912 0.6204953
vt 0.49608064 0.63565296
vt 0.40825912 0.5823748
vt 0.49608064 0.5992605
vt 0.49608064 0.5531863
vt 0.40825912 0.54270923
vt 0.40825912 0.5022712
vt 0.49608064 0.5022712
vt 0.49608064 0.76303375
vt 0.40825912 0.7672523
vt 0.49608064 0.7957598
vt 0.40825912 0.8019655
vt 0.40825912 0.8366786
vt 0.49608064 0.8284859
vt 0.49608064 0.8698437
vt 0.40825912 0.87825423
vt 0.40825912 0.9335548
vt 0.49608064 0.92846495
vt 0.40825912 0.9957179
vt 0.49608064 0.9957179
vt 0.40825912 0.5022712
vt 0.49608064 0.6581582
vt 0.49608064 0.5022712
vt 0.40825912 0.65855455
vt 0.40825912 0.78817964
vt 0.49608064 0.78658766
vt 0.49608064 0.8601018
vt 0.40825912 0.8644882
vt 0.40825912 0.91192335
vt 0.49608064 0.9058392
vt 0.49608064 0.9509381
vt 0.40825912 0.95492816
vt 0.49608064 0.9957179
vt 0.40825912 0.9957179
vt 0.4960806 0.6889452
vt 0.40825912 0.7783538
vt 0.4960806 0.778046
vt 0.40825912 0.6845585
vt 0.40825912 0.86480933
vt 0.4960806 0.85988396
vt 0.40825912 0.59288454
vt 0.4960806 0.59645545
vt 0.49608064 0.5022712
vt 0.40825912 0.5022712
vt 0.4960806 0.93058515
vt 0.40825912 0.93446386
vt 0.49608064 0.9957179
vt 0.40825912 0.9957179
vt 0.4960806 0.82789594
vt 0.40825912 0.91476965
vt 0.4960806 0.9109919
vt 0.40825912 0.8328049
vt 0.49608064 0.9957179
vt 0.40825912 0.9957179
vt 0.40825912 0.7488073
vt 0.4960806 0.74806005
vt 0.4960806 0.6684578
vt 0.40825912 0.6648565
vt 0.40825912 0.58303225
vt 0.4960806 0.58606267
vt 0.49608064 0.5022712
vt 0.40825912 0.5022712
vt 0.49608064 0.5022712
vt 0.40825912 0.5785928
vt 0.4960806 0.57763946
vt 0.40825912 0.5022712
vt 0.40825912 0.6495373
vt 0.4960806 0.6490624
vt 0.4960806 0.7125945
vt 0.40825912 0.709728
vt 0.4960806 0.76875055
vt 0.40825912 0.7622725
vt 0.40825912 0.81027853
vt 0.4960806 0.81804514
vt 0.40825912 0.862044
vt 0.4960806 0.8689191
vt 0.4960806 0.9298134
vt 0.40825912 0.9258666
vt 0.49608064 0.9957179
vt 0.40825912 0.9957179
vt 0.40825912 0.75028837
vt 0.4960806 0.6817515
vt 0.40825912 0.6895249
vt 0.4960806 0.7451651
vt 0.4960806 0.620052
vt 0.40825912 0.62715656
vt 0.40825912 0.56472874
vt 0.4960806 0.5605997
vt 0.40825912 0.5022712
vt 0.49608064 0.5022712
vt 0.4960806 0.8097596
vt 0.40825912 0.8079015
vt 0.4960806 0.8737449
vt 0.40825912 0.86640227
vt 0.40825912 0.92982864
vt 0.4960806 0.93533117
vt 0.49608064 0.9957179
vt 0.40825912 0.9957179
vt 0.49608064 0.5022712
vt 0.40825912 0.5846361
vt 0.4960806 0.58202183
vt 0.40825912 0.5022712
vt 0.40825912 0.66596967
vt 0.4960806 0.6632555
vt 0.4960806 0.74745506
vt 0.40825912 0.7452404
vt 0.4960806 0.8320395
vt 0.40825912 0.8254497
vt 0.40825912 0.9095988
vt 0.4960806 0.91442776
vt 0.40825912 0.9957179
vt 0.49608064 0.9957179
vt 0.40825912 0.7524587
vt 0.49608064 0.6880862
vt 0.40825912 0.68760175
vt 0.49608064 0.74636674
vt 0.49608064 0.62948054
vt 0.40825912 0.62371874
vt 0.49608064 0.8079963
vt 0.40825912 0.816736
vt 0.49608064 0.8710265
vt 0.40825912 0.8791009
vt 0.40825912 0.9382207
vt 0.49608064 0.9335091
vt 0.40825912 0.9957179
vt 0.49608064 0.9957179
vt 0.40825912 0.5623631
vt 0.49608064 0.5668757
vt 0.40825912 0.5022712
vt 0.49608064 0.5022712
vt 0.40825912 0.5022712
vt 0.49608064 0.6706884
vt 0.49608064 0.5022712
vt 0.40825912 0.6623304
vt 0.40825912 0.80404085
vt 0.49608064 0.81657785
vt 0.49608064 0.91741174
vt 0.40825912 0.90905374
vt 0.40825912 0.9957179
vt 0.49608064 0.9957179
vt 0.4960806 0.8438089
vt 0.40825912 0.9193278
vt 0.4960806 0.9162024
vt 0.40825912 0.85233516
vt 0.49608064 0.9957179
vt 0.40825912 0.9957179
vt 0.40825912 0.80413747
vt 0.4960806 0.7856592
vt 0.4960806 0.7349401
vt 0.40825912 0.7611763
vt 0.40825912 0.7098933
vt 0.4960806 0.6848385
vt 0.40825912 0.64928806
vt 0.4960806 0.63089705
vt 0.4960806 0.56865835
vt 0.40825912 0.57836026
vt 0.40825912 0.5022712
vt 0.49608064 0.5022712
vn -0.39536697 -0.14869791 0.9064071
vn -0.14897008 -0.16489461 0.97499627
vn -0.14897008 -0.16489461 0.97499627
vn -0.39536697 -0.14869791 0.9064071
vn 0.27363428 -0.16911499 0.9468497
vn 0.27363428 -0.16911499 0.9468497
vn 0.13049828 -0.17120887 0.97655404
vn 0.13049828 -0.17120887 0.97655404
vn -0.09843748 -0.17033589 0.9804569
vn -0.09843748 -0.17033589 0.9804569
vn -0.22580478 -0.16957892 0.9592993
vn -0.22580478 -0.16957892 0.9592993
vn -0.26154578 -0.16975509 0.9501458
vn -0.26154578 -0.16975509 0.9501458
vn -0.076914124 -0.16859947 0.9826792
vn -0.076914124 -0.16859947 0.9826792
vn 0.23052458 -0.16753626 0.9585354
vn 0.23052458 -0.16753626 0.9585354
vn 0.3944103 -0.15900205 0.90507394
vn 0.3944103 -0.15900205 0.90507394
vn 0.04902305 -0.16927056 0.9843496
vn 0.04902305 -0.16927056 0.9843496
vn -0.16148709 -0.1645308 0.97306293
vn -0.16148709 -0.1645308 0.97306293
vn 0.073990874 -0.16374235 0.9837245
vn 0.073990874 -0.16374235 0.9837245
vn 0.073990874 -0.16374235 0.9837245
vn -0.028985148 -0.1637515 0.9860757
vn 0.073990874 -0.16374235 0.9837245
vn -0.028985148 -0.1637515 0.9860757
vn -0.12649399 -0.16793591 0.9776486
vn -0.12649399 -0.16793591 0.9776486
vn 0.22968712 -0.15217517 0.9612942
vn 0.22968712 -0.15217517 0.9612942
vn 0.6642101 -0.12898578 0.7363339
vn 0.6642101 -0.12898578 0.7363339
vn 0.89029664 -0.19817004 0.41000056
vn 0.89029664 -0.19817004 0.41000056
vn 0.93754864 -0.25806782 0.23324572
vn 0.93754864 -0.25806782 0.23324572
vn -0.3874995 -0.26686934 0.8823972
vn -0.51235557 -0.27325433 0.8141399
vn -0.51235557 -0.27325433 0.8141399
vn -0.3874995 -0.26686934 0.8823972
vn -0.68572897 -0.27793986 0.6726999
vn -0.68572897 -0.27793986 0.6726999
vn -0.20205322 -0.26810333 0.9419634
vn -0.20205322 -0.26810333 0.9419634
vn -0.0042295665 -0.26706028 0.96367055
vn -0.0042295665 -0.26706028 0.96367055
vn -0.85348946 -0.27486953 0.44272164
vn -0.85348946 -0.27486953 0.44272164
vn -0.94255835 -0.26637968 0.20155805
vn -0.94255835 -0.26637968 0.20155805
vn 0.3226999 -0.2701711 0.9071231
vn 0.07227511 -0.26543188 0.9614168
vn 0.07227511 -0.26543188 0.9614168
vn 0.3226999 -0.2701711 0.9071231
vn -0.0042295665 -0.26706028 0.96367055
vn -0.0042295665 -0.26706028 0.96367055
vn 0.5413945 -0.26262477 0.79869914
vn 0.5413945 -0.26262477 0.79869914
vn 0.5549438 -0.26328087 0.78912646
vn 0.5549438 -0.26328087 0.78912646
vn 0.6578352 -0.26507115 0.7049754
vn 0.6578352 -0.26507115 0.7049754
vn 0.84923434 -0.26423255 0.4571458
vn 0.84923434 -0.26423255 0.4571458
vn -0.94255835 -0.26637968 0.20155805
vn -0.9441563 -0.26396987 0.19720252
vn -0.9441563 -0.26396987 0.19720252
vn -0.94255835 -0.26637968 0.20155805
vn -0.8201965 -0.26712555 0.5058869
vn -0.8201965 -0.26712555 0.5058869
vn -0.7210391 -0.25918627 0.6425925
vn -0.7210391 -0.25918627 0.6425925
vn -0.70569503 -0.26089975 0.65873045
vn -0.70569503 -0.26089975 0.65873045
vn -0.7040802 -0.26457292 0.6589933
vn -0.7040802 -0.26457292 0.6589933
vn -0.88586056 -0.28903627 0.36291748
vn -0.88586056 -0.28903627 0.36291748
vn -0.95940906 -0.2817772 -0.011658766
vn -0.95940906 -0.2817772 -0.011658766
vn -0.9629465 -0.26962572 0.006005301
vn -0.9629465 -0.26962572 0.006005301
vn -0.9601186 -0.26301873 0.094833836
vn -0.94026625 -0.2540415 0.22663258
vn -0.94026625 -0.2540415 0.22663258
vn -0.9601186 -0.26301873 0.094833836
vn -0.9578197 -0.2657222 -0.10942176
vn -0.9578197 -0.2657222 -0.10942176
vn -0.93556285 -0.26172328 -0.23711398
vn -0.93556285 -0.26172328 -0.23711398
vn -0.95040536 -0.26318324 -0.16572332
vn -0.95040536 -0.26318324 -0.16572332
vn -0.93990916 -0.2642309 -0.21622387
vn -0.93990916 -0.2642309 -0.21622387
vn -0.9412124 -0.26507318 -0.2094169
vn -0.9412124 -0.26507318 -0.2094169
vn -0.9627947 -0.26431438 -0.05625076
vn -0.9627947 -0.26431438 -0.05625076
vn -0.9588087 -0.25535753 0.12441243
vn -0.9588087 -0.25535753 0.12441243
vn -0.9629465 -0.26962572 0.006005301
vn -0.93720204 -0.25882098 0.23380351
vn -0.93720204 -0.25882098 0.23380351
vn -0.9629465 -0.26962572 0.006005301
vn -0.9567838 -0.26368564 0.1226159
vn -0.9567838 -0.26368564 0.1226159
vn -0.96400344 -0.26572803 -0.009272268
vn -0.96400344 -0.26572803 -0.009272268
vn -0.9632945 -0.26540402 0.040303975
vn -0.9632945 -0.26540402 0.040303975
vn -0.9635048 -0.2650482 -0.037522487
vn -0.9635048 -0.2650482 -0.037522487
vn -0.95040536 -0.26318324 -0.16572332
vn -0.95040536 -0.26318324 -0.16572332
vn 0.9649667 -0.26230526 0.005935886
vn 0.9551764 -0.26504493 -0.13186836
vn 0.9551764 -0.26504493 -0.13186836
vn 0.9649667 -0.26230526 0.005935886
vn 0.9394465 -0.26405942 -0.21843262
vn 0.9394465 -0.26405942 -0.21843262
vn 0.95514864 -0.26369098 -0.13475248
vn 0.95514864 -0.26369098 -0.13475248
vn 0.9494458 -0.26295206 -0.17149034
vn 0.9494458 -0.26295206 -0.17149034
vn 0.96308863 -0.26566058 -0.04341298
vn 0.96308863 -0.26566058 -0.04341298
vn 0.9623294 -0.2649362 0.061081182
vn 0.9623294 -0.2649362 0.061081182
vn 0.9607292 -0.2647349 -0.08315633
vn 0.9607292 -0.2647349 -0.08315633
vn 0.96146715 -0.26473415 -0.074139774
vn 0.96146715 -0.26473415 -0.074139774
vn 0.9623294 -0.2649362 0.061081182
vn 0.9641764 -0.26524293 0.0031742097
vn 0.9623294 -0.2649362 0.061081182
vn 0.9641764 -0.26524293 0.0031742097
vn 0.95238674 -0.26112795 0.15739012
vn 0.95238674 -0.26112795 0.15739012
vn 0.943192 -0.25817904 0.20912285
vn 0.943192 -0.25817904 0.20912285
vn 0.9627494 -0.26423886 -0.057369955
vn 0.9627494 -0.26423886 -0.057369955
vn 0.87982434 -0.26724818 0.3930491
vn 0.89318705 -0.26197508 0.36549416
vn 0.89318705 -0.26197508 0.36549416
vn 0.87982434 -0.26724818 0.3930491
vn 0.84923434 -0.26423255 0.4571458
vn 0.84923434 -0.26423255 0.4571458
vn 0.9246007 -0.26712346 0.27158523
vn 0.9246007 -0.26712346 0.27158523
vn 0.94966614 -0.26529503 0.16659164
vn 0.94966614 -0.26529503 0.16659164
vn 0.96036583 -0.26448488 0.088007025
vn 0.96036583 -0.26448488 0.088007025
vn 0.9642831 -0.2645799 0.012470965
vn 0.9642831 -0.2645799 0.012470965
vn 0.9601605 -0.263981 -0.0916832
vn 0.9601605 -0.263981 -0.0916832
vn 0.9627494 -0.26423886 -0.057369955
vn 0.9627494 -0.26423886 -0.057369955
g mr_ivy_01_0
f 3/3/3 2/2/2 1/1/1
f 2/2/2 4/4/4 1/1/1
f 2/2/2 3/3/3 5/5/5
f 3/3/3 6/6/6 5/5/5
f 6/6/6 7/7/7 5/5/5
f 7/7/7 8/8/8 5/5/5
f 8/8/8 7/7/7 9/9/9
f 10/10/10 8/8/8 9/9/9
f 11/11/11 10/10/10 9/9/9
f 12/12/12 11/11/11 9/9/9
f 11/11/11 12/12/12 13/13/13
f 14/14/14 11/11/11 13/13/13
f 4/4/4 15/15/15 1/1/1
f 15/15/15 16/16/16 1/1/1
f 16/16/16 15/15/15 17/17/17
f 18/18/18 16/16/16 17/17/17
f 19/19/19 18/18/18 17/17/17
f 20/20/20 19/19/19 17/17/17
f 19/19/19 20/20/20 21/21/21
f 22/22/22 19/19/19 21/21/21
f 23/23/23 22/22/22 21/21/21
f 24/24/24 23/23/23 21/21/21
f 23/23/23 24/24/24 25/25/25
f 24/24/24 26/26/26 25/25/25
f 29/29/29 28/28/28 27/27/27
f 28/28/28 30/30/30 27/27/27
f 30/30/30 28/28/28 31/31/31
f 28/28/28 32/32/32 31/31/31
f 32/32/32 33/33/33 31/31/31
f 33/33/33 34/34/34 31/31/31
f 34/34/34 33/33/33 35/35/35
f 33/33/33 36/36/36 35/35/35
f 36/36/36 37/37/37 35/35/35
f 37/37/37 38/38/38 35/35/35
f 38/38/38 37/37/37 39/39/39
f 40/40/40 38/38/38 39/39/39
f 43/43/43 42/42/42 41/41/41
f 42/42/42 44/44/44 41/41/41
f 42/42/42 43/43/43 45/45/45
f 43/43/43 46/46/46 45/45/45
f 44/44/44 47/47/47 41/41/41
f 47/47/47 48/48/48 41/41/41
f 48/48/48 47/47/47 49/49/49
f 47/47/47 50/50/50 49/49/49
f 46/46/46 51/51/51 45/45/45
f 51/51/51 52/52/52 45/45/45
f 52/52/52 51/51/51 53/53/53
f 54/54/54 52/52/52 53/53/53
f 57/57/57 56/56/56 55/55/55
f 56/56/56 58/58/58 55/55/55
f 56/56/56 57/57/57 59/59/59
f 60/60/60 56/56/56 59/59/59
f 58/58/58 61/61/61 55/55/55
f 61/61/61 62/62/62 55/55/55
f 62/62/62 61/61/61 63/63/63
f 61/61/61 64/64/64 63/63/63
f 64/64/64 65/65/65 63/63/63
f 65/65/65 66/66/66 63/63/63
f 66/66/66 65/65/65 67/67/67
f 65/65/65 68/68/68 67/67/67
f 71/71/71 70/70/70 69/69/69
f 70/70/70 72/72/72 69/69/69
f 70/70/70 71/71/71 73/73/73
f 71/71/71 74/74/74 73/73/73
f 74/74/74 75/75/75 73/73/73
f 75/75/75 76/76/76 73/73/73
f 76/76/76 75/75/75 77/77/77
f 78/78/78 76/76/76 77/77/77
f 79/79/79 78/78/78 77/77/77
f 80/80/80 79/79/79 77/77/77
f 79/79/79 80/80/80 81/81/81
f 80/80/80 82/82/82 81/81/81
f 82/82/82 83/83/83 81/81/81
f 83/83/83 84/84/84 81/81/81
f 84/84/84 83/83/83 85/85/85
f 86/86/86 84/84/84 85/85/85
f 89/89/89 88/88/88 87/87/87
f 88/88/88 90/90/90 87/87/87
f 88/88/88 89/89/89 91/91/91
f 89/89/89 92/92/92 91/91/91
f 92/92/92 93/93/93 91/91/91
f 93/93/93 94/94/94 91/91/91
f 94/94/94 93/93/93 95/95/95
f 96/96/96 94/94/94 95/95/95
f 90/90/90 97/97/97 87/87/87
f 97/97/97 98/98/98 87/87/87
f 98/98/98 97/97/97 99/99/99
f 100/100/100 98/98/98 99/99/99
f 101/101/101 100/100/100 99/99/99
f 102/102/102 101/101/101 99/99/99
f 101/101/101 102/102/102 103/103/103
f 104/104/104 101/101/101 103/103/103
f 107/107/107 106/106/106 105/105/105
f 106/106/106 108/108/108 105/105/105
f 106/106/106 107/107/107 109/109/109
f 107/107/107 110/110/110 109/109/109
f 110/110/110 111/111/111 109/109/109
f 111/111/111 112/112/112 109/109/109
f 112/112/112 111/111/111 113/113/113
f 114/114/114 112/112/112 113/113/113
f 115/115/115 114/114/114 113/113/113
f 116/116/116 115/115/115 113/113/113
f 115/115/115 116/116/116 117/117/117
f 116/116/116 118/118/118 117/117/117
f 121/121/121 120/120/120 119/119/119
f 120/120/120 122/122/122 119/119/119
f 120/120/120 121/121/121 123/123/123
f 121/121/121 124/124/124 123/123/123
f 122/122/122 125/125/125 119/119/119
f 125/125/125 126/126/126 119/119/119
f 126/126/126 125/125/125 127/127/127
f 128/128/128 126/126/126 127/127/127
f 129/129/129 128/128/128 127/127/127
f 130/130/130 129/129/129 127/127/127
f 129/129/129 130/130/130 131/131/131
f 130/130/130 132/132/132 131/131/131
f 124/124/124 133/133/133 123/123/123
f 133/133/133 134/134/134 123/123/123
f 134/134/134 133/133/133 135/135/135
f 136/136/136 134/134/134 135/135/135
f 139/139/139 138/138/138 137/137/137
f 138/138/138 140/140/140 137/137/137
f 140/140/140 138/138/138 141/141/141
f 138/138/138 142/142/142 141/141/141
f 142/142/142 143/143/143 141/141/141
f 143/143/143 144/144/144 141/141/141
f 144/144/144 143/143/143 145/145/145
f 143/143/143 146/146/146 145/145/145
f 149/149/149 148/148/148 147/147/147
f 148/148/148 150/150/150 147/147/147
f 148/148/148 149/149/149 151/151/151
f 152/152/152 148/148/148 151/151/151
f 150/150/150 153/153/153 147/147/147
f 153/153/153 154/154/154 147/147/147
f 154/154/154 153/153/153 155/155/155
f 153/153/153 156/156/156 155/155/155
f 156/156/156 157/157/157 155/155/155
f 157/157/157 158/158/158 155/155/155
f 158/158/158 157/157/157 159/159/159
f 160/160/160 158/158/158 159/159/159
f 161/161/161 160/160/160 159/159/159
f 162/162/162 161/161/161 159/159/159
f 161/161/161 162/162/162 163/163/163
f 164/164/164 161/161/161 163/163/163
