g tem_mark_01
v -0.4030048 0.059551883 -0.2
v 0.4030048 0.8415267 -0.2
v -0.4030048 0.8415267 -0.2
v 0.4030048 0.059551883 -0.2
v -0.45535016 0.11189727 -0.2
v -0.45535016 0.7891813 -0.2
v 0.45535016 0.7891813 -0.2
v 0.45535016 0.11189727 -0.2
v -0.42767197 0 -0.1537373
v 0.42767197 0 0.1537373
v 0.42767197 0 -0.1537373
v -0.42767197 0 0.1537373
v -0.51490206 0.08723007 0.1537373
v -0.51490206 0.8138485 -0.1537373
v -0.51490206 0.8138485 0.1537373
v -0.51490206 0.08723007 -0.1537373
v 0.51490206 0.08723007 -0.1537373
v 0.51490206 0.8138485 0.1537373
v 0.51490206 0.8138485 -0.1537373
v 0.51490206 0.08723007 0.1537373
v -0.42767197 0.90107864 0.1537373
v 0.42767197 0.90107864 -0.1537373
v 0.42767197 0.90107864 0.1537373
v -0.42767197 0.90107864 -0.1537373
v -0.45535016 0.11189727 0.2
v -0.4030048 0.8415267 0.2
v -0.4030048 0.059551883 0.2
v -0.45535016 0.7891813 0.2
v 0.4030048 0.059551883 0.2
v 0.4030048 0.8415267 0.2
v 0.45535016 0.11189727 0.2
v 0.45535016 0.7891813 0.2
v 0.51490206 0.08723007 -0.1537373
v 0.42767197 0 0.1537373
v 0.51490206 0.08723007 0.1537373
v 0.42767197 0 -0.1537373
v -0.51490206 0.08723007 0.1537373
v -0.42767197 0 -0.1537373
v -0.51490206 0.08723007 -0.1537373
v -0.42767197 0 0.1537373
v -0.42767197 0.90107864 0.1537373
v -0.51490206 0.8138485 -0.1537373
v -0.42767197 0.90107864 -0.1537373
v -0.51490206 0.8138485 0.1537373
v 0.42767197 0.90107864 -0.1537373
v 0.51490206 0.8138485 0.1537373
v 0.42767197 0.90107864 0.1537373
v 0.51490206 0.8138485 -0.1537373
v -0.42767197 0 -0.1537373
v -0.45535016 0.11189727 -0.2
v -0.51490206 0.08723007 -0.1537373
v -0.4030048 0.059551883 -0.2
v -0.51490206 0.8138485 -0.1537373
v -0.4030048 0.8415267 -0.2
v -0.42767197 0.90107864 -0.1537373
v -0.45535016 0.7891813 -0.2
v 0.42767197 0.90107864 -0.1537373
v 0.45535016 0.7891813 -0.2
v 0.51490206 0.8138485 -0.1537373
v 0.4030048 0.8415267 -0.2
v 0.51490206 0.08723007 -0.1537373
v 0.4030048 0.059551883 -0.2
v 0.42767197 0 -0.1537373
v 0.45535016 0.11189727 -0.2
v 0.4030048 0.059551883 0.2
v -0.42767197 0 0.1537373
v -0.4030048 0.059551883 0.2
v 0.42767197 0 0.1537373
v 0.4030048 0.8415267 0.2
v 0.51490206 0.8138485 0.1537373
v 0.45535016 0.7891813 0.2
v 0.42767197 0.90107864 0.1537373
v -0.45535016 0.11189727 0.2
v -0.51490206 0.8138485 0.1537373
v -0.45535016 0.7891813 0.2
v -0.51490206 0.08723007 0.1537373
v 0.51490206 0.8138485 -0.1537373
v 0.45535016 0.11189727 -0.2
v 0.51490206 0.08723007 -0.1537373
v 0.45535016 0.7891813 -0.2
v 0.45535016 0.7891813 0.2
v 0.51490206 0.08723007 0.1537373
v 0.45535016 0.11189727 0.2
v 0.51490206 0.8138485 0.1537373
v -0.4030048 0.8415267 0.2
v 0.42767197 0.90107864 0.1537373
v 0.4030048 0.8415267 0.2
v -0.42767197 0.90107864 0.1537373
v -0.42767197 0.90107864 -0.1537373
v 0.4030048 0.8415267 -0.2
v 0.42767197 0.90107864 -0.1537373
v -0.4030048 0.8415267 -0.2
v -0.45535016 0.7891813 0.2
v -0.42767197 0.90107864 0.1537373
v -0.4030048 0.8415267 0.2
v -0.51490206 0.8138485 0.1537373
v 0.42767197 0 -0.1537373
v -0.4030048 0.059551883 -0.2
v -0.42767197 0 -0.1537373
v 0.4030048 0.059551883 -0.2
v 0.45535016 0.11189727 0.2
v 0.42767197 0 0.1537373
v 0.4030048 0.059551883 0.2
v 0.51490206 0.08723007 0.1537373
v -0.4030048 0.059551883 0.2
v -0.51490206 0.08723007 0.1537373
v -0.45535016 0.11189727 0.2
v -0.42767197 0 0.1537373
v -0.51490206 0.08723007 -0.1537373
v -0.45535016 0.7891813 -0.2
v -0.51490206 0.8138485 -0.1537373
v -0.45535016 0.11189727 -0.2
vt 0.6065079 0.051092897
vt 0.19203411 0.45320717
vt 0.6065079 0.45320717
vt 0.19203411 0.051092897
vt 0.6334254 0.07801042
vt 0.6334254 0.42628965
vt 0.1651166 0.42628965
vt 0.1651166 0.07801042
vt 0.7858612 0.46988222
vt 0.893741 0.23521598
vt 0.7858612 0.23521598
vt 0.893741 0.46988222
vt 0.893741 0.5003161
vt 0.7858612 0.6901757
vt 0.893741 0.6901757
vt 0.7858612 0.5003161
vt 0.7858612 0.20478219
vt 0.893741 0.014893707
vt 0.7858612 0.014893707
vt 0.893741 0.20478219
vt 0.893741 0.7206095
vt 0.7858612 0.9552759
vt 0.893741 0.9552759
vt 0.7858612 0.7206095
vt 0.16511662 0.58074665
vt 0.19203411 0.95594347
vt 0.19203411 0.5538291
vt 0.16511662 0.92902595
vt 0.6065079 0.5538291
vt 0.6065079 0.95594347
vt 0.6334254 0.58074665
vt 0.6334254 0.92902595
vt 0.7858612 0.20478219
vt 0.893741 0.23521598
vt 0.893741 0.20478219
vt 0.7858612 0.23521598
vt 0.893741 0.5003161
vt 0.7858612 0.46988222
vt 0.7858612 0.5003161
vt 0.893741 0.46988222
vt 0.893741 0.7206095
vt 0.7858612 0.6901757
vt 0.7858612 0.7206095
vt 0.893741 0.6901757
vt 0.7858612 0.9552759
vt 0.893741 0.9857742
vt 0.893741 0.9552759
vt 0.7858612 0.9857742
vt 0.6191925 0.02046953
vt 0.6334254 0.07801042
vt 0.66404873 0.06532571
vt 0.6065079 0.051092897
vt 0.66404873 0.43897423
vt 0.6065079 0.45320717
vt 0.6191925 0.48383048
vt 0.6334254 0.42628965
vt 0.17934953 0.48383048
vt 0.1651166 0.42628965
vt 0.13449326 0.43897423
vt 0.19203411 0.45320717
vt 0.13449326 0.06532571
vt 0.19203411 0.051092897
vt 0.17934953 0.02046953
vt 0.1651166 0.07801042
vt 0.6065079 0.5538291
vt 0.17934956 0.52320576
vt 0.19203411 0.5538291
vt 0.61919254 0.52320576
vt 0.6065079 0.95594347
vt 0.6640488 0.94171053
vt 0.6334254 0.92902595
vt 0.61919254 0.9865668
vt 0.16511662 0.58074665
vt 0.13449332 0.94171053
vt 0.16511662 0.92902595
vt 0.13449332 0.568062
vt 0.13449326 0.43897423
vt 0.1651166 0.07801042
vt 0.13449326 0.06532571
vt 0.1651166 0.42628965
vt 0.6334254 0.92902595
vt 0.6640488 0.568062
vt 0.6334254 0.58074665
vt 0.6640488 0.94171053
vt 0.19203411 0.95594347
vt 0.61919254 0.9865668
vt 0.6065079 0.95594347
vt 0.17934956 0.9865668
vt 0.6191925 0.48383048
vt 0.19203411 0.45320717
vt 0.17934953 0.48383048
vt 0.6065079 0.45320717
vt 0.16511662 0.92902595
vt 0.17934956 0.9865668
vt 0.19203411 0.95594347
vt 0.13449332 0.94171053
vt 0.17934953 0.02046953
vt 0.6065079 0.051092897
vt 0.6191925 0.02046953
vt 0.19203411 0.051092897
vt 0.6334254 0.58074665
vt 0.61919254 0.52320576
vt 0.6065079 0.5538291
vt 0.6640488 0.568062
vt 0.19203411 0.5538291
vt 0.13449332 0.568062
vt 0.16511662 0.58074665
vt 0.17934956 0.52320576
vt 0.66404873 0.06532571
vt 0.6334254 0.42628965
vt 0.66404873 0.43897423
vt 0.6334254 0.07801042
vn -0 0 -1
vn -0 0 -1
vn -0 0 -1
vn -0 0 -1
vn -0 0 -1
vn -0 0 -1
vn -0 0 -1
vn -0 0 -1
vn -0 -1 0
vn -0 -1 0
vn -0 -1 0
vn -0 -1 0
vn -1 0 0
vn -1 0 0
vn -1 0 0
vn -1 0 0
vn 1 0 0
vn 1 0 0
vn 1 0 0
vn 1 0 0
vn -0 1 0
vn -0 1 0
vn -0 1 0
vn -0 1 0
vn -0 0 1
vn -0 0 1
vn -0 0 1
vn -0 0 1
vn -0 0 1
vn -0 0 1
vn -0 0 1
vn -0 0 1
vn 0.70710677 -0.70710677 0
vn 0.70710677 -0.70710677 0
vn 0.70710677 -0.70710677 0
vn 0.70710677 -0.70710677 0
vn -0.70710677 -0.70710677 0
vn -0.70710677 -0.70710677 0
vn -0.70710677 -0.70710677 0
vn -0.70710677 -0.70710677 0
vn -0.70710695 0.7071066 0
vn -0.70710695 0.7071066 0
vn -0.70710695 0.7071066 0
vn -0.70710695 0.7071066 0
vn 0.70710695 0.7071066 0
vn 0.70710695 0.7071066 0
vn 0.70710695 0.7071066 0
vn 0.70710695 0.7071066 0
vn -0.4337977 -0.4337977 -0.78970826
vn -0.4337977 -0.4337977 -0.78970826
vn -0.4337977 -0.4337977 -0.78970826
vn -0.4337977 -0.4337977 -0.78970826
vn -0.43379793 0.4337976 -0.7897082
vn -0.43379793 0.4337976 -0.7897082
vn -0.43379793 0.4337976 -0.7897082
vn -0.43379793 0.4337976 -0.7897082
vn 0.43379787 0.4337976 -0.7897082
vn 0.43379787 0.4337976 -0.7897082
vn 0.43379787 0.4337976 -0.7897082
vn 0.43379787 0.4337976 -0.7897082
vn 0.43379763 -0.43379766 -0.7897083
vn 0.43379763 -0.43379766 -0.7897083
vn 0.43379763 -0.43379766 -0.7897083
vn 0.43379763 -0.43379766 -0.7897083
vn -0 -0.6134825 0.7897083
vn -0 -0.6134825 0.7897083
vn -0 -0.6134825 0.7897083
vn -0 -0.6134825 0.7897083
vn 0.43379787 0.4337976 0.7897082
vn 0.43379787 0.4337976 0.7897082
vn 0.43379787 0.4337976 0.7897082
vn 0.43379787 0.4337976 0.7897082
vn -0.61348253 0 0.7897083
vn -0.61348253 0 0.7897083
vn -0.61348253 0 0.7897083
vn -0.61348253 0 0.7897083
vn 0.6134825 0 -0.7897083
vn 0.6134825 0 -0.7897083
vn 0.6134825 0 -0.7897083
vn 0.6134825 0 -0.7897083
vn 0.6134825 0 0.7897083
vn 0.6134825 0 0.7897083
vn 0.6134825 0 0.7897083
vn 0.6134825 0 0.7897083
vn -0 0.613482 0.78970873
vn -0 0.613482 0.78970873
vn -0 0.613482 0.78970873
vn -0 0.613482 0.78970873
vn -0 0.613482 -0.78970873
vn -0 0.613482 -0.78970873
vn -0 0.613482 -0.78970873
vn -0 0.613482 -0.78970873
vn -0.43379793 0.4337976 0.7897082
vn -0.43379793 0.4337976 0.7897082
vn -0.43379793 0.4337976 0.7897082
vn -0.43379793 0.4337976 0.7897082
vn -0 -0.6134825 -0.7897083
vn -0 -0.6134825 -0.7897083
vn -0 -0.6134825 -0.7897083
vn -0 -0.6134825 -0.7897083
vn 0.43379763 -0.43379766 0.7897083
vn 0.43379763 -0.43379766 0.7897083
vn 0.43379763 -0.43379766 0.7897083
vn 0.43379763 -0.43379766 0.7897083
vn -0.4337977 -0.4337977 0.78970826
vn -0.4337977 -0.4337977 0.78970826
vn -0.4337977 -0.4337977 0.78970826
vn -0.4337977 -0.4337977 0.78970826
vn -0.61348253 0 -0.7897083
vn -0.61348253 0 -0.7897083
vn -0.61348253 0 -0.7897083
vn -0.61348253 0 -0.7897083
g tem_mark_01_0
f 3/3/3 2/2/2 1/1/1
f 2/2/2 4/4/4 1/1/1
f 3/3/3 1/1/1 5/5/5
f 6/6/6 3/3/3 5/5/5
f 4/4/4 2/2/2 7/7/7
f 8/8/8 4/4/4 7/7/7
f 11/11/11 10/10/10 9/9/9
f 10/10/10 12/12/12 9/9/9
f 15/15/15 14/14/14 13/13/13
f 14/14/14 16/16/16 13/13/13
f 19/19/19 18/18/18 17/17/17
f 18/18/18 20/20/20 17/17/17
f 23/23/23 22/22/22 21/21/21
f 22/22/22 24/24/24 21/21/21
f 27/27/27 26/26/26 25/25/25
f 26/26/26 28/28/28 25/25/25
f 26/26/26 27/27/27 29/29/29
f 30/30/30 26/26/26 29/29/29
f 30/30/30 29/29/29 31/31/31
f 32/32/32 30/30/30 31/31/31
f 35/35/35 34/34/34 33/33/33
f 34/34/34 36/36/36 33/33/33
f 39/39/39 38/38/38 37/37/37
f 38/38/38 40/40/40 37/37/37
f 43/43/43 42/42/42 41/41/41
f 42/42/42 44/44/44 41/41/41
f 47/47/47 46/46/46 45/45/45
f 46/46/46 48/48/48 45/45/45
f 51/51/51 50/50/50 49/49/49
f 50/50/50 52/52/52 49/49/49
f 55/55/55 54/54/54 53/53/53
f 54/54/54 56/56/56 53/53/53
f 59/59/59 58/58/58 57/57/57
f 58/58/58 60/60/60 57/57/57
f 63/63/63 62/62/62 61/61/61
f 62/62/62 64/64/64 61/61/61
f 67/67/67 66/66/66 65/65/65
f 66/66/66 68/68/68 65/65/65
f 71/71/71 70/70/70 69/69/69
f 70/70/70 72/72/72 69/69/69
f 75/75/75 74/74/74 73/73/73
f 74/74/74 76/76/76 73/73/73
f 79/79/79 78/78/78 77/77/77
f 78/78/78 80/80/80 77/77/77
f 83/83/83 82/82/82 81/81/81
f 82/82/82 84/84/84 81/81/81
f 87/87/87 86/86/86 85/85/85
f 86/86/86 88/88/88 85/85/85
f 91/91/91 90/90/90 89/89/89
f 90/90/90 92/92/92 89/89/89
f 95/95/95 94/94/94 93/93/93
f 94/94/94 96/96/96 93/93/93
f 99/99/99 98/98/98 97/97/97
f 98/98/98 100/100/100 97/97/97
f 103/103/103 102/102/102 101/101/101
f 102/102/102 104/104/104 101/101/101
f 107/107/107 106/106/106 105/105/105
f 106/106/106 108/108/108 105/105/105
f 111/111/111 110/110/110 109/109/109
f 110/110/110 112/112/112 109/109/109
